<?xml version="1.0" standalone="no"?>
<!DOCTYPE svg PUBLIC "-//W3C//DTD SVG 1.1//EN" "http://www.w3.org/Graphics/SVG/1.1/DTD/svg11.dtd" >
<svg>
<metadata>
Created by FontForge 20090914 at Tue Aug 13 22:06:11 2019
 By www-data
Copyright 2019 the Blinker project authors (https://github.com/supertype-de/Blinker)
</metadata>
<defs>
<font id="Blinker-Regular" horiz-adv-x="500" >
  <font-face 
    font-family="Blinker"
    font-weight="400"
    font-stretch="normal"
    units-per-em="1000"
    panose-1="2 0 0 0 0 0 0 0 0 0"
    ascent="800"
    descent="-200"
    x-height="494"
    cap-height="627"
    bbox="-105 -223.001 975.003 838.001"
    underline-thickness="63"
    underline-position="-89"
    unicode-range="U+0020-U+FB02"
  />
<missing-glyph horiz-adv-x="382" 
d="M332 0h-282v627h282v-627zM130 547v-467h122v467h-122z" />
    <glyph glyph-name="f_i" unicode="fi" horiz-adv-x="558" 
d="M95 424h-74v70h74v12c0 57.333 12.667 99.833 38 127.5s63.666 41.5 114.999 41.5c12 0 23.5 -0.5 34.5 -1.5s23.5 -3.16699 37.5 -6.5v-70c-7.33301 2 -16.166 3.5 -26.499 4.5s-20.5 1.5 -30.5 1.5c-31.333 0 -53.5 -7 -66.5 -21s-19.5 -38.667 -19.5 -74v-14h128v-70
h-128v-424h-82v424zM495 580h-88v85h88v-85zM492 0h-82v494h82v-494z" />
    <glyph glyph-name="f_l" unicode="fl" horiz-adv-x="556" 
d="M95 424h-74v70h74v12c0 57.333 12.667 99.833 38 127.5s63.666 41.5 114.999 41.5c12 0 23.5 -0.5 34.5 -1.5s23.5 -3.16699 37.5 -6.5v-70c-7.33301 2 -16.166 3.5 -26.499 4.5s-20.5 1.5 -30.5 1.5c-31.333 0 -53.5 -7 -66.5 -21s-19.5 -38.667 -19.5 -74v-14h128v-70
h-128v-424h-82v424zM490 665v-665h-82v665h82z" />
    <glyph glyph-name=".notdef" horiz-adv-x="382" 
d="M332 0h-282v627h282v-627zM130 547v-467h122v467h-122z" />
    <glyph glyph-name="space" unicode=" " horiz-adv-x="171" 
 />
    <glyph glyph-name="exclam" unicode="!" horiz-adv-x="220" 
d="M63 627h93l-11 -455h-71zM153 81v-81h-86v81h86z" />
    <glyph glyph-name="quotedbl" unicode="&#x22;" horiz-adv-x="312" 
d="M52 627h58v-228h-58v228zM202 627h58v-228h-58v228z" />
    <glyph glyph-name="numbersign" unicode="#" horiz-adv-x="571" 
d="M545 493v-57h-94l-38 -235h97v-57h-106l-24 -144h-60l23 144h-169l-23 -144h-61l24 144h-88v57h98l38 235h-101v57h112l21 134h60l-22 -134h169l22 134h60l-22 -134h84zM353 201l38 235h-168l-39 -235h169z" />
    <glyph glyph-name="dollar" unicode="$" horiz-adv-x="479" 
d="M274 -7l-0.000976562 -87.998h-72v88c-32 1.33301 -62.667 4.5 -92 9.5s-53 11.167 -71 18.5v80c34 -10 67.333 -17.333 100 -22s65.334 -7 98.001 -7c46 0 78.5 7.66699 97.5 23s28.5 43.333 28.5 84c0 25.333 -4.83301 43.833 -14.5 55.5s-29.5 21.5 -59.5 29.5
l-131 36c-43.333 12 -74 29.5 -92 52.5s-27 55.167 -27 96.5c0 56.667 13.333 100 40 130s67.667 48.333 123 55v88h72v-85c24.667 -0.666992 47.5 -2.5 68.5 -5.5s41.833 -7.16699 62.5 -12.5v-77c-36.667 7.33301 -65.667 12.166 -87 14.499s-43.333 3.5 -66 3.5
c-45.333 0 -78.166 -8.16699 -98.499 -24.5s-30.5 -43.166 -30.5 -80.499c0 -22 4.83301 -38.833 14.5 -50.5s26.167 -20.834 49.5 -27.501l131 -36c56 -16 92.167 -35.167 108.5 -57.5s24.5 -56.5 24.5 -102.5c0 -60.667 -14.333 -105.834 -43 -135.501
s-73.334 -47.167 -134.001 -52.5z" />
    <glyph glyph-name="percent" unicode="%" horiz-adv-x="640" 
d="M276 476c0 -56 -9.5 -96 -28.5 -120s-51.167 -36 -96.5 -36s-77.5 12 -96.5 36s-28.5 64 -28.5 120c0 56.667 9.5 96.834 28.5 120.501s51.167 35.5 96.5 35.5s77.5 -11.833 96.5 -35.5s28.5 -63.834 28.5 -120.501zM499 627l-300 -627h-61l300 627h61zM217 476
c0 39.333 -4.83301 66.833 -14.5 82.5s-26.834 23.5 -51.501 23.5c-24 0 -40.833 -7.83301 -50.5 -23.5s-14.5 -43.167 -14.5 -82.5c0 -38.667 4.83301 -65.667 14.5 -81s26.5 -23 50.5 -23c24.667 0 41.834 7.66699 51.501 23s14.5 42.333 14.5 81zM613 152
c0 -56.667 -9.33301 -96.834 -28 -120.501s-50.667 -35.5 -96 -35.5s-77.5 11.833 -96.5 35.5s-28.5 63.834 -28.5 120.501s9.5 96.834 28.5 120.501s51.167 35.5 96.5 35.5c44.667 0 76.5 -11.833 95.5 -35.5s28.5 -63.834 28.5 -120.501zM554 152
c0 39.333 -4.83301 66.833 -14.5 82.5s-26.5 23.5 -50.5 23.5c-24.667 0 -41.834 -7.83301 -51.501 -23.5s-14.5 -43.167 -14.5 -82.5c0 -38.667 4.83301 -65.667 14.5 -81s26.834 -23 51.501 -23c24 0 40.833 7.66699 50.5 23s14.5 42.333 14.5 81z" />
    <glyph glyph-name="ampersand" unicode="&#x26;" horiz-adv-x="704" 
d="M540 278l0.000976562 -231c-24 -18 -54.5 -31.667 -91.5 -41s-78.833 -14 -125.5 -14c-96.667 0 -167.5 26.833 -212.5 80.5s-67.5 138.5 -67.5 254.5c0 104 22.333 181.667 67 233s112 77 202 77c63.333 0 112.666 -14.833 147.999 -44.5s53 -71.167 53 -124.5
c0 -24.667 -3 -47 -9 -67s-15.333 -37.667 -28 -53h211v-70h-147zM307.001 560c-63.333 0 -108.832 -17.5 -136.499 -52.5s-41.5 -92.833 -41.5 -173.5v-7c109.333 1.33301 187.166 12 233.499 32s69.5 54.667 69.5 104c0 30.667 -10.833 54.5 -32.5 71.5
s-52.5 25.5 -92.5 25.5zM324.002 72c31.333 0 58.8311 2 82.498 6s41.5 9.66699 53.5 17v236c-27.333 -24.667 -67.666 -43 -120.999 -55s-122 -18.667 -206 -20c7.33301 -65.333 25.833 -112.333 55.5 -141s74.834 -43 135.501 -43z" />
    <glyph glyph-name="quotesingle" unicode="'" horiz-adv-x="167" 
d="M52 627h63v-228h-63v228z" />
    <glyph glyph-name="parenleft" unicode="(" horiz-adv-x="220" 
d="M117 313c0 -73.333 6.16797 -142.832 18.501 -208.499s30.166 -121.167 53.499 -166.5l-56 -18c-28.667 52 -50.667 111.667 -66 179s-23 138.666 -23 213.999c0 78 7.5 150.5 22.5 217.5s37.167 125.833 66.5 176.5l55 -18c-23.333 -45.333 -41 -100.5 -53 -165.5
s-18 -135.167 -18 -210.5z" />
    <glyph glyph-name="parenright" unicode=")" horiz-adv-x="220" 
d="M103 313c0 75.333 -5.99902 145.499 -17.999 210.499s-29.667 120.167 -53 165.5l55 18c29.333 -50.667 51.5 -109.5 66.5 -176.5s22.5 -139.5 22.5 -217.5c0 -75.333 -7.66699 -146.666 -23 -213.999s-37.333 -127 -66 -179l-56 18
c23.333 45.333 41.166 100.833 53.499 166.5s18.5 135.167 18.5 208.5z" />
    <glyph glyph-name="asterisk" unicode="*" horiz-adv-x="375" 
d="M229 452l78 -102l-50 -36l-70 107l-72 -105l-49 36l80 99l-122 38l20 57l118 -45l-5 126h61l-5 -126l120 43l19 -58z" />
    <glyph glyph-name="plus" unicode="+" 
d="M463 361v-78h-172v-173h-80v173h-174v78h174v171h80v-171h172z" />
    <glyph glyph-name="comma" unicode="," horiz-adv-x="168" 
d="M128 86l-25.001 -155c-1.33301 -10 -5.16602 -17.667 -11.499 -23s-14.5 -8 -24.5 -8h-26l5 186h82z" />
    <glyph glyph-name="hyphen" unicode="-" horiz-adv-x="429" 
d="M374 350v-64h-319v64h319z" />
    <glyph glyph-name="period" unicode="." horiz-adv-x="174" 
d="M128 0h-82v83h82v-83z" />
    <glyph glyph-name="slash" unicode="/" horiz-adv-x="309" 
d="M291 707l-204 -787h-69l205 787h68z" />
    <glyph glyph-name="zero" unicode="0" horiz-adv-x="571" 
d="M522 315c0 -119.333 -17.334 -203 -52.001 -251s-96 -72 -184 -72c-56.667 0 -100.5 7 -131.5 21s-54.5 37 -70.5 69c-12 24 -20.833 54.667 -26.5 92s-8.5 84.333 -8.5 141c0 118.667 17.333 202 52 250s96.334 72 185.001 72c56 0 99.667 -7 131 -21s55 -37 71 -69
c11.333 -24 19.833 -54.5 25.5 -91.5s8.5 -83.833 8.5 -140.5zM418.999 482c-8.66699 28.667 -23.001 48.8311 -43.001 60.498s-50 17.5 -90 17.5c-59.333 0 -99.333 -17 -120 -51s-31 -98.667 -31 -194c0 -98 9.83301 -163 29.5 -195s60.167 -48 121.5 -48
c58.667 0 98.334 16.833 119.001 50.5s31 97.834 31 192.501c0 40.667 -1.33301 74.334 -4 101.001s-7 48.667 -13 66z" />
    <glyph glyph-name="one" unicode="1" horiz-adv-x="364" 
d="M285 0h-85v553l-185 -23v73l270 34v-637z" />
    <glyph glyph-name="two" unicode="2" horiz-adv-x="452" 
d="M413 80v-80h-385v80l227 253c23.333 26.667 39.833 50.5 49.5 71.5s14.5 42.833 14.5 65.5c0 28.667 -8.16699 50.834 -24.5 66.501s-39.833 23.5 -70.5 23.5c-26 0 -56.5 -2.33301 -91.5 -7s-59.5 -9.33398 -73.5 -14.001v75c26 7.33301 54.333 13 85 17s61.667 6 93 6
c53.333 0 94.5 -13.833 123.5 -41.5s43.5 -66.5 43.5 -116.5c0 -32.667 -6 -63 -18 -91s-32.667 -58.333 -62 -91l-195 -217h284z" />
    <glyph glyph-name="three" unicode="3" horiz-adv-x="457" 
d="M387 477c0 -38.667 -8.83203 -70.501 -26.499 -95.501s-43.5 -42.167 -77.5 -51.5v-2c42.667 -2.66699 75.167 -17 97.5 -43s33.5 -62.667 33.5 -110c0 -59.333 -17.833 -104.666 -53.5 -135.999s-87.5 -47 -155.5 -47c-38 0 -71 1.66699 -99 5s-52 8.33301 -72 15v76
c26 -6 50.833 -10.167 74.5 -12.5s51.5 -3.5 83.5 -3.5c48.667 0 84.5 8.83301 107.5 26.5s34.5 45.167 34.5 82.5c0 36 -10.167 62.167 -30.5 78.5s-52.5 24.5 -96.5 24.5h-98v74h78c38 0 67.5 9.16699 88.5 27.5s31.5 44.5 31.5 78.5s-8.5 58.5 -25.5 73.5
s-44.167 22.5 -81.5 22.5c-22.667 0 -48.834 -2 -78.501 -6s-52.5 -8 -68.5 -12v72c22.667 7.33301 48.667 13 78 17s59 6 89 6c54.667 0 96.167 -13.667 124.5 -41s42.5 -67 42.5 -119z" />
    <glyph glyph-name="four" unicode="4" horiz-adv-x="518" 
d="M493 240v-74h-86v-166h-85v166h-287v74l76 387h82l-72 -387h201v277h85v-277h86z" />
    <glyph glyph-name="five" unicode="5" horiz-adv-x="456" 
d="M421 185c0 -64 -16.999 -112.165 -50.999 -144.498s-84.667 -48.5 -152 -48.5c-40.667 0 -76 1.66699 -106 5s-54 8.33301 -72 15v76c23.333 -5.33301 47.833 -9.33301 73.5 -12s53.5 -4 83.5 -4c50.667 0 86.5 8.66699 107.5 26s31.5 46.666 31.5 87.999
c0 38 -10 64.667 -30 80s-57.667 23 -113 23c-22.667 0 -44 -0.833008 -64 -2.5s-40 -4.5 -60 -8.5v349h312v-77h-227v-194c15.333 2 29.5 3.5 42.5 4.5s25.833 1.5 38.5 1.5c65.333 0 112.666 -14.333 141.999 -43s44 -73.334 44 -134.001z" />
    <glyph glyph-name="six" unicode="6" horiz-adv-x="514" 
d="M268 -8c-80.667 0 -137.668 22.999 -171.001 68.999s-50 124.667 -50 236c0 121.333 21.5 208.333 64.5 261s113.167 79 210.5 79c14.667 0 30.834 -0.666992 48.501 -2s31.167 -3 40.5 -5v-75c-17.333 2 -33 3.33301 -47 4s-28 1 -42 1c-66 0 -112.833 -15 -140.5 -45
s-43.834 -83.333 -48.501 -160c30.667 16.667 60 28.667 88 36s58 11 90 11c58 0 100.833 -15.667 128.5 -47s41.5 -79.666 41.5 -144.999c0 -68.667 -18.667 -122.167 -56 -160.5s-89.666 -57.5 -156.999 -57.5zM398.999 206.999c0 44.667 -8.83301 76.332 -26.5 94.999
s-48.834 28 -93.501 28c-24.667 0 -49.667 -3.66699 -75 -11s-49.666 -17.666 -72.999 -30.999c0.666992 -80.667 10.667 -136.834 30 -168.501s54 -47.5 104 -47.5c44 0 77.333 11.333 100 34s34 56.334 34 101.001z" />
    <glyph glyph-name="seven" unicode="7" horiz-adv-x="445" 
d="M421 627v-77l-290 -550h-95l294 550h-300v77h391z" />
    <glyph glyph-name="eight" unicode="8" horiz-adv-x="523" 
d="M477 168c0 -60.667 -17.334 -105.168 -52.001 -133.501s-89.667 -42.5 -165 -42.5s-129.833 13.5 -163.5 40.5s-50.5 70.5 -50.5 130.5c0 44 10.833 79.833 32.5 107.5s52.5 44.834 92.5 51.501c-38 7.33301 -66.5 23.833 -85.5 49.5s-28.167 59.5 -27.5 101.5
c0 56 16.333 97.333 49 124s83.667 40 153 40c72 0 124.333 -12.667 157 -38s49 -66.333 49 -123c0 -43.333 -9.66699 -77.833 -29 -103.5s-48 -42.5 -86 -50.5c40.667 -6 71.834 -22.333 93.501 -49s32.5 -61.667 32.5 -105zM389.999 461.999
c0 34.667 -10.332 60 -30.999 76s-53.667 24 -99 24c-44 0 -76 -8 -96 -24s-30 -41.667 -30 -77c0 -38 10.167 -65.5 30.5 -82.5s52.166 -25.5 95.499 -25.5c44.667 0 77.5 8.66699 98.5 26s31.5 45 31.5 83zM398 178.999c0 36.667 -11 63.501 -33 80.501
s-57 25.5 -105 25.5c-46.667 0 -80.667 -8.66699 -102 -26s-32 -45.333 -32 -84c0 -36.667 10.667 -63.334 32 -80.001s55.333 -25 102 -25c48 0 83 8.66699 105 26s33 45 33 83z" />
    <glyph glyph-name="nine" unicode="9" horiz-adv-x="512" 
d="M248 637c80.667 0 136.83 -22.666 168.497 -67.999s47.5 -124.333 47.5 -237c0 -120.667 -21.5 -207.5 -64.5 -260.5s-113.167 -79.5 -210.5 -79.5c-16 0 -33 0.833008 -51 2.5s-31.667 3.5 -41 5.5v77c10.667 -1.33301 23.834 -2.5 39.501 -3.5s33.167 -1.5 52.5 -1.5
c65.333 0 111.833 15 139.5 45s43.834 83 48.501 159c-25.333 -15.333 -51.666 -26.833 -78.999 -34.5s-56.666 -11.5 -87.999 -11.5c-60.667 0 -105.334 15.833 -134.001 47.5s-43 80.5 -43 146.5c0 67.333 18.833 119.666 56.5 156.999s90.5 56 158.5 56zM247.996 560.001
c-43.333 0 -76.166 -11.167 -98.499 -33.5s-33.5 -55.166 -33.5 -98.499c0 -46 9.16699 -78.5 27.5 -97.5s50.5 -28.5 96.5 -28.5c24.667 0 48.667 3.5 72 10.5s45.666 17.5 66.999 31.5c-0.666992 83.333 -10.167 140.166 -28.5 170.499s-52.5 45.5 -102.5 45.5z" />
    <glyph glyph-name="colon" unicode=":" horiz-adv-x="194" 
d="M138 411h-82v83h82v-83zM138 0h-82v83h82v-83z" />
    <glyph glyph-name="semicolon" unicode=";" horiz-adv-x="202" 
d="M144 86l-25.001 -155c-1.33301 -10 -5.16602 -17.667 -11.499 -23s-14.5 -8 -24.5 -8h-26l5 186h82zM143.999 411h-82v83h82v-83z" />
    <glyph glyph-name="less" unicode="&#x3c;" 
d="M463 164v-82l-426 184v92l426 184v-80l-365 -149z" />
    <glyph glyph-name="equal" unicode="=" 
d="M463 246v-78h-426v78h426zM463 456v-78h-426v78h426z" />
    <glyph glyph-name="greater" unicode="&#x3e;" 
d="M463 266l-426 -184v82l365 149l-365 149v80l426 -184v-92z" />
    <glyph glyph-name="question" unicode="?" horiz-adv-x="379" 
d="M185 637c54 0 96.0039 -11.668 126.004 -35.001s45 -56.666 45 -99.999c0 -39.333 -12.667 -75.833 -38 -109.5s-65.333 -66.167 -120 -97.5v-122h-75v157c55.333 28 94.666 54 117.999 78s35 49.333 35 76c0 24.667 -8.83301 43.5 -26.5 56.5s-43.167 19.5 -76.5 19.5
c-24.667 0 -50.834 -2.5 -78.501 -7.5s-51.834 -11.5 -72.501 -19.5v76c25.333 9.33301 51.166 16.333 77.499 21s54.833 7 85.5 7zM203.004 80.999v-81h-87v81h87z" />
    <glyph glyph-name="at" unicode="@" horiz-adv-x="644" 
d="M298 75c-31.333 0 -54.8311 8.33496 -70.498 25.002s-23.5 42 -23.5 76s9.16699 58.333 27.5 73s49.5 22 93.5 22c14 0 28 -0.666992 42 -2s25.667 -3 35 -5v25c0 22 -5.66699 38 -17 48s-29 15 -53 15c-18.667 0 -35.834 -0.833008 -51.501 -2.5
s-30.834 -4.5 -45.501 -8.5v56c16 4 32.667 7 50 9s37.666 3 60.999 3c39.333 0 68.333 -9 87 -27s28 -46.333 28 -85v-134c0 -10.667 1.83301 -18.5 5.5 -23.5s9.16699 -7.5 16.5 -7.5c20 0 36.167 14 48.5 42s18.5 65 18.5 111c0 69.333 -17.333 121.833 -52 157.5
s-86 53.5 -154 53.5c-84.667 0 -144.834 -20 -180.501 -60s-53.5 -106.667 -53.5 -200c0 -86.667 19.833 -149.834 59.5 -189.501s103.834 -59.5 192.501 -59.5c31.333 0 61.5 3.33301 90.5 10s55.167 16.334 78.5 29.001v-62c-23.333 -13.333 -50.666 -23.333 -81.999 -30
s-65.333 -10 -102 -10c-103.333 0 -180 25.667 -230 77s-75 129.666 -75 234.999c0 107.333 25.167 187.666 75.5 240.999s125.833 80 226.5 80c87.333 0 154 -22.833 200 -68.5s69 -111.167 69 -196.5c0 -66.667 -12.5 -119.5 -37.5 -158.5s-59.167 -58.5 -102.5 -58.5
c-15.333 0 -28 3.33301 -38 10s-17 16.667 -21 30c-14 -12.667 -31.167 -22.5 -51.5 -29.5s-41.833 -10.5 -64.5 -10.5zM333.002 225.002c-27.333 0 -45.834 -3.16797 -55.501 -9.50098s-14.5 -18.166 -14.5 -35.499c0 -18 4.16699 -30.833 12.5 -38.5
s21.833 -11.5 40.5 -11.5c16.667 0 32.834 2.33301 48.501 7s28.167 11 37.5 19v64c-18 2 -31.5 3.33301 -40.5 4s-18.5 1 -28.5 1z" />
    <glyph glyph-name="A" unicode="A" horiz-adv-x="598" 
d="M98 0h-90l248 627h88l245 -627h-90l-57 151h-287zM298 549c-6.66699 -23.333 -14.5 -48 -23.5 -74l-27.5 -78l-64 -171h231l-64 171l-31.5 89z" />
    <glyph glyph-name="B" unicode="B" horiz-adv-x="560" 
d="M522 180c0 -64 -17.3311 -110.001 -51.998 -138.001s-90.334 -42 -167.001 -42h-231v627h230c69.333 0 118.666 -11.667 147.999 -35s44 -63.333 44 -120c0 -40.667 -7.16699 -72 -21.5 -94s-38.5 -37 -72.5 -45c40.667 -5.33301 71.167 -20.666 91.5 -45.999
s30.5 -61 30.5 -107zM415.002 459.999c0 34.667 -8.33301 58.833 -25 72.5s-45.667 20.5 -87 20.5h-146v-196h146c40 0 68.667 8 86 24s26 42.333 26 79zM440.002 184.998c0 37.333 -10.333 63.333 -31 78s-56 22 -106 22h-146v-209h146c50 0 85.333 8 106 24
s31 44.333 31 85z" />
    <glyph glyph-name="C" unicode="C" horiz-adv-x="518" 
d="M321 72c27.333 0 56.167 3.16797 86.5 9.50098s58.5 14.833 84.5 25.5v-76c-36.667 -14.667 -69.167 -24.834 -97.5 -30.501s-57.833 -8.5 -88.5 -8.5c-96 0 -163.667 24.833 -203 74.5s-59 132.5 -59 248.5c0 111.333 22.833 192.833 68.5 244.5s118.5 77.5 218.5 77.5
c30.667 0 58 -0.666992 82 -2s45.667 -3.66602 65 -6.99902v-75c-23.333 2.66699 -46.833 4.5 -70.5 5.5s-49.167 1.5 -76.5 1.5c-74.667 0 -126.667 -18.5 -156 -55.5s-44 -100.167 -44 -189.5c0 -90.667 13.333 -153.834 40 -189.501s76.667 -53.5 150 -53.5z" />
    <glyph glyph-name="D" unicode="D" horiz-adv-x="606" 
d="M254 0h-182.001v627h182c64 0 114.833 -5.33301 152.5 -16s67.834 -27.667 90.501 -51s39.167 -54.833 49.5 -94.5s15.5 -90.167 15.5 -151.5c0 -108.667 -24.333 -188.167 -73 -238.5s-127 -75.5 -235 -75.5zM432.999 499c-15.333 18 -36.667 31.0029 -64 39.0029
s-65.666 12 -114.999 12h-97v-470h97c82.667 0 140.167 17.667 172.5 53s48.5 95.666 48.5 180.999c0 47.333 -3.33301 85.666 -10 114.999s-17.334 52.666 -32.001 69.999z" />
    <glyph glyph-name="E" unicode="E" horiz-adv-x="523" 
d="M488 80v-80h-416v627h407v-77h-322v-192h285v-75h-285v-203h331z" />
    <glyph glyph-name="F" unicode="F" horiz-adv-x="498" 
d="M157 258v-258h-85v627h402v-77h-317v-217h280v-75h-280z" />
    <glyph glyph-name="G" unicode="G" horiz-adv-x="596" 
d="M470 257h-163v75h243v-302c-18.667 -8.66699 -52 -17.167 -100 -25.5s-91.667 -12.5 -131 -12.5c-103.333 0 -174.833 24.333 -214.5 73s-59.5 131.667 -59.5 249c0 110.667 23.667 192.167 71 244.5s121.666 78.5 222.999 78.5c34.667 0 67.834 -0.833008 99.501 -2.5
s57.5 -4.16699 77.5 -7.5v-75c-26.667 2.66699 -55.5 4.66699 -86.5 6s-61.167 2 -90.5 2c-76 0 -129.5 -18.667 -160.5 -56s-46.5 -100.666 -46.5 -189.999c0 -44 2.5 -80.833 7.5 -110.5s13.167 -53.5 24.5 -71.5c13.333 -22.667 32.333 -38.834 57 -48.501
s60.667 -14.5 108 -14.5c18.667 0 40.667 1.5 66 4.5s50.333 7.16699 75 12.5v171z" />
    <glyph glyph-name="H" unicode="H" horiz-adv-x="642" 
d="M157 0h-85v627h85v-270h328v270h85v-627h-85v279h-328v-279z" />
    <glyph glyph-name="I" unicode="I" horiz-adv-x="229" 
d="M157 627v-627h-85v627h85z" />
    <glyph glyph-name="J" unicode="J" horiz-adv-x="429" 
d="M277 234v393.001h85v-398c0 -82.667 -18 -142.834 -54 -180.501s-94.333 -56.5 -175 -56.5c-22.667 0 -43.667 1 -63 3s-37 5.33301 -53 10v78c18.667 -4 36.167 -6.83301 52.5 -8.5s33.833 -2.5 52.5 -2.5c58 0 98.333 12 121 36s34 66 34 126z" />
    <glyph glyph-name="K" unicode="K" horiz-adv-x="579" 
d="M312 321l266 -321h-110l-229 281h-82v-281h-85v627h85v-271h82l225 271h104z" />
    <glyph glyph-name="L" unicode="L" horiz-adv-x="472" 
d="M456 80v-80h-384v627h85v-547h299z" />
    <glyph glyph-name="M" unicode="M" horiz-adv-x="735" 
d="M663 627v-627h-80v494l-179 -369h-73l-179 370v-495h-80v627h107l190 -399l191 399h103z" />
    <glyph glyph-name="N" unicode="N" horiz-adv-x="657" 
d="M585 627v-627h-86l-347 488v-488h-80v627h86l347 -495v495h80z" />
    <glyph glyph-name="O" unicode="O" horiz-adv-x="649" 
d="M604 315c0 -114 -21.832 -196.333 -65.499 -247s-114.834 -76 -213.501 -76c-106 0 -179.167 23.5 -219.5 70.5s-60.5 131.167 -60.5 252.5c0 113.333 22 195.333 66 246s115.333 76 214 76c106 0 179 -23.5 219 -70.5s60 -130.833 60 -251.5zM161.001 134
c12.667 -22.667 31.332 -38.6689 55.999 -48.002s60.667 -14 108 -14c74 0 124.667 17.833 152 53.5s41 98.834 41 189.501c0 45.333 -2.33301 82.5 -7 111.5s-12 52.5 -22 70.5c-12.667 22.667 -31.167 38.834 -55.5 48.501s-60.5 14.5 -108.5 14.5
c-74.667 0 -125.667 -18 -153 -54s-41 -99.667 -41 -191c0 -45.333 2.33301 -82.5 7 -111.5s12.334 -52.167 23.001 -69.5z" />
    <glyph glyph-name="P" unicode="P" horiz-adv-x="563" 
d="M157 203v-203h-85v627h213c88.667 0 152.167 -16 190.5 -48s57.5 -84.333 57.5 -157c0 -74 -20 -129 -60 -165s-101.667 -54 -185 -54h-131zM447 422c0 46 -12.5 78.832 -37.5 98.499s-66.5 29.5 -124.5 29.5h-128v-272h128c58 0 99.5 11.333 124.5 34
s37.5 59.334 37.5 110.001z" />
    <glyph glyph-name="Q" unicode="Q" horiz-adv-x="649" 
d="M325 -8c-106 0 -179.169 23.5 -219.502 70.5s-60.5 131.167 -60.5 252.5c0 113.333 22 195.333 66 246s115.333 76 214 76c106 0 179 -23.5 219 -70.5s60 -130.833 60 -251.5c0 -81.333 -10.833 -146 -32.5 -194s-55.167 -82.333 -100.5 -103l114 -146h-101l-94 124
c-9.33301 -1.33301 -19.166 -2.33301 -29.499 -3s-22.166 -1 -35.499 -1zM160.998 134c12.667 -22.667 31.332 -38.6689 55.999 -48.002s60.667 -14 108 -14c74 0 124.667 17.833 152 53.5s41 98.834 41 189.501c0 45.333 -2.33301 82.5 -7 111.5s-12 52.5 -22 70.5
c-12.667 22.667 -31.167 38.834 -55.5 48.501s-60.5 14.5 -108.5 14.5c-74.667 0 -125.667 -18 -153 -54s-41 -99.667 -41 -191c0 -45.333 2.33301 -82.5 7 -111.5s12.334 -52.167 23.001 -69.5z" />
    <glyph glyph-name="R" unicode="R" horiz-adv-x="579" 
d="M157 225l-0.000976562 -225.001h-85v627h213c88.667 0 152.167 -15.167 190.5 -45.5s57.5 -80.5 57.5 -150.5c0 -54.667 -12.167 -98.167 -36.5 -130.5s-61.166 -54.166 -110.499 -65.499l164 -235h-102l-152 225h-139zM446.999 430.999
c0 42.667 -12.3311 73.167 -36.998 91.5s-66.334 27.5 -125.001 27.5h-128v-250h128c57.333 0 98.666 10.333 123.999 31s38 54 38 100z" />
    <glyph glyph-name="S" unicode="S" horiz-adv-x="504" 
d="M314 263l-151.999 35.999c-42 10 -72.333 27.167 -91 51.5s-28 58.166 -28 101.499c0 63.333 18.167 110 54.5 140s92.833 45 169.5 45c32 0 60.833 -1.5 86.5 -4.5s49.5 -7.5 71.5 -13.5v-77c-28 6.66699 -54.667 11.334 -80 14.001s-51.666 4 -78.999 4
c-51.333 0 -87.333 -7.5 -108 -22.5s-31 -41.5 -31 -79.5c0 -24 4.83301 -42.167 14.5 -54.5s25.5 -21.166 47.5 -26.499l151 -36c53.333 -12.667 88.833 -30.5 106.5 -53.5s26.5 -58.5 26.5 -106.5c0 -68.667 -17.833 -117.334 -53.5 -146.001s-92.167 -43 -169.5 -43
c-40.667 0 -79.834 2.66699 -117.501 8s-67.5 12.333 -89.5 21v80c31.333 -9.33301 64.666 -16.5 99.999 -21.5s71 -7.5 107 -7.5c50 0 85 7.33301 105 22s30 43 30 85c0 26 -4.83301 44.833 -14.5 56.5s-28.5 20.834 -56.5 27.501z" />
    <glyph glyph-name="T" unicode="T" horiz-adv-x="531" 
d="M516 627v-77h-208v-550h-85v550h-208v77h501z" />
    <glyph glyph-name="U" unicode="U" horiz-adv-x="633" 
d="M482 250l0.000976562 377h85v-377c0 -88 -20.5 -153 -61.5 -195s-104.5 -63 -190.5 -63c-86.667 0 -149.834 20.5 -189.501 61.5s-59.5 106.5 -59.5 196.5v377h85v-377c0 -66 12.167 -112.167 36.5 -138.5s66.833 -39.5 127.5 -39.5c61.333 0 104.5 13.167 129.5 39.5
s37.5 72.5 37.5 138.5z" />
    <glyph glyph-name="V" unicode="V" horiz-adv-x="586" 
d="M243 0l-235 627.001h94l144 -397l20 -63.5c8 -25.667 17.667 -58.834 29 -99.501l25.5 91c8.33301 28.667 15.833 52.667 22.5 72l143 397h92l-235 -627h-100z" />
    <glyph glyph-name="W" unicode="W" horiz-adv-x="854" 
d="M187 0l-174 626.999h92l104 -397c2.66699 -10.667 5.5 -23.167 8.5 -37.5s9.83301 -51.166 20.5 -110.499c12 60.667 19.667 98 23 112s6.33301 26 9 36l114 397h89l115 -397l9 -35c3.33301 -13.333 11 -50.333 23 -111c7.33301 40.667 13.5 73.167 18.5 97.5
s8.5 40.5 10.5 48.5l103 397h89l-174 -627h-96l-101 336c-7.33301 24.667 -14.333 51 -21 79s-14 61.333 -22 100c-8 -38.667 -15.333 -72 -22 -100s-13.667 -54.333 -21 -79l-100 -336h-97z" />
    <glyph glyph-name="X" unicode="X" horiz-adv-x="547" 
d="M322 325l225 -325h-104l-175 258l-170 -258h-94l217 322l-208 305h103l156 -242l162 242h92z" />
    <glyph glyph-name="Y" unicode="Y" horiz-adv-x="575" 
d="M476 627h88l-233 -389v-238h-85v238l-239 389h96l187 -313z" />
    <glyph glyph-name="Z" unicode="Z" horiz-adv-x="508" 
d="M485 80v-80h-461v80l346 470h-317v77h413v-77l-345 -470h364z" />
    <glyph glyph-name="bracketleft" unicode="[" horiz-adv-x="263" 
d="M238 -20v-62h-168v789h168v-61h-101v-666h101z" />
    <glyph glyph-name="backslash" unicode="\" horiz-adv-x="308" 
d="M86 707l204 -787h-68l-205 787h69z" />
    <glyph glyph-name="bracketright" unicode="]" horiz-adv-x="263" 
d="M193 -82h-168v62h101v666h-101v61h168v-789z" />
    <glyph glyph-name="asciicircum" unicode="^" 
d="M161 365h-80l132 262h74l131 -262h-80l-88 189z" />
    <glyph glyph-name="underscore" unicode="_" horiz-adv-x="481" 
d="M445 -39v-64h-409v64h409z" />
    <glyph glyph-name="grave" unicode="`" horiz-adv-x="307" 
d="M181 564l-131 122h104l103 -122h-76z" />
    <glyph glyph-name="a" unicode="a" horiz-adv-x="493" 
d="M178 -8c-50.667 0 -87.8359 12.166 -111.503 36.499s-35.5 62.833 -35.5 115.5c0 53.333 14.333 91.166 43 113.499s77.334 33.5 146.001 33.5c22.667 0 45 -1 67 -3s42.667 -5 62 -9v48c0 36.667 -9.33301 63 -28 79s-48.667 24 -90 24
c-30.667 0 -57.667 -1.16699 -81 -3.5s-46.666 -6.16602 -69.999 -11.499v71c26.667 6.66699 53.834 11.334 81.501 14.001s59.167 4 94.5 4c59.333 0 103.333 -13.833 132 -41.5s43 -70.5 43 -128.5v-334h-75l-4 46h-2c-20 -16 -45.833 -29 -77.5 -39
s-63.167 -15 -94.5 -15zM228.998 223.999c-45.333 0 -76.832 -5.5 -94.499 -16.5s-26.5 -30.5 -26.5 -58.5c0 -29.333 7.33301 -50.5 22 -63.5s38.667 -19.5 72 -19.5c26 0 52.667 4 80 12s49.666 18 66.999 30v106c-22 3.33301 -42.5 5.83301 -61.5 7.5
s-38.5 2.5 -58.5 2.5z" />
    <glyph glyph-name="b" unicode="b" horiz-adv-x="540" 
d="M310 504c67.333 0 115.499 -19.833 144.499 -59.5s43.5 -104.5 43.5 -194.5c0 -92 -18 -158 -54 -198s-96.333 -60 -181 -60c-38 0 -73.667 2.16699 -107 6.5s-63.666 10.833 -90.999 19.5v647h82v-205c23.333 14 49 24.833 77 32.5s56.667 11.5 86 11.5zM415.999 250
c0 67.333 -9.50098 114.166 -28.501 140.499s-54.5 39.5 -106.5 39.5c-24 0 -47.667 -3.16699 -71 -9.5s-44.333 -15.166 -63 -26.499v-313c14.667 -4 31.334 -7.16699 50.001 -9.5s39 -3.5 61 -3.5c62 0 103.833 13 125.5 39s32.5 73.667 32.5 143z" />
    <glyph glyph-name="c" unicode="c" horiz-adv-x="439" 
d="M411 98l0.00195312 -69.001c-16.667 -10.667 -41.5 -19.5 -74.5 -26.5s-67.5 -10.5 -103.5 -10.5c-70 0 -119.167 19 -147.5 57s-42.5 104.333 -42.5 199c0 92.667 18.333 158.5 55 197.5s99 58.5 187 58.5c19.333 0 36.833 -0.5 52.5 -1.5s35.834 -3.16699 60.501 -6.5
v-73c-24.667 3.33301 -44.834 5.33301 -60.501 6s-33.167 1 -52.5 1c-62.667 0 -105 -12.833 -127 -38.5s-33 -73.5 -33 -143.5s8.66699 -117.5 26 -142.5s50.666 -37.5 99.999 -37.5c27.333 0 55.666 2.83301 84.999 8.5s54.333 12.834 75 21.501z" />
    <glyph glyph-name="d" unicode="d" horiz-adv-x="541" 
d="M393 665l82.001 0.000976562v-665h-71l-6 46h-2c-19.333 -18 -42.833 -31.5 -70.5 -40.5s-59.5 -13.5 -95.5 -13.5c-67.333 0 -115.5 20 -144.5 60s-43.5 105.333 -43.5 196s17.667 156 53 196s94.333 60 177 60c23.333 0 45.166 -1.83301 65.499 -5.5
s38.833 -8.83398 55.5 -15.501v182zM282.001 430.001c-62 0 -103.834 -13.001 -125.501 -39.001s-32.5 -73.667 -32.5 -143c0 -67.333 9.5 -114.166 28.5 -140.499s54.5 -39.5 106.5 -39.5c24.667 0 48.334 3.16699 71.001 9.5s43.667 15.833 63 28.5v304
c-16 6.66699 -33 11.667 -51 15s-38 5 -60 5z" />
    <glyph glyph-name="e" unicode="e" horiz-adv-x="498" 
d="M437 96l-0.000976562 -69.001c-17.333 -9.33301 -42.833 -17.5 -76.5 -24.5s-67.834 -10.5 -102.501 -10.5c-77.333 0 -132.666 20 -165.999 60s-50 106 -50 198c0 88.667 17.333 153.167 52 193.5s90 60.5 166 60.5c70.667 0 121.334 -15.833 152.001 -47.5
s46 -84.5 46 -158.5c0 -13.333 -0.333008 -25.666 -1 -36.999s-2 -25 -4 -41h-328c0.666992 -54.667 11.834 -93.667 33.501 -117s59.167 -35 112.5 -35c28.667 0 58.667 2.66699 90 8s56.666 12 75.999 20zM382.999 308.999c-0.666992 44 -10.334 75.167 -29.001 93.5
s-50 27.5 -94 27.5c-49.333 0 -84.166 -10.5 -104.499 -31.5s-30.5 -57.833 -30.5 -110.5h257c0 1.33301 0.166992 4.5 0.5 9.5s0.5 8.83301 0.5 11.5z" />
    <glyph glyph-name="f" unicode="f" horiz-adv-x="351" 
d="M95 424h-74.002v70h74v12c0 57.333 14 99.833 42 127.5s71 41.5 129 41.5c14.667 0 29.334 -0.666992 44.001 -2s28.334 -3.33301 41.001 -6v-70c-8 2 -18.833 3.5 -32.5 4.5s-27.167 1.5 -40.5 1.5c-38 0 -64.333 -6.83301 -79 -20.5s-22 -38.5 -22 -74.5v-14h159v-70
h-159v-424h-82v424z" />
    <glyph glyph-name="g" unicode="g" horiz-adv-x="538" 
d="M267 -162c-33.333 0 -64.499 2.16895 -93.499 6.50195s-52.833 10.166 -71.5 17.499v73c15.333 -6 37.833 -11 67.5 -15s59.167 -6 88.5 -6c50 0 84.667 9.83301 104 29.5s29 54.5 29 104.5v31c-24.667 -14.667 -51 -25.834 -79 -33.501s-56.333 -11.5 -85 -11.5
c-66 0 -113.167 18.333 -141.5 55s-42.5 96.667 -42.5 180c0 84.667 18.167 145 54.5 181s98.166 54 185.499 54c31.333 0 65 -1.83301 101 -5.5s65.667 -8.16699 89 -13.5v-414c0 -86.667 -15.333 -147.167 -46 -181.5s-84 -51.5 -160 -51.5zM283.001 430.002
c-64 0 -106.335 -10.999 -127.002 -32.999s-31 -64.667 -31 -128c0 -60 8.83301 -101.5 26.5 -124.5s51.834 -34.5 102.501 -34.5c22 0 44.833 3.16699 68.5 9.5s46.5 15.166 68.5 26.499v273c-16 3.33301 -33.167 6 -51.5 8s-37.166 3 -56.499 3z" />
    <glyph glyph-name="h" unicode="h" horiz-adv-x="553" 
d="M148 0l-82.001 -0.000976562v665h82v-211c30 16.667 59.833 29.167 89.5 37.5s59.167 12.5 88.5 12.5c54.667 0 95.834 -13.667 123.501 -41s41.5 -67.666 41.5 -120.999v-342h-82v332c0 34 -8.83301 58.833 -26.5 74.5s-45.167 23.5 -82.5 23.5
c-24.667 0 -50.167 -3.33301 -76.5 -10s-51.5 -16 -75.5 -28v-392z" />
    <glyph glyph-name="i" unicode="i" horiz-adv-x="214" 
d="M151 580h-88v85h88v-85zM148 0h-82v494h82v-494z" />
    <glyph glyph-name="j" unicode="j" horiz-adv-x="223" 
d="M160 580h-88v85h88v-85zM0 -162c-12.667 0 -24.166 0.333008 -34.499 1s-22.833 2.33398 -37.5 5.00098v72c14 -2 24.167 -3.16699 30.5 -3.5s12.166 -0.5 17.499 -0.5c36 0 61.5 7.66699 76.5 23s22.5 41.666 22.5 78.999v480h82v-489c0 -55.333 -13.167 -97 -39.5 -125
s-65.5 -42 -117.5 -42z" />
    <glyph glyph-name="k" unicode="k" horiz-adv-x="493" 
d="M148 214v-214h-82v665h82v-380h59l173 209h99l-205 -240l215 -254h-103l-176 214h-62z" />
    <glyph glyph-name="l" unicode="l" horiz-adv-x="214" 
d="M148 665v-665h-82v665h82z" />
    <glyph glyph-name="m" unicode="m" horiz-adv-x="802" 
d="M148 0l-81.9971 -0.000976562v494h75l4 -38h3c29.333 16.667 56 28.834 80 36.501s48 11.5 72 11.5c28 0 52 -4.33301 72 -13s35.667 -21.667 47 -39h3c26.667 16.667 54.834 29.5 84.501 38.5s59.5 13.5 89.5 13.5c47.333 0 83.166 -12.5 107.499 -37.5
s36.5 -61.833 36.5 -110.5v-356h-82v346c0 28.667 -7.66699 49.834 -23 63.501s-39.666 20.5 -72.999 20.5c-18.667 0 -38.334 -2.83301 -59.001 -8.5s-41.334 -13.834 -62.001 -24.501c1.33301 -6.66699 2.16602 -13.334 2.49902 -20.001s0.5 -13.667 0.5 -21v-356h-82v346
c0 28.667 -7.66699 49.834 -23 63.501s-39.666 20.5 -72.999 20.5c-16.667 0 -34.334 -2.83301 -53.001 -8.5s-40.334 -15.167 -65.001 -28.5v-393z" />
    <glyph glyph-name="n" unicode="n" horiz-adv-x="554" 
d="M148 0h-81.999v494h71l4 -48h3c26.667 20 54.5 34.667 83.5 44s61.5 14 97.5 14c54.667 0 96.167 -13.667 124.5 -41s42.5 -67.666 42.5 -120.999v-342h-82v332c0 33.333 -9.33301 58 -28 74s-47.334 24 -86.001 24c-24 0 -48.5 -3.83301 -73.5 -11.5
s-49.833 -18.834 -74.5 -33.501v-385z" />
    <glyph glyph-name="o" unicode="o" horiz-adv-x="543" 
d="M500 248c0 -93.333 -17.168 -159.333 -51.501 -198s-93.166 -58 -176.499 -58c-86 0 -145.667 18.667 -179 56s-50 104 -50 200c0 94 17.167 160.167 51.5 198.5s93.5 57.5 177.5 57.5c86 0 145.5 -18.667 178.5 -56s49.5 -104 49.5 -200zM124.999 249
c0 -73.333 9.66797 -121.833 29.001 -145.5s58.666 -35.5 117.999 -35.5c57.333 0 96 12.5 116 37.5s30 72.833 30 143.5c0 73.333 -9.5 121.833 -28.5 145.5s-58.167 35.5 -117.5 35.5c-58 0 -97 -12.333 -117 -37s-30 -72.667 -30 -144z" />
    <glyph glyph-name="p" unicode="p" horiz-adv-x="541" 
d="M148 -152l-82.0029 0.000976562v646h71l5 -44h3c20.667 17.333 45.334 30.666 74.001 39.999s59.334 14 92.001 14c67.333 0 115.5 -20 144.5 -60s43.5 -105.333 43.5 -196s-17.667 -156 -53 -196s-94.333 -60 -177 -60c-24.667 0 -47.167 1.66699 -67.5 5
s-38.166 8.33301 -53.499 15v-164zM416.997 248.001c0 68 -9.50098 115.332 -28.501 141.999s-54.5 40 -106.5 40c-24.667 0 -48.167 -3.5 -70.5 -10.5s-43.5 -17.167 -63.5 -30.5v-301c16.667 -6.66699 33.834 -11.667 51.501 -15s37.5 -5 59.5 -5
c62 0 103.833 12.833 125.5 38.5s32.5 72.834 32.5 141.501z" />
    <glyph glyph-name="q" unicode="q" horiz-adv-x="541" 
d="M476 485v-637h-82v188c-23.333 -14 -49.5 -24.833 -78.5 -32.5s-58.5 -11.5 -88.5 -11.5c-66.667 0 -114.167 19.833 -142.5 59.5s-42.5 105.167 -42.5 196.5c0 92 18.333 157.667 55 197s99 59 187 59c33.333 0 68 -1.83301 104 -5.5s65.333 -8.16699 88 -13.5zM284 430
c-64.667 0 -107.499 -12.5 -128.499 -37.5s-31.5 -73.167 -31.5 -144.5c0 -68 9 -115 27 -141s52.667 -39 104 -39c23.333 0 47.166 3 71.499 9s46.833 14.333 67.5 25v317c-16 3.33301 -33.5 6 -52.5 8s-38.167 3 -57.5 3z" />
    <glyph glyph-name="r" unicode="r" horiz-adv-x="353" 
d="M148 0l-82 0.000976562v494h75l4 -42h4c26 15.333 52 26.833 78 34.5s51.667 11.5 77 11.5h21.5c3.66699 0 6.5 -0.333008 8.5 -1v-79c-4.66699 1.33301 -10.5 2.16602 -17.5 2.49902s-17.833 0.5 -32.5 0.5c-24 0 -47.5 -2.83301 -70.5 -8.5
s-44.833 -14.167 -65.5 -25.5v-387z" />
    <glyph glyph-name="s" unicode="s" horiz-adv-x="439" 
d="M236 430c-42.667 0 -72.168 -5.00098 -88.501 -15.001s-24.5 -30.333 -24.5 -61c0 -16 3.83301 -28.167 11.5 -36.5s19.834 -13.833 36.501 -16.5l127 -19c40 -6 68 -18.5 84 -37.5s24 -48.833 24 -89.5c0 -57.333 -13.667 -98.833 -41 -124.5
s-72.666 -38.5 -135.999 -38.5c-38 0 -73.333 2 -106 6s-59.667 9.33301 -81 16v77c21.333 -6.66699 47.5 -12.167 78.5 -16.5s62.833 -6.5 95.5 -6.5c41.333 0 69.666 6 84.999 18s23 33.333 23 64c0 19.333 -4.33301 33.5 -13 42.5s-24.334 15.167 -47.001 18.5l-127 19
c-32 4.66699 -55.833 17 -71.5 37s-23.834 49 -24.501 87c0 52 15.5 90 46.5 114s78.833 36 143.5 36c26.667 0 50.834 -0.666992 72.501 -2s44.5 -4 68.5 -8v-73c-17.333 2.66699 -37.666 4.83398 -60.999 6.50098s-48.333 2.5 -75 2.5z" />
    <glyph glyph-name="t" unicode="t" horiz-adv-x="371" 
d="M356 77v-68.999c-10.667 -4.66699 -25.167 -8.5 -43.5 -11.5s-35.833 -4.5 -52.5 -4.5c-60 0 -102.833 13.333 -128.5 40s-38.5 72.667 -38.5 138v254h-74v70h75l13 120h68v-120h176v-70h-176v-251c0 -40.667 7.5 -68.334 22.5 -83.001s41.5 -22 79.5 -22
c12 0 25.833 1 41.5 3s28.167 4 37.5 6z" />
    <glyph glyph-name="u" unicode="u" horiz-adv-x="538" 
d="M226 -8c-54.667 0 -95.666 13.667 -122.999 41s-41 68.333 -41 123v338h82v-328c0 -34 8.66699 -58.667 26 -74s44.666 -23 81.999 -23c22.667 0 45.5 2.83301 68.5 8.5s46.167 14.5 69.5 26.5v390h82v-494h-75l-4 41h-2c-34.667 -18 -64.667 -30.667 -90 -38
s-50.333 -11 -75 -11z" />
    <glyph glyph-name="v" unicode="v" horiz-adv-x="494" 
d="M394 494h90l-190 -494h-94l-190 494h91l147 -419z" />
    <glyph glyph-name="w" unicode="w" horiz-adv-x="709" 
d="M603 494h89l-137 -494h-96l-108 385l-101 -385h-96l-137 494h90l96 -417l107 417h82l114 -417z" />
    <glyph glyph-name="x" unicode="x" horiz-adv-x="446" 
d="M271 257l165 -257h-91l-125 200l-124 -200h-86l165 256l-158 238h97l111 -183l117 183h87z" />
    <glyph glyph-name="y" unicode="y" horiz-adv-x="495" 
d="M111 -88c25.333 0 44.499 5.5 57.499 16.5s26.833 37.167 41.5 78.5l-202 487h92l152 -405l144 405h88l-202 -527c-18 -48 -39 -81.5 -63 -100.5s-55 -28.5 -93 -28.5c-11.333 0 -23.166 0.666992 -35.499 2s-24.5 3 -36.5 5v72c7.33301 -2 15.5 -3.33301 24.5 -4
s19.833 -1 32.5 -1z" />
    <glyph glyph-name="z" unicode="z" horiz-adv-x="426" 
d="M400 72v-72h-371v72l261 352h-243v70h336v-70l-261 -352h278z" />
    <glyph glyph-name="braceleft" unicode="{" horiz-adv-x="293" 
d="M94 318l0.000976562 -4.00195c25.333 -4.66699 45.666 -21 60.999 -49s23 -64 23 -108v-107c0 -29.333 7.16699 -50.166 21.5 -62.499s37.833 -18.5 70.5 -18.5v-61c-52 0 -91.667 12 -119 36s-41 59 -41 105v108c0 40 -8.16699 71.667 -24.5 95s-36.5 35 -60.5 35h-13
v56h13c24 0 44.167 11.667 60.5 35s24.5 55 24.5 95v104c0 46 13.667 81 41 105s67 36 119 36v-61c-32.667 0 -56.167 -6.16699 -70.5 -18.5s-21.5 -33.166 -21.5 -62.499v-103c0 -44 -7.5 -79.667 -22.5 -107s-35.5 -43.333 -61.5 -48z" />
    <glyph glyph-name="bar" unicode="|" horiz-adv-x="207" 
d="M137 707v-787h-67v787h67z" />
    <glyph glyph-name="braceright" unicode="}" horiz-adv-x="293" 
d="M199 314l0.000976562 4.00195c-26 4.66699 -46.5 20.667 -61.5 48s-22.5 63 -22.5 107v103c0 29.333 -7.16699 50.166 -21.5 62.499s-37.833 18.5 -70.5 18.5v61c52 0 91.667 -12 119 -36s41 -59 41 -105v-104c0 -40 8.16699 -71.667 24.5 -95s36.5 -35 60.5 -35h13v-56
h-13c-24 0 -44.167 -11.667 -60.5 -35s-24.5 -55 -24.5 -95v-108c0 -46 -13.667 -81 -41 -105s-67 -36 -119 -36v61c32.667 0 56.167 6.16699 70.5 18.5s21.5 33.166 21.5 62.499v107c0 44 7.66699 80 23 108s35.666 44.333 60.999 49z" />
    <glyph glyph-name="asciitilde" unicode="~" horiz-adv-x="634" 
d="M518 454l75.001 0.00195312c0 -72 -12.5 -128.333 -37.5 -169s-60.833 -61 -107.5 -61c-22.667 0 -45 6 -67 18s-51.333 36.667 -88 74c-28 27.333 -48.667 45.166 -62 53.499s-26 12.5 -38 12.5c-25.333 0 -44.5 -12.833 -57.5 -38.5s-19.5 -62.834 -19.5 -111.501h-75
c0 71.333 13 127.5 39 168.5s63.333 61.5 112 61.5c22.667 0 45.167 -6 67.5 -18s51.833 -36.333 88.5 -73c27.333 -28 47.666 -46 60.999 -54s26 -12 38 -12c22.667 0 40.167 13.333 52.5 40s18.5 63 18.5 109z" />
    <glyph glyph-name="uni00A0" unicode="&#xa0;" horiz-adv-x="171" 
 />
    <glyph glyph-name="exclamdown" unicode="&#xa1;" horiz-adv-x="213" 
d="M64 494h86v-81h-86v81zM142 322l11 -455h-93l11 455h71z" />
    <glyph glyph-name="cent" unicode="&#xa2;" horiz-adv-x="443" 
d="M294 70l0.00390625 -92h-71v88c-66.667 1.33301 -113.5 21.166 -140.5 59.499s-40.5 103.833 -40.5 196.5c0 82 14 142.667 42 182s74.333 63 139 71v88h71v-85c19.333 -0.666992 36.666 -1.5 51.999 -2.5s32.333 -2.83301 51 -5.5v-73
c-24.667 3.33301 -44.834 5.33301 -60.501 6s-33.167 1 -52.5 1c-62.667 0 -105 -12.833 -127 -38.5s-33 -73.5 -33 -143.5s8.66699 -117.5 26 -142.5s50.666 -37.5 99.999 -37.5c27.333 0 55.666 2.83301 84.999 8.5s54.333 12.834 75 21.501v-69
c-10.667 -6.66699 -26.5 -13 -47.5 -19s-43.833 -10.667 -68.5 -14z" />
    <glyph glyph-name="sterling" unicode="&#xa3;" horiz-adv-x="493" 
d="M35 266l-0.000976562 72h78v116c0 60.667 15.833 106.334 47.5 137.001s78.834 46 141.501 46c22 0 43.167 -1.16699 63.5 -3.5s46.833 -7.16602 79.5 -14.499v-74c-22 5.33301 -43.833 9.16602 -65.5 11.499s-43.5 3.5 -65.5 3.5c-40.667 0 -70.167 -9.33301 -88.5 -28
s-27.5 -48.334 -27.5 -89.001v-105h213v-72h-213v-40c0 -36.667 -6.16699 -66.5 -18.5 -89.5s-31.5 -40.833 -57.5 -53.5v-3h339v-80h-426v81c26 14 45.5 33.333 58.5 58s19.5 53.667 19.5 87v40h-78z" />
    <glyph glyph-name="currency" unicode="&#xa4;" horiz-adv-x="639" 
d="M95 39l-52 52.002l66 66c-16.667 22 -29.334 46.667 -38.001 74s-13 55.666 -13 84.999s4.33301 57.333 13 84s21.334 51.334 38.001 74.001l-66 65l52 53l66 -66c21.333 16 45.333 28.167 72 36.5s54.667 12.5 84 12.5c30 0 58.333 -4.16699 85 -12.5
s51.334 -20.833 74.001 -37.5l66 67l52 -52l-66 -65c16.667 -22.667 29.5 -47.5 38.5 -74.5s13.5 -55.5 13.5 -85.5c0 -28.667 -4.33301 -56.334 -13 -83.001s-21.334 -51.334 -38.001 -74.001l66 -66l-52 -52l-66 66c-22 -16 -46.5 -28.333 -73.5 -37
s-55.167 -13 -84.5 -13s-57.333 4.16699 -84 12.5s-51 20.833 -73 37.5zM318 503.002c-53.333 0 -97.333 -17.501 -132 -52.501s-52 -79.5 -52 -133.5c0 -54.667 17.5 -99.5 52.5 -134.5s79.167 -52.167 132.5 -51.5c54 -0.666992 98.333 16.5 133 51.5s52 79.833 52 134.5
c0 54 -17.5 98.333 -52.5 133s-79.5 52.334 -133.5 53.001z" />
    <glyph glyph-name="yen" unicode="&#xa5;" horiz-adv-x="545" 
d="M61 107v63h171v60h-171v63h144l-187 334h97l160 -308l160 308h89l-181 -334h145v-63h-172v-60h172v-63h-172v-107h-84v107h-171z" />
    <glyph glyph-name="brokenbar" unicode="&#xa6;" horiz-adv-x="207" 
d="M137 707v-327h-67v327h67zM137 247v-327h-67v327h67z" />
    <glyph glyph-name="section" unicode="&#xa7;" horiz-adv-x="467" 
d="M246 574c-36.667 0 -63.3311 -4.16602 -79.998 -12.499s-25 -21.833 -25 -40.5c0 -12 4.33301 -22.167 13 -30.5s24.667 -16.833 48 -25.5l158 -61c28 -10.667 48.167 -24 60.5 -40s18.5 -36.333 18.5 -61c0 -23.333 -5.83301 -45.666 -17.5 -66.999
s-27.834 -39.333 -48.501 -54c10.667 -9.33301 18.334 -20 23.001 -32s7 -26.333 7 -43c0 -38 -14.333 -67 -43 -87s-70.667 -30 -126 -30c-30.667 0 -59 1.66699 -85 5s-50.667 8.33301 -74 15v64c23.333 -7.33301 47 -12.833 71 -16.5s48.333 -5.16699 73 -4.5
c38 0 65.333 4.16699 82 12.5s25 21.833 25 40.5c0 12 -4.33301 22.167 -13 30.5s-25 16.833 -49 25.5l-149 56c-30.667 11.333 -52.834 25.333 -66.501 42s-20.5 38 -20.5 64c0 23.333 5.66699 45.666 17 66.999s27.666 39.666 48.999 54.999
c-10 8.66699 -17.5 19 -22.5 31s-7.5 26.333 -7.5 43c0 37.333 14.5 66.166 43.5 86.499s70.5 30.5 124.5 30.5c32 0 61 -1.5 87 -4.5s50 -7.83301 72 -14.5v-64c-22 6.66699 -45.333 11.834 -70 15.501s-49.667 5.16699 -75 4.5zM151.003 276.001l167 -64.002l3 -1
c14.667 10.667 26.167 22.834 34.5 36.501s12.5 27.167 12.5 40.5c0 16.667 -3.5 29.5 -10.5 38.5s-21.167 17.5 -42.5 25.5l-167 64l-0.5 0.5c-0.333008 0.333008 -0.833008 0.5 -1.5 0.5c-14.667 -12 -26.167 -24.667 -34.5 -38s-12.5 -26.666 -12.5 -39.999
c0 -16.667 3.5 -29.5 10.5 -38.5s20.833 -17.167 41.5 -24.5z" />
    <glyph glyph-name="dieresis" unicode="&#xa8;" horiz-adv-x="360" 
d="M310 642v-78h-82v78h82zM133 642v-78h-83v78h83z" />
    <glyph glyph-name="copyright" unicode="&#xa9;" horiz-adv-x="702" 
d="M660 314c0 -105.333 -26.167 -185.666 -78.5 -240.999s-128.833 -83 -229.5 -83c-102.667 0 -180 27.167 -232 81.5s-78 135.166 -78 242.499c0 106 26.333 186.333 79 241s129.667 82 231 82c102 0 178.833 -27 230.5 -81s77.5 -134.667 77.5 -242zM600 314
c0 89.333 -20.333 156 -61 200s-102.667 66 -186 66c-84 0 -146.667 -22 -188 -66s-62 -110.667 -62 -200c0 -88.667 20.5 -154.667 61.5 -198s103.833 -65 188.5 -65c83.333 0 145.333 21.667 186 65s61 109.333 61 198zM372 201c14.667 0 30.1699 1.66797 46.5029 5.00098
s32.166 8.33301 47.499 15v-63c-14 -6.66699 -30.167 -11.834 -48.5 -15.501s-37.5 -5.5 -57.5 -5.5c-62 0 -106.333 14 -133 42s-40 73.667 -40 137c0 60.667 14.833 105.5 44.5 134.5s75.5 43.5 137.5 43.5c14.667 0 28.667 -0.666992 42 -2s28.666 -4 45.999 -8v-61
c-14.667 2.66699 -28.334 4.66699 -41.001 6s-28 2 -46 2c-38 0 -65 -9 -81 -27s-24 -47.333 -24 -88c0 -42 8 -71.667 24 -89s43.667 -26 83 -26z" />
    <glyph glyph-name="ordfeminine" unicode="&#xaa;" horiz-adv-x="348" 
d="M289 355h-52.0029l-2 26h-2c-15.333 -10 -31.166 -17.667 -47.499 -23s-32.166 -8 -47.499 -8c-29.333 0 -51.333 7.16699 -66 21.5s-22 35.833 -22 64.5c0 29.333 8.5 50.5 25.5 63.5s45.5 19.5 85.5 19.5c12.667 0 25.334 -0.5 38.001 -1.5s24 -2.5 34 -4.5v22
c0 18 -5.33301 31 -16 39s-27.667 12 -51 12c-19.333 0 -35.833 -0.666992 -49.5 -2s-26.5 -3.33301 -38.5 -6v49c15.333 3.33301 31 5.83301 47 7.5s35 2.5 57 2.5c36 0 62.833 -7.83301 80.5 -23.5s26.5 -39.167 26.5 -70.5v-188zM166.997 478
c-23.333 0 -39.667 -3 -49 -9s-14 -16 -14 -30s4 -24.333 12 -31s20.667 -10 38 -10c14 0 28.333 2.16699 43 6.5s26.667 9.5 36 15.5v53c-8.66699 2 -18.5 3.33301 -29.5 4s-23.167 1 -36.5 1zM291.996 255h-241v50h241v-50z" />
    <glyph glyph-name="guillemotleft" unicode="&#xab;" horiz-adv-x="482" 
d="M249 64h-78l-149 217l149 213h78l-148 -212zM455 64h-78l-149 217l149 213h78l-147 -212z" />
    <glyph glyph-name="logicalnot" unicode="&#xac;" 
d="M463 392v-261h-80v184h-346v77h426z" />
    <glyph glyph-name="uni00AD" unicode="&#xad;" horiz-adv-x="429" 
d="M374 350v-64h-319v64h319z" />
    <glyph glyph-name="registered" unicode="&#xae;" horiz-adv-x="435" 
d="M397 454c0 -60.667 -15.167 -106.501 -45.5 -137.501s-74.833 -46.5 -133.5 -46.5c-60 0 -105 15.333 -135 46s-45 76.667 -45 138c0 60 15.333 105.5 46 136.5s75.667 46.5 135 46.5s103.833 -15.167 133.5 -45.5s44.5 -76.166 44.5 -137.499zM351 453.999
c0 48 -10.833 83.5 -32.5 106.5s-54.834 34.5 -99.501 34.5c-45.333 0 -78.833 -11.5 -100.5 -34.5s-32.5 -58.5 -32.5 -106.5c0 -47.333 10.833 -82.333 32.5 -105s55.167 -34 100.5 -34c44.667 0 77.834 11.333 99.501 34s32.5 57.667 32.5 105zM188 421.999
l0.000976562 -68h-43v202h72c31.333 0 53.166 -5.5 65.499 -16.5s18.5 -27.833 18.5 -50.5c0 -16.667 -3.66699 -30.167 -11 -40.5s-18.333 -17.5 -33 -21.5l49 -73h-54l-41 68h-23zM257.001 488.999c0 9.33301 -3 16.333 -9 21s-16.333 7 -31 7h-29v-59h29
c14.667 0 25 2.5 31 7.5s9 12.833 9 23.5z" />
    <glyph glyph-name="macron" unicode="&#xaf;" horiz-adv-x="345" 
d="M295 633v-64h-245v64h245z" />
    <glyph glyph-name="degree" unicode="&#xb0;" horiz-adv-x="338" 
d="M303 500c0 -40.667 -12.167 -73.167 -36.5 -97.5s-56.833 -36.5 -97.5 -36.5s-73.167 12.167 -97.5 36.5s-36.5 56.833 -36.5 97.5c0 40 12.333 72.333 37 97s57 37 97 37s72.333 -12.333 97 -37s37 -57 37 -97zM90 500c0 -24.667 7.16699 -44.334 21.5 -59.001
s33.5 -22 57.5 -22s43.167 7.33301 57.5 22s21.5 34.334 21.5 59.001s-7.16699 44.334 -21.5 59.001s-33.5 22 -57.5 22s-43.167 -7.33301 -57.5 -22s-21.5 -34.334 -21.5 -59.001z" />
    <glyph glyph-name="plusminus" unicode="&#xb1;" 
d="M463 450v-78h-173v-153h-80v153h-173v78h173v151h80v-151h173zM463 139v-78h-426v78h426z" />
    <glyph glyph-name="uni00B2" unicode="&#xb2;" horiz-adv-x="295" 
d="M264 330l-0.000976562 -60.0029h-239v60l137 137c12 12.667 20.667 24.334 26 35.001s8 21.334 8 32.001c0 13.333 -4.33301 23.5 -13 30.5s-21 10.5 -37 10.5c-15.333 0 -34.166 -1.33301 -56.499 -4s-37.5 -5 -45.5 -7v56c15.333 4 32.833 7.16699 52.5 9.5
s39.5 3.5 59.5 3.5c33.333 0 59 -8.16699 77 -24.5s27 -39.166 27 -68.499c0 -18.667 -3.5 -35.5 -10.5 -50.5s-18.833 -30.833 -35.5 -47.5l-112 -112h162z" />
    <glyph glyph-name="uni00B3" unicode="&#xb3;" horiz-adv-x="293" 
d="M246 542c0 -22 -5.50098 -40.166 -16.501 -54.499s-26.167 -23.833 -45.5 -28.5v-2c25.333 -1.33301 44.666 -9.33301 57.999 -24s20 -35.334 20 -62.001c0 -34 -11 -60.167 -33 -78.5s-53.667 -27.5 -95 -27.5c-22.667 0 -43 1 -61 3s-33 5 -45 9v53
c13.333 -2.66699 27.333 -4.66699 42 -6s32.334 -2 53.001 -2c28 0 48.333 4.33301 61 13s19 22.334 19 41.001c0 17.333 -5.5 30.166 -16.5 38.499s-28.5 12.5 -52.5 12.5h-61v52h47c21.333 0 38 4.5 50 13.5s18 21.833 18 38.5s-4.83301 28.667 -14.5 36
s-24.834 11 -45.501 11c-13.333 0 -29.5 -1.16699 -48.5 -3.5s-32.5 -4.5 -40.5 -6.5v51c12.667 4 28.334 7.33301 47.001 10s38.334 4 59.001 4c32.667 0 57.667 -7.83301 75 -23.5s26 -38.167 26 -67.5z" />
    <glyph glyph-name="acute" unicode="&#xb4;" horiz-adv-x="307" 
d="M153 686h104l-131 -122h-76z" />
    <glyph glyph-name="mu" unicode="&#xb5;" horiz-adv-x="551" 
d="M235 -8c-24 0 -43.3311 3.33105 -57.998 9.99805s-24.334 16.667 -29.001 30c0 -46.667 2.16699 -83.5 6.5 -110.5s11.5 -51.5 21.5 -73.5h-84c-9.33301 23.333 -16 49.333 -20 78s-6 73.334 -6 134.001v434h82v-328c0 -34.667 8 -59.5 24 -74.5s43 -22.5 81 -22.5
c23.333 0 47.666 3.16699 72.999 9.5s50 15.5 74 27.5v388h82v-494h-75l-4 43c-30.667 -17.333 -59.667 -30.166 -87 -38.499s-54.333 -12.5 -81 -12.5z" />
    <glyph glyph-name="paragraph" unicode="&#xb6;" horiz-adv-x="482" 
d="M414 627l0.000976562 -617.999c0 -54 -13.5 -96 -40.5 -126s-65.167 -45 -114.5 -45c-15.333 0 -28.5 0.333008 -39.5 1s-22.5 2 -34.5 4v73c16.667 -2 27.667 -3.16699 33 -3.5s10.333 -0.5 15 -0.5c36 0 61.5 7.33301 76.5 22s22.5 39.667 22.5 75v131
c-19.333 -4 -38.5 -7.16699 -57.5 -9.5s-37.833 -3.5 -56.5 -3.5c-70 0 -119.167 19 -147.5 57s-42.5 104.333 -42.5 199c0 92.667 18.333 158.5 55 197.5s99 58.5 187 58.5c24 0 47.167 -0.833008 69.5 -2.5s47.166 -4.83398 74.499 -9.50098zM270.001 560.001
c-62.667 0 -105 -12.332 -127 -36.999s-33 -71.334 -33 -140.001c0 -70 8.66699 -117.333 26 -142s50.666 -37 99.999 -37c14.667 0 30.334 0.833008 47.001 2.5s33 4.16699 49 7.5v344c-8.66699 0.666992 -18.5 1.16699 -29.5 1.5s-21.833 0.5 -32.5 0.5z" />
    <glyph glyph-name="periodcentered" unicode="&#xb7;" horiz-adv-x="194" 
d="M138 276h-82v83h82v-83z" />
    <glyph glyph-name="cedilla" unicode="&#xb8;" horiz-adv-x="325" 
d="M278 -115c0 -27.333 -8.83301 -47.4961 -26.5 -60.4961s-46.167 -19.5 -85.5 -19.5c-22 0 -43.333 1.16699 -64 3.5s-34.667 5.16602 -42 8.49902v51c7.33301 -2.66699 20.166 -5.16699 38.499 -7.5s36.5 -3.5 54.5 -3.5c19.333 0 32.833 2.16699 40.5 6.5
s11.5 12.166 11.5 23.499c0 9.33301 -4.66699 16.166 -14 20.499s-24.666 6.5 -45.999 6.5c-8 0 -18 -0.333008 -30 -1s-18.333 -1 -19 -1l20 103l64 -6l-12 -56c36 1.33301 63.333 -3.83398 82 -15.501s28 -29.167 28 -52.5z" />
    <glyph glyph-name="uni00B9" unicode="&#xb9;" horiz-adv-x="243" 
d="M191 270h-64v301l-110 -13v54l174 21v-363z" />
    <glyph glyph-name="ordmasculine" unicode="&#xba;" horiz-adv-x="374" 
d="M324 493c0 -48.667 -11 -84.666 -33 -107.999s-56.333 -35 -103 -35c-48.667 0 -83.667 11.167 -105 33.5s-32 58.833 -32 109.5c0 50 11 86.5 33 109.5s56.667 34.5 104 34.5c48 0 82.667 -11.333 104 -34s32 -59.334 32 -110.001zM108 494.001
c0 -34.667 5.83301 -58.667 17.5 -72s32.5 -20 62.5 -20c28.667 0 49 7 61 21s18 37.667 18 71c0 34.667 -5.83301 58.667 -17.5 72s-32.167 20 -61.5 20s-50 -7 -62 -21s-18 -37.667 -18 -71zM317 255.001h-261v50h261v-50z" />
    <glyph glyph-name="guillemotright" unicode="&#xbb;" horiz-adv-x="482" 
d="M460 281l-149 -217h-78l148 218l-148 212h78zM254 281l-149 -217h-78l147 218l-147 212h78z" />
    <glyph glyph-name="onequarter" unicode="&#xbc;" horiz-adv-x="721" 
d="M193 270h-64v301l-110 -13v54l174 21v-363zM505 627l-300 -627h-61l300 627h61zM699 145v-56h-49v-89h-63v89h-171v56l46 212h60l-43 -212h110v150h61v-150h49z" />
    <glyph glyph-name="onehalf" unicode="&#xbd;" horiz-adv-x="715" 
d="M193 270h-64v301l-110 -13v54l174 21v-363zM505 627l-300 -627h-61l300 627h61zM681 60l-0.000976562 -60.0029h-239v60l137 137c12 12.667 20.667 24.334 26 35.001s8 21.334 8 32.001c0 13.333 -4.33301 23.5 -13 30.5s-21 10.5 -37 10.5
c-15.333 0 -34.166 -1.33301 -56.499 -4s-37.5 -5 -45.5 -7v56c15.333 4 32.833 7.16699 52.5 9.5s39.5 3.5 59.5 3.5c33.333 0 59 -8.16699 77 -24.5s27 -39.166 27 -68.499c0 -18.667 -3.5 -35.5 -10.5 -50.5s-18.833 -30.833 -35.5 -47.5l-112 -112h162z" />
    <glyph glyph-name="threequarters" unicode="&#xbe;" horiz-adv-x="755" 
d="M248 542c0 -22 -5.50098 -40.166 -16.501 -54.499s-26.167 -23.833 -45.5 -28.5v-2c25.333 -1.33301 44.666 -9.33301 57.999 -24s20 -35.334 20 -62.001c0 -34 -11 -60.167 -33 -78.5s-53.667 -27.5 -95 -27.5c-22.667 0 -43 1 -61 3s-33 5 -45 9v53
c13.333 -2.66699 27.333 -4.66699 42 -6s32.334 -2 53.001 -2c28 0 48.333 4.33301 61 13s19 22.334 19 41.001c0 17.333 -5.5 30.166 -16.5 38.499s-28.5 12.5 -52.5 12.5h-61v52h47c21.333 0 38 4.5 50 13.5s18 21.833 18 38.5s-4.83301 28.667 -14.5 36
s-24.834 11 -45.501 11c-13.333 0 -29.5 -1.16699 -48.5 -3.5s-32.5 -4.5 -40.5 -6.5v51c12.667 4 28.334 7.33301 47.001 10s38.334 4 59.001 4c32.667 0 57.667 -7.83301 75 -23.5s26 -38.167 26 -67.5zM540.999 627.001l-300 -627h-61l300 627h61zM734.999 145.001v-56
h-49v-89h-63v89h-171v56l46 212h60l-43 -212h110v150h61v-150h49z" />
    <glyph glyph-name="questiondown" unicode="&#xbf;" horiz-adv-x="376" 
d="M175 413v81h87v-81h-87zM193 -143c-54 0 -96.0039 11.668 -126.004 35.001s-45 56.666 -45 99.999c0 39.333 12.667 75.833 38 109.5s65.333 66.167 120 97.5v122h75v-157c-55.333 -28 -94.666 -54 -117.999 -78s-35 -49.333 -35 -76c0 -24.667 8.83301 -43.5 26.5 -56.5
s43.167 -19.5 76.5 -19.5c24.667 0 50.834 2.5 78.501 7.5s51.834 11.5 72.501 19.5v-76c-25.333 -9.33301 -51.166 -16.333 -77.499 -21s-54.833 -7 -85.5 -7z" />
    <glyph glyph-name="Agrave" unicode="&#xc0;" horiz-adv-x="598" 
d="M98 0h-90l248 627h88l245 -627h-90l-57 151h-287zM298 549c-6.66699 -23.333 -14.5 -48 -23.5 -74l-27.5 -78l-64 -171h231l-64 171l-31.5 89zM294 679l-129 112h104l101 -112h-76z" />
    <glyph glyph-name="Aacute" unicode="&#xc1;" horiz-adv-x="598" 
d="M98 0h-90l248 627h88l245 -627h-90l-57 151h-287zM298 549c-6.66699 -23.333 -14.5 -48 -23.5 -74l-27.5 -78l-64 -171h231l-64 171l-31.5 89zM329 791h104l-129 -112h-76z" />
    <glyph glyph-name="Acircumflex" unicode="&#xc2;" horiz-adv-x="598" 
d="M98 0h-90l248 627h88l245 -627h-90l-57 151h-287zM298 549c-6.66699 -23.333 -14.5 -48 -23.5 -74l-27.5 -78l-64 -171h231l-64 171l-31.5 89zM461 679h-74l-88 63l-86 -63h-75l119 112h85z" />
    <glyph glyph-name="Atilde" unicode="&#xc3;" horiz-adv-x="598" 
d="M98 0h-90l248 627h88l245 -627h-90l-57 151h-287zM298 549c-6.66699 -23.333 -14.5 -48 -23.5 -74l-27.5 -78l-64 -171h231l-64 171l-31.5 89zM390 780h55.9971c0 -32.667 -6.83301 -58.334 -20.5 -77.001s-33.5 -28 -59.5 -28c-12 0 -23.833 2.16699 -35.5 6.5
s-26.5 12.833 -44.5 25.5c-12.667 8.66699 -22 14.334 -28 17.001s-11.667 4 -17 4c-10.667 0 -19 -4.33301 -25 -13s-9 -20.667 -9 -36h-56c0 32.667 7 58.334 21 77.001s34 28 60 28c12 0 23.833 -2.16699 35.5 -6.5s26.834 -12.833 45.501 -25.5
c12.667 -8.66699 21.834 -14.334 27.501 -17.001s11.167 -4 16.5 -4c10.667 0 18.834 4.33301 24.501 13s8.5 20.667 8.5 36z" />
    <glyph glyph-name="Adieresis" unicode="&#xc4;" horiz-adv-x="598" 
d="M98 0h-90l248 627h88l245 -627h-90l-57 151h-287zM298 549c-6.66699 -23.333 -14.5 -48 -23.5 -74l-27.5 -78l-64 -171h231l-64 171l-31.5 89zM429 751v-72h-82v72h82zM252 751v-72h-83v72h83z" />
    <glyph glyph-name="Aring" unicode="&#xc5;" horiz-adv-x="598" 
d="M98 0h-90l248 627h88l245 -627h-90l-57 151h-287zM298 549c-6.66699 -23.333 -14.5 -48 -23.5 -74l-27.5 -78l-64 -171h231l-64 171l-31.5 89zM412 757c0 -25.333 -10.167 -45.666 -30.5 -60.999s-47.833 -23 -82.5 -23c-34 0 -61.167 7.66699 -81.5 23
s-30.5 35.666 -30.5 60.999c0 24.667 10.167 44.334 30.5 59.001s47.5 22 81.5 22c34.667 0 62.167 -7.33301 82.5 -22s30.5 -34.334 30.5 -59.001zM238 757c0 -12.667 5.5 -22.5 16.5 -29.5s25.833 -10.5 44.5 -10.5c19.333 0 34.666 3.66699 45.999 11s17 17 17 29
s-5.66699 21.333 -17 28s-26.666 10 -45.999 10s-34.333 -3.33301 -45 -10s-16 -16 -16 -28z" />
    <glyph glyph-name="AE" unicode="&#xc6;" horiz-adv-x="740" 
d="M98 0h-90l238 627h450v-77h-332l70 -192h225v-75h-198l74 -203h170v-80h-226l-56 151h-269zM288 543l-20 -68.501l-24 -77.5l-63 -172h215l-63 172c-7.33301 20.667 -15 43.834 -23 69.501s-15.333 51.167 -22 76.5z" />
    <glyph glyph-name="Ccedilla" unicode="&#xc7;" horiz-adv-x="518" 
d="M427 -115c0 -27.333 -8.83203 -47.4961 -26.499 -60.4961s-46.167 -19.5 -85.5 -19.5c-22 0 -43.333 1.16699 -64 3.5s-34.667 5.16602 -42 8.49902v51c7.33301 -2.66699 20.166 -5.16699 38.499 -7.5s36.5 -3.5 54.5 -3.5c19.333 0 32.833 2.16699 40.5 6.5
s11.5 12.166 11.5 23.499c0 9.33301 -4.66699 16.166 -14 20.499s-24.666 6.5 -45.999 6.5c-8 0 -18 -0.333008 -30 -1s-18.333 -1 -19 -1l16 82c-78 6.66699 -133.667 35 -167 85s-50 128.667 -50 236c0 111.333 22.833 192.833 68.5 244.5s118.5 77.5 218.5 77.5
c30.667 0 58 -0.666992 82 -2s45.667 -3.66602 65 -6.99902v-75c-23.333 2.66699 -46.833 4.5 -70.5 5.5s-49.167 1.5 -76.5 1.5c-74.667 0 -126.667 -18.5 -156 -55.5s-44 -100.167 -44 -189.5c0 -90.667 13.333 -153.834 40 -189.501s76.667 -53.5 150 -53.5
c27.333 0 56.166 3.16699 86.499 9.5s58.5 14.833 84.5 25.5v-76c-31.333 -12.667 -60 -22 -86 -28s-53 -9.66699 -81 -11l-8 -39c36 1.33301 63.333 -3.83398 82 -15.501s28 -29.167 28 -52.5z" />
    <glyph glyph-name="Egrave" unicode="&#xc8;" horiz-adv-x="523" 
d="M488 80v-80h-416v627h407v-77h-322v-192h285v-75h-285v-203h331zM280 679l-129 112h104l101 -112h-76z" />
    <glyph glyph-name="Eacute" unicode="&#xc9;" horiz-adv-x="523" 
d="M488 80v-80h-416v627h407v-77h-322v-192h285v-75h-285v-203h331zM315 791h104l-129 -112h-76z" />
    <glyph glyph-name="Ecircumflex" unicode="&#xca;" horiz-adv-x="523" 
d="M488 80v-80h-416v627h407v-77h-322v-192h285v-75h-285v-203h331zM447 679h-74l-88 63l-86 -63h-75l119 112h85z" />
    <glyph glyph-name="Edieresis" unicode="&#xcb;" horiz-adv-x="523" 
d="M488 80v-80h-416v627h407v-77h-322v-192h285v-75h-285v-203h331zM415 751v-72h-82v72h82zM238 751v-72h-83v72h83z" />
    <glyph glyph-name="Igrave" unicode="&#xcc;" horiz-adv-x="229" 
d="M157 627v-627h-85v627h85zM110 679l-129 112h104l101 -112h-76z" />
    <glyph glyph-name="Iacute" unicode="&#xcd;" horiz-adv-x="229" 
d="M157 627v-627h-85v627h85zM145 791h104l-129 -112h-76z" />
    <glyph glyph-name="Icircumflex" unicode="&#xce;" horiz-adv-x="229" 
d="M157 627v-627h-85v627h85zM277 679h-74l-88 63l-86 -63h-75l119 112h85z" />
    <glyph glyph-name="Idieresis" unicode="&#xcf;" horiz-adv-x="229" 
d="M157 627v-627h-85v627h85zM245 751v-72h-82v72h82zM68 751v-72h-83v72h83z" />
    <glyph glyph-name="Eth" unicode="&#xd0;" horiz-adv-x="624" 
d="M20 291l-0.000976562 60h70v276h182c64 0 114.833 -5.33301 152.5 -16s67.834 -27.667 90.501 -51s39.167 -54.833 49.5 -94.5s15.5 -90.167 15.5 -151.5c0 -108.667 -24.333 -188.167 -73 -238.5s-127 -75.5 -235 -75.5h-182v291h-70zM338.999 351
l-0.000976562 -59.9971h-164v-211h97c82.667 0 140.167 17.667 172.5 53s48.5 95.666 48.5 180.999c0 47.333 -3.33301 85.666 -10 114.999s-17.334 52.666 -32.001 69.999c-15.333 18 -36.666 31 -63.999 39s-65.666 12 -114.999 12h-97v-199h164z" />
    <glyph glyph-name="Ntilde" unicode="&#xd1;" horiz-adv-x="657" 
d="M585 627v-627h-86l-347 488v-488h-80v627h86l347 -495v495h80zM425 780h55.9971c0 -32.667 -6.83301 -58.334 -20.5 -77.001s-33.5 -28 -59.5 -28c-12 0 -23.833 2.16699 -35.5 6.5s-26.5 12.833 -44.5 25.5c-12.667 8.66699 -22 14.334 -28 17.001s-11.667 4 -17 4
c-10.667 0 -19 -4.33301 -25 -13s-9 -20.667 -9 -36h-56c0 32.667 7 58.334 21 77.001s34 28 60 28c12 0 23.833 -2.16699 35.5 -6.5s26.834 -12.833 45.501 -25.5c12.667 -8.66699 21.834 -14.334 27.501 -17.001s11.167 -4 16.5 -4c10.667 0 18.834 4.33301 24.501 13
s8.5 20.667 8.5 36z" />
    <glyph glyph-name="Ograve" unicode="&#xd2;" horiz-adv-x="649" 
d="M604 315c0 -114 -21.832 -196.333 -65.499 -247s-114.834 -76 -213.501 -76c-106 0 -179.167 23.5 -219.5 70.5s-60.5 131.167 -60.5 252.5c0 113.333 22 195.333 66 246s115.333 76 214 76c106 0 179 -23.5 219 -70.5s60 -130.833 60 -251.5zM161.001 134
c12.667 -22.667 31.332 -38.6689 55.999 -48.002s60.667 -14 108 -14c74 0 124.667 17.833 152 53.5s41 98.834 41 189.501c0 45.333 -2.33301 82.5 -7 111.5s-12 52.5 -22 70.5c-12.667 22.667 -31.167 38.834 -55.5 48.501s-60.5 14.5 -108.5 14.5
c-74.667 0 -125.667 -18 -153 -54s-41 -99.667 -41 -191c0 -45.333 2.33301 -82.5 7 -111.5s12.334 -52.167 23.001 -69.5zM319.999 688.998l-129 112h104l101 -112h-76z" />
    <glyph glyph-name="Oacute" unicode="&#xd3;" horiz-adv-x="649" 
d="M604 315c0 -114 -21.832 -196.333 -65.499 -247s-114.834 -76 -213.501 -76c-106 0 -179.167 23.5 -219.5 70.5s-60.5 131.167 -60.5 252.5c0 113.333 22 195.333 66 246s115.333 76 214 76c106 0 179 -23.5 219 -70.5s60 -130.833 60 -251.5zM161.001 134
c12.667 -22.667 31.332 -38.6689 55.999 -48.002s60.667 -14 108 -14c74 0 124.667 17.833 152 53.5s41 98.834 41 189.501c0 45.333 -2.33301 82.5 -7 111.5s-12 52.5 -22 70.5c-12.667 22.667 -31.167 38.834 -55.5 48.501s-60.5 14.5 -108.5 14.5
c-74.667 0 -125.667 -18 -153 -54s-41 -99.667 -41 -191c0 -45.333 2.33301 -82.5 7 -111.5s12.334 -52.167 23.001 -69.5zM354.999 800.998h104l-129 -112h-76z" />
    <glyph glyph-name="Ocircumflex" unicode="&#xd4;" horiz-adv-x="649" 
d="M604 315c0 -114 -21.832 -196.333 -65.499 -247s-114.834 -76 -213.501 -76c-106 0 -179.167 23.5 -219.5 70.5s-60.5 131.167 -60.5 252.5c0 113.333 22 195.333 66 246s115.333 76 214 76c106 0 179 -23.5 219 -70.5s60 -130.833 60 -251.5zM161.001 134
c12.667 -22.667 31.332 -38.6689 55.999 -48.002s60.667 -14 108 -14c74 0 124.667 17.833 152 53.5s41 98.834 41 189.501c0 45.333 -2.33301 82.5 -7 111.5s-12 52.5 -22 70.5c-12.667 22.667 -31.167 38.834 -55.5 48.501s-60.5 14.5 -108.5 14.5
c-74.667 0 -125.667 -18 -153 -54s-41 -99.667 -41 -191c0 -45.333 2.33301 -82.5 7 -111.5s12.334 -52.167 23.001 -69.5zM486.999 688.998h-74l-88 63l-86 -63h-75l119 112h85z" />
    <glyph glyph-name="Otilde" unicode="&#xd5;" horiz-adv-x="649" 
d="M604 315c0 -114 -21.832 -196.333 -65.499 -247s-114.834 -76 -213.501 -76c-106 0 -179.167 23.5 -219.5 70.5s-60.5 131.167 -60.5 252.5c0 113.333 22 195.333 66 246s115.333 76 214 76c106 0 179 -23.5 219 -70.5s60 -130.833 60 -251.5zM161.001 134
c12.667 -22.667 31.332 -38.6689 55.999 -48.002s60.667 -14 108 -14c74 0 124.667 17.833 152 53.5s41 98.834 41 189.501c0 45.333 -2.33301 82.5 -7 111.5s-12 52.5 -22 70.5c-12.667 22.667 -31.167 38.834 -55.5 48.501s-60.5 14.5 -108.5 14.5
c-74.667 0 -125.667 -18 -153 -54s-41 -99.667 -41 -191c0 -45.333 2.33301 -82.5 7 -111.5s12.334 -52.167 23.001 -69.5zM415.999 789.998h55.9971c0 -32.667 -6.83301 -58.334 -20.5 -77.001s-33.5 -28 -59.5 -28c-12 0 -23.833 2.16699 -35.5 6.5
s-26.5 12.833 -44.5 25.5c-12.667 8.66699 -22 14.334 -28 17.001s-11.667 4 -17 4c-10.667 0 -19 -4.33301 -25 -13s-9 -20.667 -9 -36h-56c0 32.667 7 58.334 21 77.001s34 28 60 28c12 0 23.833 -2.16699 35.5 -6.5s26.834 -12.833 45.501 -25.5
c12.667 -8.66699 21.834 -14.334 27.501 -17.001s11.167 -4 16.5 -4c10.667 0 18.834 4.33301 24.501 13s8.5 20.667 8.5 36z" />
    <glyph glyph-name="Odieresis" unicode="&#xd6;" horiz-adv-x="649" 
d="M604 315c0 -114 -21.832 -196.333 -65.499 -247s-114.834 -76 -213.501 -76c-106 0 -179.167 23.5 -219.5 70.5s-60.5 131.167 -60.5 252.5c0 113.333 22 195.333 66 246s115.333 76 214 76c106 0 179 -23.5 219 -70.5s60 -130.833 60 -251.5zM161.001 134
c12.667 -22.667 31.332 -38.6689 55.999 -48.002s60.667 -14 108 -14c74 0 124.667 17.833 152 53.5s41 98.834 41 189.501c0 45.333 -2.33301 82.5 -7 111.5s-12 52.5 -22 70.5c-12.667 22.667 -31.167 38.834 -55.5 48.501s-60.5 14.5 -108.5 14.5
c-74.667 0 -125.667 -18 -153 -54s-41 -99.667 -41 -191c0 -45.333 2.33301 -82.5 7 -111.5s12.334 -52.167 23.001 -69.5zM454.999 760.998v-72h-82v72h82zM277.999 760.998v-72h-83v72h83z" />
    <glyph glyph-name="multiply" unicode="&#xd7;" 
d="M43 474l56 56l152 -152l153 153l55 -55l-153 -153l154 -154l-56 -56l-154 154l-154 -154l-55 55l154 154z" />
    <glyph glyph-name="Oslash" unicode="&#xd8;" horiz-adv-x="649" 
d="M100 -55l-48.9971 31.999l56 83c-21.333 24.667 -37 57.334 -47 98.001s-15 93 -15 157c0 113.333 22 195.333 66 246s115.333 76 214 76c34 0 64 -2.16699 90 -6.5s49 -10.833 69 -19.5l57 83l49 -31l-58 -84c25.333 -24 43.666 -57 54.999 -99s17 -97 17 -165
c0 -114 -21.833 -196.333 -65.5 -247s-114.834 -76 -213.501 -76c-38.667 0 -71.834 2.66699 -99.501 8s-51.5 13.333 -71.5 24zM325.003 559.999c-74.667 0 -125.667 -18 -153 -54s-41 -99.667 -41 -191c0 -44 2.16699 -80.333 6.5 -109s11.5 -52 21.5 -70l279 408
c-13.333 5.33301 -29 9.33301 -47 12s-40 4 -66 4zM325.003 71.999c74 0 124.667 17.833 152 53.5s41 98.834 41 189.501c0 49.333 -2.83301 89.166 -8.5 119.499s-14.5 54.5 -26.5 72.5l-282 -413c13.333 -8 29.833 -13.667 49.5 -17s44.5 -5 74.5 -5z" />
    <glyph glyph-name="Ugrave" unicode="&#xd9;" horiz-adv-x="633" 
d="M482 250l0.000976562 377h85v-377c0 -88 -20.5 -153 -61.5 -195s-104.5 -63 -190.5 -63c-86.667 0 -149.834 20.5 -189.501 61.5s-59.5 106.5 -59.5 196.5v377h85v-377c0 -66 12.167 -112.167 36.5 -138.5s66.833 -39.5 127.5 -39.5c61.333 0 104.5 13.167 129.5 39.5
s37.5 72.5 37.5 138.5zM309.001 679l-129 112h104l101 -112h-76z" />
    <glyph glyph-name="Uacute" unicode="&#xda;" horiz-adv-x="633" 
d="M482 250l0.000976562 377h85v-377c0 -88 -20.5 -153 -61.5 -195s-104.5 -63 -190.5 -63c-86.667 0 -149.834 20.5 -189.501 61.5s-59.5 106.5 -59.5 196.5v377h85v-377c0 -66 12.167 -112.167 36.5 -138.5s66.833 -39.5 127.5 -39.5c61.333 0 104.5 13.167 129.5 39.5
s37.5 72.5 37.5 138.5zM344.001 791h104l-129 -112h-76z" />
    <glyph glyph-name="Ucircumflex" unicode="&#xdb;" horiz-adv-x="633" 
d="M482 250l0.000976562 377h85v-377c0 -88 -20.5 -153 -61.5 -195s-104.5 -63 -190.5 -63c-86.667 0 -149.834 20.5 -189.501 61.5s-59.5 106.5 -59.5 196.5v377h85v-377c0 -66 12.167 -112.167 36.5 -138.5s66.833 -39.5 127.5 -39.5c61.333 0 104.5 13.167 129.5 39.5
s37.5 72.5 37.5 138.5zM476.001 679h-74l-88 63l-86 -63h-75l119 112h85z" />
    <glyph glyph-name="Udieresis" unicode="&#xdc;" horiz-adv-x="633" 
d="M482 250l0.000976562 377h85v-377c0 -88 -20.5 -153 -61.5 -195s-104.5 -63 -190.5 -63c-86.667 0 -149.834 20.5 -189.501 61.5s-59.5 106.5 -59.5 196.5v377h85v-377c0 -66 12.167 -112.167 36.5 -138.5s66.833 -39.5 127.5 -39.5c61.333 0 104.5 13.167 129.5 39.5
s37.5 72.5 37.5 138.5zM444.001 751v-72h-82v72h82zM267.001 751v-72h-83v72h83z" />
    <glyph glyph-name="Yacute" unicode="&#xdd;" horiz-adv-x="575" 
d="M476 627h88l-233 -389v-238h-85v238l-239 389h96l187 -313zM320 791h104l-129 -112h-76z" />
    <glyph glyph-name="Thorn" unicode="&#xde;" horiz-adv-x="572" 
d="M157 105v-105h-85v627h85v-99h128c88.667 0 152.167 -16 190.5 -48s57.5 -84.333 57.5 -157c0 -74 -20 -128.833 -60 -164.5s-101.667 -53.5 -185 -53.5h-131zM447 323c0 46 -12.3311 78.833 -36.998 98.5s-66.334 29.5 -125.001 29.5h-128v-271h128
c57.333 0 98.666 11.333 123.999 34s38 59 38 109z" />
    <glyph glyph-name="germandbls" unicode="&#xdf;" horiz-adv-x="585" 
d="M264 677c64 0 111.165 -11 141.498 -33s45.5 -56.667 45.5 -104c0 -12.667 -1.33301 -26.667 -4 -42s-6.66699 -31.666 -12 -48.999l-31 -111l55 -17c34 -10.667 57.167 -26.834 69.5 -48.501s18.5 -54.167 18.5 -97.5c0 -63.333 -13.667 -110 -41 -140s-71 -45 -131 -45
c-23.333 0 -45 1.16699 -65 3.5s-37.333 5.5 -52 9.5v75c16 -4 32.667 -7 50 -9s36 -3 56 -3c38.667 0 65.834 8.33301 81.501 25s23.5 44.667 23.5 84c0 25.333 -3.66699 44 -11 56s-21.333 21 -42 27l-101 29l41 166c6 21.333 9.66699 36.333 11 45s2 17 2 25
c0 27.333 -8.5 47.5 -25.5 60.5s-43.5 19.5 -79.5 19.5c-42 0 -71.833 -8.5 -89.5 -25.5s-26.5 -46.5 -26.5 -88.5v-489h-82v490c0 64.667 15.833 112 47.5 142s81.834 45 150.501 45z" />
    <glyph glyph-name="agrave" unicode="&#xe0;" horiz-adv-x="493" 
d="M178 -8c-50.667 0 -87.8359 12.166 -111.503 36.499s-35.5 62.833 -35.5 115.5c0 53.333 14.333 91.166 43 113.499s77.334 33.5 146.001 33.5c22.667 0 45 -1 67 -3s42.667 -5 62 -9v48c0 36.667 -9.33301 63 -28 79s-48.667 24 -90 24
c-30.667 0 -57.667 -1.16699 -81 -3.5s-46.666 -6.16602 -69.999 -11.499v71c26.667 6.66699 53.834 11.334 81.501 14.001s59.167 4 94.5 4c59.333 0 103.333 -13.833 132 -41.5s43 -70.5 43 -128.5v-334h-75l-4 46h-2c-20 -16 -45.833 -29 -77.5 -39
s-63.167 -15 -94.5 -15zM228.998 223.999c-45.333 0 -76.832 -5.5 -94.499 -16.5s-26.5 -30.5 -26.5 -58.5c0 -29.333 7.33301 -50.5 22 -63.5s38.667 -19.5 72 -19.5c26 0 52.667 4 80 12s49.666 18 66.999 30v106c-22 3.33301 -42.5 5.83301 -61.5 7.5
s-38.5 2.5 -58.5 2.5zM240.999 563.999l-131 122h104l103 -122h-76z" />
    <glyph glyph-name="aacute" unicode="&#xe1;" horiz-adv-x="493" 
d="M178 -8c-50.667 0 -87.8359 12.166 -111.503 36.499s-35.5 62.833 -35.5 115.5c0 53.333 14.333 91.166 43 113.499s77.334 33.5 146.001 33.5c22.667 0 45 -1 67 -3s42.667 -5 62 -9v48c0 36.667 -9.33301 63 -28 79s-48.667 24 -90 24
c-30.667 0 -57.667 -1.16699 -81 -3.5s-46.666 -6.16602 -69.999 -11.499v71c26.667 6.66699 53.834 11.334 81.501 14.001s59.167 4 94.5 4c59.333 0 103.333 -13.833 132 -41.5s43 -70.5 43 -128.5v-334h-75l-4 46h-2c-20 -16 -45.833 -29 -77.5 -39
s-63.167 -15 -94.5 -15zM228.998 223.999c-45.333 0 -76.832 -5.5 -94.499 -16.5s-26.5 -30.5 -26.5 -58.5c0 -29.333 7.33301 -50.5 22 -63.5s38.667 -19.5 72 -19.5c26 0 52.667 4 80 12s49.666 18 66.999 30v106c-22 3.33301 -42.5 5.83301 -61.5 7.5
s-38.5 2.5 -58.5 2.5zM277.999 685.999h104l-131 -122h-76z" />
    <glyph glyph-name="acircumflex" unicode="&#xe2;" horiz-adv-x="493" 
d="M178 -8c-50.667 0 -87.8359 12.166 -111.503 36.499s-35.5 62.833 -35.5 115.5c0 53.333 14.333 91.166 43 113.499s77.334 33.5 146.001 33.5c22.667 0 45 -1 67 -3s42.667 -5 62 -9v48c0 36.667 -9.33301 63 -28 79s-48.667 24 -90 24
c-30.667 0 -57.667 -1.16699 -81 -3.5s-46.666 -6.16602 -69.999 -11.499v71c26.667 6.66699 53.834 11.334 81.501 14.001s59.167 4 94.5 4c59.333 0 103.333 -13.833 132 -41.5s43 -70.5 43 -128.5v-334h-75l-4 46h-2c-20 -16 -45.833 -29 -77.5 -39
s-63.167 -15 -94.5 -15zM228.998 223.999c-45.333 0 -76.832 -5.5 -94.499 -16.5s-26.5 -30.5 -26.5 -58.5c0 -29.333 7.33301 -50.5 22 -63.5s38.667 -19.5 72 -19.5c26 0 52.667 4 80 12s49.666 18 66.999 30v106c-22 3.33301 -42.5 5.83301 -61.5 7.5
s-38.5 2.5 -58.5 2.5zM407.999 563.999h-74l-88 73l-86 -73h-75l119 122h85z" />
    <glyph glyph-name="atilde" unicode="&#xe3;" horiz-adv-x="493" 
d="M178 -8c-50.667 0 -87.8359 12.166 -111.503 36.499s-35.5 62.833 -35.5 115.5c0 53.333 14.333 91.166 43 113.499s77.334 33.5 146.001 33.5c22.667 0 45 -1 67 -3s42.667 -5 62 -9v48c0 36.667 -9.33301 63 -28 79s-48.667 24 -90 24
c-30.667 0 -57.667 -1.16699 -81 -3.5s-46.666 -6.16602 -69.999 -11.499v71c26.667 6.66699 53.834 11.334 81.501 14.001s59.167 4 94.5 4c59.333 0 103.333 -13.833 132 -41.5s43 -70.5 43 -128.5v-334h-75l-4 46h-2c-20 -16 -45.833 -29 -77.5 -39
s-63.167 -15 -94.5 -15zM228.998 223.999c-45.333 0 -76.832 -5.5 -94.499 -16.5s-26.5 -30.5 -26.5 -58.5c0 -29.333 7.33301 -50.5 22 -63.5s38.667 -19.5 72 -19.5c26 0 52.667 4 80 12s49.666 18 66.999 30v106c-22 3.33301 -42.5 5.83301 -61.5 7.5
s-38.5 2.5 -58.5 2.5zM336.999 683.999l56 0.00195312c0 -38.667 -6.83301 -69 -20.5 -91s-33.5 -33 -59.5 -33c-12 0 -24 2.83301 -36 8.5s-27.333 16.834 -46 33.501c-12.667 12 -22 19.667 -28 23s-11.667 5 -17 5c-10.667 0 -18.667 -5.33301 -24 -16
s-8 -27.334 -8 -50.001h-56c0 38.667 7 69 21 91s34 33 60 33c12 0 24 -2.83301 36 -8.5s27.333 -16.834 46 -33.501c13.333 -12 23 -19.667 29 -23s11.667 -5 17 -5c10 0 17.5 5.16699 22.5 15.5s7.5 27.166 7.5 50.499z" />
    <glyph glyph-name="adieresis" unicode="&#xe4;" horiz-adv-x="493" 
d="M178 -8c-50.667 0 -87.8359 12.166 -111.503 36.499s-35.5 62.833 -35.5 115.5c0 53.333 14.333 91.166 43 113.499s77.334 33.5 146.001 33.5c22.667 0 45 -1 67 -3s42.667 -5 62 -9v48c0 36.667 -9.33301 63 -28 79s-48.667 24 -90 24
c-30.667 0 -57.667 -1.16699 -81 -3.5s-46.666 -6.16602 -69.999 -11.499v71c26.667 6.66699 53.834 11.334 81.501 14.001s59.167 4 94.5 4c59.333 0 103.333 -13.833 132 -41.5s43 -70.5 43 -128.5v-334h-75l-4 46h-2c-20 -16 -45.833 -29 -77.5 -39
s-63.167 -15 -94.5 -15zM228.998 223.999c-45.333 0 -76.832 -5.5 -94.499 -16.5s-26.5 -30.5 -26.5 -58.5c0 -29.333 7.33301 -50.5 22 -63.5s38.667 -19.5 72 -19.5c26 0 52.667 4 80 12s49.666 18 66.999 30v106c-22 3.33301 -42.5 5.83301 -61.5 7.5
s-38.5 2.5 -58.5 2.5zM375.999 641.999v-78h-82v78h82zM198.999 641.999v-78h-83v78h83z" />
    <glyph glyph-name="aring" unicode="&#xe5;" horiz-adv-x="493" 
d="M178 -8c-50.667 0 -87.8359 12.166 -111.503 36.499s-35.5 62.833 -35.5 115.5c0 53.333 14.333 91.166 43 113.499s77.334 33.5 146.001 33.5c22.667 0 45 -1 67 -3s42.667 -5 62 -9v48c0 36.667 -9.33301 63 -28 79s-48.667 24 -90 24
c-30.667 0 -57.667 -1.16699 -81 -3.5s-46.666 -6.16602 -69.999 -11.499v71c26.667 6.66699 53.834 11.334 81.501 14.001s59.167 4 94.5 4c59.333 0 103.333 -13.833 132 -41.5s43 -70.5 43 -128.5v-334h-75l-4 46h-2c-20 -16 -45.833 -29 -77.5 -39
s-63.167 -15 -94.5 -15zM228.998 223.999c-45.333 0 -76.832 -5.5 -94.499 -16.5s-26.5 -30.5 -26.5 -58.5c0 -29.333 7.33301 -50.5 22 -63.5s38.667 -19.5 72 -19.5c26 0 52.667 4 80 12s49.666 18 66.999 30v106c-22 3.33301 -42.5 5.83301 -61.5 7.5
s-38.5 2.5 -58.5 2.5zM358.999 638.999c0 -29.333 -10.167 -52.666 -30.5 -69.999s-47.833 -26 -82.5 -26s-62 8.66699 -82 26s-30 40.666 -30 69.999c0 28 10.167 50.333 30.5 67s47.5 25 81.5 25c34.667 0 62.167 -8.33301 82.5 -25s30.5 -39 30.5 -67zM184.999 638.999
c0 -15.333 5.33203 -27.166 15.999 -35.499s25.667 -12.5 45 -12.5c20 0 35.5 4.16699 46.5 12.5s16.5 20.166 16.5 35.499c0 14 -5.66699 25.167 -17 33.5s-26.666 12.5 -45.999 12.5s-34.333 -4.16699 -45 -12.5s-16 -19.5 -16 -33.5z" />
    <glyph glyph-name="ae" unicode="&#xe6;" horiz-adv-x="766" 
d="M178 -8c-50 0 -86.999 12.166 -110.999 36.499s-36 61.833 -36 112.5c0 52.667 14 90 42 112s76 33 144 33h115v41c0 36.667 -8.5 63 -25.5 79s-44.5 24 -82.5 24c-29.333 0 -55.333 -1.16699 -78 -3.5s-44.667 -6.16602 -66 -11.499v71
c26.667 6.66699 53 11.334 79 14.001s56 4 90 4c33.333 0 60.833 -5.5 82.5 -16.5s38.167 -27.833 49.5 -50.5c17.333 22 39 38.667 65 50s56.667 17 92 17c66.667 0 114.5 -16 143.5 -48s43.5 -84.667 43.5 -158c0 -16.667 -0.333008 -30.834 -1 -42.501
s-1.66699 -23.5 -3 -35.5h-309c0.666992 -54.667 11.167 -93.667 31.5 -117s55.5 -35 105.5 -35c26.667 0 54.667 2.83301 84 8.5s53 12.167 71 19.5v-69c-16.667 -9.33301 -41 -17.5 -73 -24.5s-64 -10.5 -96 -10.5c-39.333 0 -72.333 5.66699 -99 17s-48 29 -64 53
c-24.667 -22 -53.834 -39.167 -87.501 -51.5s-69.167 -18.5 -106.5 -18.5zM650.001 308.999c-0.666992 44 -9.5 75.168 -26.5 93.501s-45.5 27.5 -85.5 27.5c-46 0 -78.5 -10.833 -97.5 -32.5s-28.5 -58.834 -28.5 -111.501h237c0.666992 2 1 4.66699 1 8v15zM109.001 145
c0 -28.667 7.00098 -48.998 21.001 -60.998s37.333 -18 70 -18c26.667 0 53.167 4.66699 79.5 14s49.166 21.666 68.499 36.999c-4.66699 14 -8.16699 29.667 -10.5 47s-3.83301 36 -4.5 56h-111c-43.333 0 -73 -5.33301 -89 -16s-24 -30.334 -24 -59.001z" />
    <glyph glyph-name="ccedilla" unicode="&#xe7;" horiz-adv-x="439" 
d="M374 -115c0 -27.333 -8.83105 -47.4961 -26.498 -60.4961s-46.167 -19.5 -85.5 -19.5c-22 0 -43.333 1.16699 -64 3.5s-34.667 5.16602 -42 8.49902v51c7.33301 -2.66699 20.166 -5.16699 38.499 -7.5s36.5 -3.5 54.5 -3.5c19.333 0 32.833 2.16699 40.5 6.5
s11.5 12.166 11.5 23.499c0 9.33301 -4.66699 16.166 -14 20.499s-24.666 6.5 -45.999 6.5c-8 0 -18 -0.333008 -30 -1s-18.333 -1 -19 -1l16 81c-60 4 -102.5 25.167 -127.5 63.5s-37.5 102.166 -37.5 191.499c0 92.667 18.333 158.5 55 197.5s99 58.5 187 58.5
c19.333 0 36.833 -0.5 52.5 -1.5s35.834 -3.16699 60.501 -6.5v-73c-24.667 3.33301 -44.834 5.33301 -60.501 6s-33.167 1 -52.5 1c-62.667 0 -105 -12.833 -127 -38.5s-33 -73.5 -33 -143.5s8.66699 -117.5 26 -142.5s50.666 -37.5 99.999 -37.5
c27.333 0 55.666 2.83301 84.999 8.5s54.333 12.834 75 21.501v-69c-14 -8 -33.5 -15.333 -58.5 -22s-51.5 -11 -79.5 -13l-9 -41c36 1.33301 63.333 -3.83398 82 -15.501s28 -29.167 28 -52.5z" />
    <glyph glyph-name="egrave" unicode="&#xe8;" horiz-adv-x="498" 
d="M437 96l-0.000976562 -69.001c-17.333 -9.33301 -42.833 -17.5 -76.5 -24.5s-67.834 -10.5 -102.501 -10.5c-77.333 0 -132.666 20 -165.999 60s-50 106 -50 198c0 88.667 17.333 153.167 52 193.5s90 60.5 166 60.5c70.667 0 121.334 -15.833 152.001 -47.5
s46 -84.5 46 -158.5c0 -13.333 -0.333008 -25.666 -1 -36.999s-2 -25 -4 -41h-328c0.666992 -54.667 11.834 -93.667 33.501 -117s59.167 -35 112.5 -35c28.667 0 58.667 2.66699 90 8s56.666 12 75.999 20zM382.999 308.999c-0.666992 44 -10.334 75.167 -29.001 93.5
s-50 27.5 -94 27.5c-49.333 0 -84.166 -10.5 -104.499 -31.5s-30.5 -57.833 -30.5 -110.5h257c0 1.33301 0.166992 4.5 0.5 9.5s0.5 8.83301 0.5 11.5zM255.999 563.999l-131 122h104l103 -122h-76z" />
    <glyph glyph-name="eacute" unicode="&#xe9;" horiz-adv-x="498" 
d="M437 96l-0.000976562 -69.001c-17.333 -9.33301 -42.833 -17.5 -76.5 -24.5s-67.834 -10.5 -102.501 -10.5c-77.333 0 -132.666 20 -165.999 60s-50 106 -50 198c0 88.667 17.333 153.167 52 193.5s90 60.5 166 60.5c70.667 0 121.334 -15.833 152.001 -47.5
s46 -84.5 46 -158.5c0 -13.333 -0.333008 -25.666 -1 -36.999s-2 -25 -4 -41h-328c0.666992 -54.667 11.834 -93.667 33.501 -117s59.167 -35 112.5 -35c28.667 0 58.667 2.66699 90 8s56.666 12 75.999 20zM382.999 308.999c-0.666992 44 -10.334 75.167 -29.001 93.5
s-50 27.5 -94 27.5c-49.333 0 -84.166 -10.5 -104.499 -31.5s-30.5 -57.833 -30.5 -110.5h257c0 1.33301 0.166992 4.5 0.5 9.5s0.5 8.83301 0.5 11.5zM292.999 685.999h104l-131 -122h-76z" />
    <glyph glyph-name="ecircumflex" unicode="&#xea;" horiz-adv-x="498" 
d="M437 96l-0.000976562 -69.001c-17.333 -9.33301 -42.833 -17.5 -76.5 -24.5s-67.834 -10.5 -102.501 -10.5c-77.333 0 -132.666 20 -165.999 60s-50 106 -50 198c0 88.667 17.333 153.167 52 193.5s90 60.5 166 60.5c70.667 0 121.334 -15.833 152.001 -47.5
s46 -84.5 46 -158.5c0 -13.333 -0.333008 -25.666 -1 -36.999s-2 -25 -4 -41h-328c0.666992 -54.667 11.834 -93.667 33.501 -117s59.167 -35 112.5 -35c28.667 0 58.667 2.66699 90 8s56.666 12 75.999 20zM382.999 308.999c-0.666992 44 -10.334 75.167 -29.001 93.5
s-50 27.5 -94 27.5c-49.333 0 -84.166 -10.5 -104.499 -31.5s-30.5 -57.833 -30.5 -110.5h257c0 1.33301 0.166992 4.5 0.5 9.5s0.5 8.83301 0.5 11.5zM422.999 563.999h-74l-88 73l-86 -73h-75l119 122h85z" />
    <glyph glyph-name="edieresis" unicode="&#xeb;" horiz-adv-x="498" 
d="M437 96l-0.000976562 -69.001c-17.333 -9.33301 -42.833 -17.5 -76.5 -24.5s-67.834 -10.5 -102.501 -10.5c-77.333 0 -132.666 20 -165.999 60s-50 106 -50 198c0 88.667 17.333 153.167 52 193.5s90 60.5 166 60.5c70.667 0 121.334 -15.833 152.001 -47.5
s46 -84.5 46 -158.5c0 -13.333 -0.333008 -25.666 -1 -36.999s-2 -25 -4 -41h-328c0.666992 -54.667 11.834 -93.667 33.501 -117s59.167 -35 112.5 -35c28.667 0 58.667 2.66699 90 8s56.666 12 75.999 20zM382.999 308.999c-0.666992 44 -10.334 75.167 -29.001 93.5
s-50 27.5 -94 27.5c-49.333 0 -84.166 -10.5 -104.499 -31.5s-30.5 -57.833 -30.5 -110.5h257c0 1.33301 0.166992 4.5 0.5 9.5s0.5 8.83301 0.5 11.5zM390.999 641.999v-78h-82v78h82zM213.999 641.999v-78h-83v78h83z" />
    <glyph glyph-name="igrave" unicode="&#xec;" horiz-adv-x="214" 
d="M148 0h-82v494h82v-494zM102 554l-131 122h104l103 -122h-76z" />
    <glyph glyph-name="iacute" unicode="&#xed;" horiz-adv-x="214" 
d="M148 0h-82v494h82v-494zM139 676h104l-131 -122h-76z" />
    <glyph glyph-name="icircumflex" unicode="&#xee;" horiz-adv-x="214" 
d="M148 0h-82v494h82v-494zM269 554h-74l-88 73l-86 -73h-75l119 122h85z" />
    <glyph glyph-name="idieresis" unicode="&#xef;" horiz-adv-x="214" 
d="M148 0h-82v494h82v-494zM237 632v-78h-82v78h82zM60 632v-78h-83v78h83z" />
    <glyph glyph-name="eth" unicode="&#xf0;" horiz-adv-x="549" 
d="M500 241c0 -91.333 -17.1689 -155.665 -51.502 -192.998s-93.166 -56 -176.499 -56c-86 0 -145.667 18 -179 54s-50 101 -50 195c0 91.333 17.167 155.666 51.5 192.999s93.5 56 177.5 56c22.667 0 43.667 -1.5 63 -4.5s37 -7.5 53 -13.5
c-6 15.333 -12.833 30.833 -20.5 46.5s-16.5 31.167 -26.5 46.5l-182 -42v49l152 35c-8 10 -16.333 19.833 -25 29.5s-17.667 19.167 -27 28.5h92c4.66699 -4.66699 9.33398 -9.83398 14.001 -15.501l21 -25.5l102 24v-50l-71 -16c29.333 -45.333 50.5 -95 63.5 -149
s19.5 -118 19.5 -192zM124.998 242.001c0 -70.667 9.66895 -117.332 29.002 -139.999s58.666 -34 117.999 -34c57.333 0 96 12 116 36s30 70 30 138v30.5c0 6.33301 -0.333008 11.833 -1 16.5h-1v6c-4 46.667 -15.833 78.5 -35.5 95.5s-55.834 25.5 -108.501 25.5
c-58 0 -97 -11.833 -117 -35.5s-30 -69.834 -30 -138.501z" />
    <glyph glyph-name="ntilde" unicode="&#xf1;" horiz-adv-x="554" 
d="M148 0h-81.999v494h71l4 -48h3c26.667 20 54.5 34.667 83.5 44s61.5 14 97.5 14c54.667 0 96.167 -13.667 124.5 -41s42.5 -67.666 42.5 -120.999v-342h-82v332c0 33.333 -9.33301 58 -28 74s-47.334 24 -86.001 24c-24 0 -48.5 -3.83301 -73.5 -11.5
s-49.833 -18.834 -74.5 -33.501v-385zM370.001 684l56 0.00195312c0 -38.667 -6.83301 -69 -20.5 -91s-33.5 -33 -59.5 -33c-12 0 -24 2.83301 -36 8.5s-27.333 16.834 -46 33.501c-12.667 12 -22 19.667 -28 23s-11.667 5 -17 5c-10.667 0 -18.667 -5.33301 -24 -16
s-8 -27.334 -8 -50.001h-56c0 38.667 7 69 21 91s34 33 60 33c12 0 24 -2.83301 36 -8.5s27.333 -16.834 46 -33.501c13.333 -12 23 -19.667 29 -23s11.667 -5 17 -5c10 0 17.5 5.16699 22.5 15.5s7.5 27.166 7.5 50.499z" />
    <glyph glyph-name="ograve" unicode="&#xf2;" horiz-adv-x="543" 
d="M500 248c0 -93.333 -17.168 -159.333 -51.501 -198s-93.166 -58 -176.499 -58c-86 0 -145.667 18.667 -179 56s-50 104 -50 200c0 94 17.167 160.167 51.5 198.5s93.5 57.5 177.5 57.5c86 0 145.5 -18.667 178.5 -56s49.5 -104 49.5 -200zM124.999 249
c0 -73.333 9.66797 -121.833 29.001 -145.5s58.666 -35.5 117.999 -35.5c57.333 0 96 12.5 116 37.5s30 72.833 30 143.5c0 73.333 -9.5 121.833 -28.5 145.5s-58.167 35.5 -117.5 35.5c-58 0 -97 -12.333 -117 -37s-30 -72.667 -30 -144zM267 564l-131 122h104l103 -122
h-76z" />
    <glyph glyph-name="oacute" unicode="&#xf3;" horiz-adv-x="543" 
d="M500 248c0 -93.333 -17.168 -159.333 -51.501 -198s-93.166 -58 -176.499 -58c-86 0 -145.667 18.667 -179 56s-50 104 -50 200c0 94 17.167 160.167 51.5 198.5s93.5 57.5 177.5 57.5c86 0 145.5 -18.667 178.5 -56s49.5 -104 49.5 -200zM124.999 249
c0 -73.333 9.66797 -121.833 29.001 -145.5s58.666 -35.5 117.999 -35.5c57.333 0 96 12.5 116 37.5s30 72.833 30 143.5c0 73.333 -9.5 121.833 -28.5 145.5s-58.167 35.5 -117.5 35.5c-58 0 -97 -12.333 -117 -37s-30 -72.667 -30 -144zM304 686h104l-131 -122h-76z" />
    <glyph glyph-name="ocircumflex" unicode="&#xf4;" horiz-adv-x="543" 
d="M500 248c0 -93.333 -17.168 -159.333 -51.501 -198s-93.166 -58 -176.499 -58c-86 0 -145.667 18.667 -179 56s-50 104 -50 200c0 94 17.167 160.167 51.5 198.5s93.5 57.5 177.5 57.5c86 0 145.5 -18.667 178.5 -56s49.5 -104 49.5 -200zM124.999 249
c0 -73.333 9.66797 -121.833 29.001 -145.5s58.666 -35.5 117.999 -35.5c57.333 0 96 12.5 116 37.5s30 72.833 30 143.5c0 73.333 -9.5 121.833 -28.5 145.5s-58.167 35.5 -117.5 35.5c-58 0 -97 -12.333 -117 -37s-30 -72.667 -30 -144zM434 564h-74l-88 73l-86 -73h-75
l119 122h85z" />
    <glyph glyph-name="otilde" unicode="&#xf5;" horiz-adv-x="543" 
d="M500 248c0 -93.333 -17.168 -159.333 -51.501 -198s-93.166 -58 -176.499 -58c-86 0 -145.667 18.667 -179 56s-50 104 -50 200c0 94 17.167 160.167 51.5 198.5s93.5 57.5 177.5 57.5c86 0 145.5 -18.667 178.5 -56s49.5 -104 49.5 -200zM124.999 249
c0 -73.333 9.66797 -121.833 29.001 -145.5s58.666 -35.5 117.999 -35.5c57.333 0 96 12.5 116 37.5s30 72.833 30 143.5c0 73.333 -9.5 121.833 -28.5 145.5s-58.167 35.5 -117.5 35.5c-58 0 -97 -12.333 -117 -37s-30 -72.667 -30 -144zM363 684l56 0.00195312
c0 -38.667 -6.83301 -69 -20.5 -91s-33.5 -33 -59.5 -33c-12 0 -24 2.83301 -36 8.5s-27.333 16.834 -46 33.501c-12.667 12 -22 19.667 -28 23s-11.667 5 -17 5c-10.667 0 -18.667 -5.33301 -24 -16s-8 -27.334 -8 -50.001h-56c0 38.667 7 69 21 91s34 33 60 33
c12 0 24 -2.83301 36 -8.5s27.333 -16.834 46 -33.501c13.333 -12 23 -19.667 29 -23s11.667 -5 17 -5c10 0 17.5 5.16699 22.5 15.5s7.5 27.166 7.5 50.499z" />
    <glyph glyph-name="odieresis" unicode="&#xf6;" horiz-adv-x="543" 
d="M500 248c0 -93.333 -17.168 -159.333 -51.501 -198s-93.166 -58 -176.499 -58c-86 0 -145.667 18.667 -179 56s-50 104 -50 200c0 94 17.167 160.167 51.5 198.5s93.5 57.5 177.5 57.5c86 0 145.5 -18.667 178.5 -56s49.5 -104 49.5 -200zM124.999 249
c0 -73.333 9.66797 -121.833 29.001 -145.5s58.666 -35.5 117.999 -35.5c57.333 0 96 12.5 116 37.5s30 72.833 30 143.5c0 73.333 -9.5 121.833 -28.5 145.5s-58.167 35.5 -117.5 35.5c-58 0 -97 -12.333 -117 -37s-30 -72.667 -30 -144zM402 642v-78h-82v78h82zM225 642
v-78h-83v78h83z" />
    <glyph glyph-name="divide" unicode="&#xf7;" 
d="M463 361v-78h-426v78h426zM295 90h-82v83h82v-83zM295 468h-82v83h82v-83z" />
    <glyph glyph-name="oslash" unicode="&#xf8;" horiz-adv-x="544" 
d="M92 -66l-47 33.001l52 76c-18.667 19.333 -32.334 45.333 -41.001 78s-13 75 -13 127c0 94 17.167 160.167 51.5 198.5s93.5 57.5 177.5 57.5c28.667 0 53.334 -1.66699 74.001 -5s39 -8.66602 55 -15.999l52 75l47 -33l-52 -75c18 -18.667 31.167 -44.334 39.5 -77.001
s12.5 -74.334 12.5 -125.001c0 -93.333 -17.167 -159.333 -51.5 -198s-93.166 -58 -176.499 -58c-26.667 0 -50.334 1.5 -71.001 4.5s-39 7.83301 -55 14.5zM272 430.001c-58 0 -97 -12.332 -117 -36.999s-30 -72.667 -30 -144c0 -34.667 1.83301 -62.834 5.5 -84.501
s9.5 -39.167 17.5 -52.5l210 306c-10 4 -21.833 7 -35.5 9s-30.5 3 -50.5 3zM272 68.002c57.333 0 96.001 12.499 116.001 37.499s30 72.833 30 143.5c0 34 -1.66699 61.333 -5 82s-8.33301 37.334 -15 50.001l-208 -302c9.33301 -4 20.666 -6.83301 33.999 -8.5
s29.333 -2.5 48 -2.5z" />
    <glyph glyph-name="ugrave" unicode="&#xf9;" horiz-adv-x="538" 
d="M226 -8c-54.667 0 -95.666 13.667 -122.999 41s-41 68.333 -41 123v338h82v-328c0 -34 8.66699 -58.667 26 -74s44.666 -23 81.999 -23c22.667 0 45.5 2.83301 68.5 8.5s46.167 14.5 69.5 26.5v390h82v-494h-75l-4 41h-2c-34.667 -18 -64.667 -30.667 -90 -38
s-50.333 -11 -75 -11zM264.001 554l-131 122h104l103 -122h-76z" />
    <glyph glyph-name="uacute" unicode="&#xfa;" horiz-adv-x="538" 
d="M226 -8c-54.667 0 -95.666 13.667 -122.999 41s-41 68.333 -41 123v338h82v-328c0 -34 8.66699 -58.667 26 -74s44.666 -23 81.999 -23c22.667 0 45.5 2.83301 68.5 8.5s46.167 14.5 69.5 26.5v390h82v-494h-75l-4 41h-2c-34.667 -18 -64.667 -30.667 -90 -38
s-50.333 -11 -75 -11zM301.001 676h104l-131 -122h-76z" />
    <glyph glyph-name="ucircumflex" unicode="&#xfb;" horiz-adv-x="538" 
d="M226 -8c-54.667 0 -95.666 13.667 -122.999 41s-41 68.333 -41 123v338h82v-328c0 -34 8.66699 -58.667 26 -74s44.666 -23 81.999 -23c22.667 0 45.5 2.83301 68.5 8.5s46.167 14.5 69.5 26.5v390h82v-494h-75l-4 41h-2c-34.667 -18 -64.667 -30.667 -90 -38
s-50.333 -11 -75 -11zM431.001 554h-74l-88 73l-86 -73h-75l119 122h85z" />
    <glyph glyph-name="udieresis" unicode="&#xfc;" horiz-adv-x="538" 
d="M226 -8c-54.667 0 -95.666 13.667 -122.999 41s-41 68.333 -41 123v338h82v-328c0 -34 8.66699 -58.667 26 -74s44.666 -23 81.999 -23c22.667 0 45.5 2.83301 68.5 8.5s46.167 14.5 69.5 26.5v390h82v-494h-75l-4 41h-2c-34.667 -18 -64.667 -30.667 -90 -38
s-50.333 -11 -75 -11zM399.001 632v-78h-82v78h82zM222.001 632v-78h-83v78h83z" />
    <glyph glyph-name="yacute" unicode="&#xfd;" horiz-adv-x="495" 
d="M111 -88c25.333 0 44.499 5.5 57.499 16.5s26.833 37.167 41.5 78.5l-202 487h92l152 -405l144 405h88l-202 -527c-18 -48 -39 -81.5 -63 -100.5s-55 -28.5 -93 -28.5c-11.333 0 -23.166 0.666992 -35.499 2s-24.5 3 -36.5 5v72c7.33301 -2 15.5 -3.33301 24.5 -4
s19.833 -1 32.5 -1zM284.999 676h104l-131 -122h-76z" />
    <glyph glyph-name="thorn" unicode="&#xfe;" horiz-adv-x="541" 
d="M148 -152h-82.001v817h82v-209c20 16 43.833 28 71.5 36s58.167 12 91.5 12c67.333 0 115.5 -20 144.5 -60s43.5 -105.333 43.5 -196s-17.667 -156 -53 -196s-94.333 -60 -177 -60c-24.667 0 -47.167 1.66699 -67.5 5s-38.166 8.33301 -53.499 15v-164zM416.999 248
c0 68 -9.5 115.332 -28.5 141.999s-54.5 40 -106.5 40c-24.667 0 -48.334 -3.16699 -71.001 -9.5s-43.667 -15.833 -63 -28.5v-304c16.667 -6.66699 33.834 -11.667 51.501 -15s37.5 -5 59.5 -5c62 0 103.833 12.833 125.5 38.5s32.5 72.834 32.5 141.501z" />
    <glyph glyph-name="ydieresis" unicode="&#xff;" horiz-adv-x="495" 
d="M111 -88c25.333 0 44.499 5.5 57.499 16.5s26.833 37.167 41.5 78.5l-202 487h92l152 -405l144 405h88l-202 -527c-18 -48 -39 -81.5 -63 -100.5s-55 -28.5 -93 -28.5c-11.333 0 -23.166 0.666992 -35.499 2s-24.5 3 -36.5 5v72c7.33301 -2 15.5 -3.33301 24.5 -4
s19.833 -1 32.5 -1zM382.999 632v-78h-82v78h82zM205.999 632v-78h-83v78h83z" />
    <glyph glyph-name="Amacron" unicode="&#x100;" horiz-adv-x="598" 
d="M98 0h-90l248 627h88l245 -627h-90l-57 151h-287zM298 549c-6.66699 -23.333 -14.5 -48 -23.5 -74l-27.5 -78l-64 -171h231l-64 171l-31.5 89zM421 743v-59h-245v59h245z" />
    <glyph glyph-name="amacron" unicode="&#x101;" horiz-adv-x="493" 
d="M178 -8c-50.667 0 -87.8359 12.166 -111.503 36.499s-35.5 62.833 -35.5 115.5c0 53.333 14.333 91.166 43 113.499s77.334 33.5 146.001 33.5c22.667 0 45 -1 67 -3s42.667 -5 62 -9v48c0 36.667 -9.33301 63 -28 79s-48.667 24 -90 24
c-30.667 0 -57.667 -1.16699 -81 -3.5s-46.666 -6.16602 -69.999 -11.499v71c26.667 6.66699 53.834 11.334 81.501 14.001s59.167 4 94.5 4c59.333 0 103.333 -13.833 132 -41.5s43 -70.5 43 -128.5v-334h-75l-4 46h-2c-20 -16 -45.833 -29 -77.5 -39
s-63.167 -15 -94.5 -15zM228.998 223.999c-45.333 0 -76.832 -5.5 -94.499 -16.5s-26.5 -30.5 -26.5 -58.5c0 -29.333 7.33301 -50.5 22 -63.5s38.667 -19.5 72 -19.5c26 0 52.667 4 80 12s49.666 18 66.999 30v106c-22 3.33301 -42.5 5.83301 -61.5 7.5
s-38.5 2.5 -58.5 2.5zM367.999 632.999v-64h-245v64h245z" />
    <glyph glyph-name="Abreve" unicode="&#x102;" horiz-adv-x="598" 
d="M98 0h-90l248 627h88l245 -627h-90l-57 151h-287zM298 549c-6.66699 -23.333 -14.5 -48 -23.5 -74l-27.5 -78l-64 -171h231l-64 171l-31.5 89zM381 791h58c0 -36.667 -12.5 -65.667 -37.5 -87s-59.167 -32 -102.5 -32c-44 0 -78.5 10.667 -103.5 32
s-37.5 50.333 -37.5 87h58c0 -20 7.33301 -35.667 22 -47s35 -17 61 -17c25.333 0 45.333 5.83301 60 17.5s22 27.167 22 46.5z" />
    <glyph glyph-name="abreve" unicode="&#x103;" horiz-adv-x="493" 
d="M178 -8c-50.667 0 -87.8359 12.166 -111.503 36.499s-35.5 62.833 -35.5 115.5c0 53.333 14.333 91.166 43 113.499s77.334 33.5 146.001 33.5c22.667 0 45 -1 67 -3s42.667 -5 62 -9v48c0 36.667 -9.33301 63 -28 79s-48.667 24 -90 24
c-30.667 0 -57.667 -1.16699 -81 -3.5s-46.666 -6.16602 -69.999 -11.499v71c26.667 6.66699 53.834 11.334 81.501 14.001s59.167 4 94.5 4c59.333 0 103.333 -13.833 132 -41.5s43 -70.5 43 -128.5v-334h-75l-4 46h-2c-20 -16 -45.833 -29 -77.5 -39
s-63.167 -15 -94.5 -15zM228.998 223.999c-45.333 0 -76.832 -5.5 -94.499 -16.5s-26.5 -30.5 -26.5 -58.5c0 -29.333 7.33301 -50.5 22 -63.5s38.667 -19.5 72 -19.5c26 0 52.667 4 80 12s49.666 18 66.999 30v106c-22 3.33301 -42.5 5.83301 -61.5 7.5
s-38.5 2.5 -58.5 2.5zM327.999 685.999h58c0 -39.333 -12.5 -70.666 -37.5 -93.999s-59.167 -35 -102.5 -35c-44 0 -78.5 11.667 -103.5 35s-37.5 54.666 -37.5 93.999h58c0 -22.667 7.33301 -40.5 22 -53.5s35 -19.5 61 -19.5c25.333 0 45.333 6.66699 60 20s22 31 22 53z
" />
    <glyph glyph-name="Aogonek" unicode="&#x104;" horiz-adv-x="598" 
d="M98 0l-90 0.000976562l248 627h88l245 -627h-2c-40 -8 -72.833 -20.833 -98.5 -38.5s-38.5 -37.5 -38.5 -59.5c0 -14.667 4.83301 -25.667 14.5 -33s24.167 -11 43.5 -11c9.33301 0 19.5 0.833008 30.5 2.5s20.5 3.5 28.5 5.5v-59
c-21.333 -4.66699 -37.5 -7.66699 -48.5 -9s-21.5 -2 -31.5 -2c-34 0 -60.167 7.83301 -78.5 23.5s-27.5 38.167 -27.5 67.5c0 27.333 9.83301 51.166 29.5 71.499s48.167 36.5 85.5 48.5l-54 144h-287zM298 549.001c-6.66699 -23.333 -14.5 -48 -23.5 -74l-27.5 -78
l-64 -171h231l-64 171l-31.5 89z" />
    <glyph glyph-name="aogonek" unicode="&#x105;" horiz-adv-x="493" 
d="M178 -8c-50.667 0 -87.8359 12.166 -111.503 36.499s-35.5 62.833 -35.5 115.5c0 53.333 14.333 91.166 43 113.499s77.334 33.5 146.001 33.5c22.667 0 45 -1 67 -3s42.667 -5 62 -9v48c0 36.667 -9.33301 63 -28 79s-48.667 24 -90 24
c-30.667 0 -57.667 -1.16699 -81 -3.5s-46.666 -6.16602 -69.999 -11.499v71c26.667 6.66699 53.834 11.334 81.501 14.001s59.167 4 94.5 4c59.333 0 103.333 -13.833 132 -41.5s43 -70.5 43 -128.5v-334c-40 -8 -72.833 -20.833 -98.5 -38.5s-38.5 -37.5 -38.5 -59.5
c0 -14.667 4.83301 -25.667 14.5 -33s24.167 -11 43.5 -11c9.33301 0 19.5 0.833008 30.5 2.5s20.5 3.5 28.5 5.5v-59c-21.333 -4.66699 -37.5 -7.66699 -48.5 -9s-21.5 -2 -31.5 -2c-34 0 -60.167 7.83301 -78.5 23.5s-27.5 38.167 -27.5 67.5s11 54.5 33 75.5
s54.333 37.5 97 49.5l-3 34h-2c-20 -16 -45.833 -29 -77.5 -39s-63.167 -15 -94.5 -15zM228.998 223.999c-45.333 0 -76.832 -5.5 -94.499 -16.5s-26.5 -30.5 -26.5 -58.5c0 -29.333 7.33301 -50.5 22 -63.5s38.667 -19.5 72 -19.5c26 0 52.667 4 80 12s49.666 18 66.999 30
v106c-22 3.33301 -42.5 5.83301 -61.5 7.5s-38.5 2.5 -58.5 2.5z" />
    <glyph glyph-name="Cacute" unicode="&#x106;" horiz-adv-x="518" 
d="M321 72c27.333 0 56.167 3.16797 86.5 9.50098s58.5 14.833 84.5 25.5v-76c-36.667 -14.667 -69.167 -24.834 -97.5 -30.501s-57.833 -8.5 -88.5 -8.5c-96 0 -163.667 24.833 -203 74.5s-59 132.5 -59 248.5c0 111.333 22.833 192.833 68.5 244.5s118.5 77.5 218.5 77.5
c30.667 0 58 -0.666992 82 -2s45.667 -3.66602 65 -6.99902v-75c-23.333 2.66699 -46.833 4.5 -70.5 5.5s-49.167 1.5 -76.5 1.5c-74.667 0 -126.667 -18.5 -156 -55.5s-44 -100.167 -44 -189.5c0 -90.667 13.333 -153.834 40 -189.501s76.667 -53.5 150 -53.5z
M342.001 801.001h104l-129 -112h-76z" />
    <glyph glyph-name="cacute" unicode="&#x107;" horiz-adv-x="439" 
d="M411 98l0.00195312 -69.001c-16.667 -10.667 -41.5 -19.5 -74.5 -26.5s-67.5 -10.5 -103.5 -10.5c-70 0 -119.167 19 -147.5 57s-42.5 104.333 -42.5 199c0 92.667 18.333 158.5 55 197.5s99 58.5 187 58.5c19.333 0 36.833 -0.5 52.5 -1.5s35.834 -3.16699 60.501 -6.5
v-73c-24.667 3.33301 -44.834 5.33301 -60.501 6s-33.167 1 -52.5 1c-62.667 0 -105 -12.833 -127 -38.5s-33 -73.5 -33 -143.5s8.66699 -117.5 26 -142.5s50.666 -37.5 99.999 -37.5c27.333 0 55.666 2.83301 84.999 8.5s54.333 12.834 75 21.501zM296.002 685.999h104
l-131 -122h-76z" />
    <glyph glyph-name="Ccircumflex" unicode="&#x108;" horiz-adv-x="518" 
d="M321 72c27.333 0 56.167 3.16797 86.5 9.50098s58.5 14.833 84.5 25.5v-76c-36.667 -14.667 -69.167 -24.834 -97.5 -30.501s-57.833 -8.5 -88.5 -8.5c-96 0 -163.667 24.833 -203 74.5s-59 132.5 -59 248.5c0 111.333 22.833 192.833 68.5 244.5s118.5 77.5 218.5 77.5
c30.667 0 58 -0.666992 82 -2s45.667 -3.66602 65 -6.99902v-75c-23.333 2.66699 -46.833 4.5 -70.5 5.5s-49.167 1.5 -76.5 1.5c-74.667 0 -126.667 -18.5 -156 -55.5s-44 -100.167 -44 -189.5c0 -90.667 13.333 -153.834 40 -189.501s76.667 -53.5 150 -53.5z
M474.001 689.001h-74l-88 63l-86 -63h-75l119 112h85z" />
    <glyph glyph-name="ccircumflex" unicode="&#x109;" horiz-adv-x="439" 
d="M411 98l0.00195312 -69.001c-16.667 -10.667 -41.5 -19.5 -74.5 -26.5s-67.5 -10.5 -103.5 -10.5c-70 0 -119.167 19 -147.5 57s-42.5 104.333 -42.5 199c0 92.667 18.333 158.5 55 197.5s99 58.5 187 58.5c19.333 0 36.833 -0.5 52.5 -1.5s35.834 -3.16699 60.501 -6.5
v-73c-24.667 3.33301 -44.834 5.33301 -60.501 6s-33.167 1 -52.5 1c-62.667 0 -105 -12.833 -127 -38.5s-33 -73.5 -33 -143.5s8.66699 -117.5 26 -142.5s50.666 -37.5 99.999 -37.5c27.333 0 55.666 2.83301 84.999 8.5s54.333 12.834 75 21.501zM426.002 563.999h-74
l-88 73l-86 -73h-75l119 122h85z" />
    <glyph glyph-name="Cdotaccent" unicode="&#x10a;" horiz-adv-x="518" 
d="M321 72c27.333 0 56.167 3.16797 86.5 9.50098s58.5 14.833 84.5 25.5v-76c-36.667 -14.667 -69.167 -24.834 -97.5 -30.501s-57.833 -8.5 -88.5 -8.5c-96 0 -163.667 24.833 -203 74.5s-59 132.5 -59 248.5c0 111.333 22.833 192.833 68.5 244.5s118.5 77.5 218.5 77.5
c30.667 0 58 -0.666992 82 -2s45.667 -3.66602 65 -6.99902v-75c-23.333 2.66699 -46.833 4.5 -70.5 5.5s-49.167 1.5 -76.5 1.5c-74.667 0 -126.667 -18.5 -156 -55.5s-44 -100.167 -44 -189.5c0 -90.667 13.333 -153.834 40 -189.501s76.667 -53.5 150 -53.5z
M351.001 689.001h-80v72h80v-72z" />
    <glyph glyph-name="cdotaccent" unicode="&#x10b;" horiz-adv-x="439" 
d="M411 98l0.00195312 -69.001c-16.667 -10.667 -41.5 -19.5 -74.5 -26.5s-67.5 -10.5 -103.5 -10.5c-70 0 -119.167 19 -147.5 57s-42.5 104.333 -42.5 199c0 92.667 18.333 158.5 55 197.5s99 58.5 187 58.5c19.333 0 36.833 -0.5 52.5 -1.5s35.834 -3.16699 60.501 -6.5
v-73c-24.667 3.33301 -44.834 5.33301 -60.501 6s-33.167 1 -52.5 1c-62.667 0 -105 -12.833 -127 -38.5s-33 -73.5 -33 -143.5s8.66699 -117.5 26 -142.5s50.666 -37.5 99.999 -37.5c27.333 0 55.666 2.83301 84.999 8.5s54.333 12.834 75 21.501zM313.002 563.999h-100v78
h100v-78z" />
    <glyph glyph-name="Ccaron" unicode="&#x10c;" horiz-adv-x="518" 
d="M321 72c27.333 0 56.167 3.16797 86.5 9.50098s58.5 14.833 84.5 25.5v-76c-36.667 -14.667 -69.167 -24.834 -97.5 -30.501s-57.833 -8.5 -88.5 -8.5c-96 0 -163.667 24.833 -203 74.5s-59 132.5 -59 248.5c0 111.333 22.833 192.833 68.5 244.5s118.5 77.5 218.5 77.5
c30.667 0 58 -0.666992 82 -2s45.667 -3.66602 65 -6.99902v-75c-23.333 2.66699 -46.833 4.5 -70.5 5.5s-49.167 1.5 -76.5 1.5c-74.667 0 -126.667 -18.5 -156 -55.5s-44 -100.167 -44 -189.5c0 -90.667 13.333 -153.834 40 -189.501s76.667 -53.5 150 -53.5z
M150.001 801.001h74l88 -63l86 63h75l-119 -112h-85z" />
    <glyph glyph-name="ccaron" unicode="&#x10d;" horiz-adv-x="439" 
d="M411 98l0.00195312 -69.001c-16.667 -10.667 -41.5 -19.5 -74.5 -26.5s-67.5 -10.5 -103.5 -10.5c-70 0 -119.167 19 -147.5 57s-42.5 104.333 -42.5 199c0 92.667 18.333 158.5 55 197.5s99 58.5 187 58.5c19.333 0 36.833 -0.5 52.5 -1.5s35.834 -3.16699 60.501 -6.5
v-73c-24.667 3.33301 -44.834 5.33301 -60.501 6s-33.167 1 -52.5 1c-62.667 0 -105 -12.833 -127 -38.5s-33 -73.5 -33 -143.5s8.66699 -117.5 26 -142.5s50.666 -37.5 99.999 -37.5c27.333 0 55.666 2.83301 84.999 8.5s54.333 12.834 75 21.501zM102.002 685.999h74
l88 -73l86 73h75l-119 -122h-85z" />
    <glyph glyph-name="Dcaron" unicode="&#x10e;" horiz-adv-x="606" 
d="M254 0h-182.001v627h182c64 0 114.833 -5.33301 152.5 -16s67.834 -27.667 90.501 -51s39.167 -54.833 49.5 -94.5s15.5 -90.167 15.5 -151.5c0 -108.667 -24.333 -188.167 -73 -238.5s-127 -75.5 -235 -75.5zM432.999 499c-15.333 18 -36.667 31.0029 -64 39.0029
s-65.666 12 -114.999 12h-97v-470h97c82.667 0 140.167 17.667 172.5 53s48.5 95.666 48.5 180.999c0 47.333 -3.33301 85.666 -10 114.999s-17.334 52.666 -32.001 69.999zM125.998 791.003h74l88 -63l86 63h75l-119 -112h-85z" />
    <glyph glyph-name="dcaron" unicode="&#x10f;" horiz-adv-x="562" 
d="M393 665l82.001 0.000976562v-665h-71l-6 46h-2c-19.333 -18 -42.833 -31.5 -70.5 -40.5s-59.5 -13.5 -95.5 -13.5c-67.333 0 -115.5 20 -144.5 60s-43.5 105.333 -43.5 196s17.667 156 53 196s94.333 60 177 60c23.333 0 45.166 -1.83301 65.499 -5.5
s38.833 -8.83398 55.5 -15.501v182zM282.001 430.001c-62 0 -103.834 -13.001 -125.501 -39.001s-32.5 -73.667 -32.5 -143c0 -67.333 9.5 -114.166 28.5 -140.499s54.5 -39.5 106.5 -39.5c24.667 0 48.334 3.16699 71.001 9.5s43.667 15.833 63 28.5v304
c-16 6.66699 -33 11.667 -51 15s-38 5 -60 5zM627 665l-20.002 -137c-1.33301 -10.667 -5.66602 -19.167 -12.999 -25.5s-16.666 -9.5 -27.999 -9.5h-25l4 172h82z" />
    <glyph glyph-name="Dcroat" unicode="&#x110;" horiz-adv-x="624" 
d="M20 291l-0.000976562 60h70v276h182c64 0 114.833 -5.33301 152.5 -16s67.834 -27.667 90.501 -51s39.167 -54.833 49.5 -94.5s15.5 -90.167 15.5 -151.5c0 -108.667 -24.333 -188.167 -73 -238.5s-127 -75.5 -235 -75.5h-182v291h-70zM338.999 351
l-0.000976562 -59.9971h-164v-211h97c82.667 0 140.167 17.667 172.5 53s48.5 95.666 48.5 180.999c0 47.333 -3.33301 85.666 -10 114.999s-17.334 52.666 -32.001 69.999c-15.333 18 -36.666 31 -63.999 39s-65.666 12 -114.999 12h-97v-199h164z" />
    <glyph glyph-name="dcroat" unicode="&#x111;" horiz-adv-x="542" 
d="M546 614l0.000976562 -49h-70v-565h-72l-6 48h-2c-19.333 -18.667 -42.666 -32.667 -69.999 -42s-59.333 -14 -96 -14c-67.333 0 -115.5 19.667 -144.5 59s-43.5 103.333 -43.5 192c0 89.333 17.667 153.5 53 192.5s94.333 58.5 177 58.5
c25.333 0 48.166 -1.66699 68.499 -5s38.166 -8.33301 53.499 -15v91h-177v49h177v51h82v-51h70zM282.001 420c-62 0 -103.834 -12.666 -125.501 -37.999s-32.5 -71.666 -32.5 -138.999c0 -65.333 9.5 -110.833 28.5 -136.5s54.5 -38.5 106.5 -38.5
c24.667 0 48.334 3.16699 71.001 9.5s44 16.166 64 29.499v292c-16 7.33301 -33 12.666 -51 15.999s-38.333 5 -61 5z" />
    <glyph glyph-name="Emacron" unicode="&#x112;" horiz-adv-x="523" 
d="M488 80v-80h-416v627h407v-77h-322v-192h285v-75h-285v-203h331zM407 743v-59h-245v59h245z" />
    <glyph glyph-name="emacron" unicode="&#x113;" horiz-adv-x="498" 
d="M437 96l-0.000976562 -69.001c-17.333 -9.33301 -42.833 -17.5 -76.5 -24.5s-67.834 -10.5 -102.501 -10.5c-77.333 0 -132.666 20 -165.999 60s-50 106 -50 198c0 88.667 17.333 153.167 52 193.5s90 60.5 166 60.5c70.667 0 121.334 -15.833 152.001 -47.5
s46 -84.5 46 -158.5c0 -13.333 -0.333008 -25.666 -1 -36.999s-2 -25 -4 -41h-328c0.666992 -54.667 11.834 -93.667 33.501 -117s59.167 -35 112.5 -35c28.667 0 58.667 2.66699 90 8s56.666 12 75.999 20zM382.999 308.999c-0.666992 44 -10.334 75.167 -29.001 93.5
s-50 27.5 -94 27.5c-49.333 0 -84.166 -10.5 -104.499 -31.5s-30.5 -57.833 -30.5 -110.5h257c0 1.33301 0.166992 4.5 0.5 9.5s0.5 8.83301 0.5 11.5zM382.999 632.999v-64h-245v64h245z" />
    <glyph glyph-name="Ebreve" unicode="&#x114;" horiz-adv-x="523" 
d="M488 80v-80h-416v627h407v-77h-322v-192h285v-75h-285v-203h331zM367 791h58c0 -36.667 -12.5 -65.667 -37.5 -87s-59.167 -32 -102.5 -32c-44 0 -78.5 10.667 -103.5 32s-37.5 50.333 -37.5 87h58c0 -20 7.33301 -35.667 22 -47s35 -17 61 -17
c25.333 0 45.333 5.83301 60 17.5s22 27.167 22 46.5z" />
    <glyph glyph-name="ebreve" unicode="&#x115;" horiz-adv-x="498" 
d="M437 96l-0.000976562 -69.001c-17.333 -9.33301 -42.833 -17.5 -76.5 -24.5s-67.834 -10.5 -102.501 -10.5c-77.333 0 -132.666 20 -165.999 60s-50 106 -50 198c0 88.667 17.333 153.167 52 193.5s90 60.5 166 60.5c70.667 0 121.334 -15.833 152.001 -47.5
s46 -84.5 46 -158.5c0 -13.333 -0.333008 -25.666 -1 -36.999s-2 -25 -4 -41h-328c0.666992 -54.667 11.834 -93.667 33.501 -117s59.167 -35 112.5 -35c28.667 0 58.667 2.66699 90 8s56.666 12 75.999 20zM382.999 308.999c-0.666992 44 -10.334 75.167 -29.001 93.5
s-50 27.5 -94 27.5c-49.333 0 -84.166 -10.5 -104.499 -31.5s-30.5 -57.833 -30.5 -110.5h257c0 1.33301 0.166992 4.5 0.5 9.5s0.5 8.83301 0.5 11.5zM342.999 685.999h58c0 -39.333 -12.5 -70.666 -37.5 -93.999s-59.167 -35 -102.5 -35c-44 0 -78.5 11.667 -103.5 35
s-37.5 54.666 -37.5 93.999h58c0 -22.667 7.33301 -40.5 22 -53.5s35 -19.5 61 -19.5c25.333 0 45.333 6.66699 60 20s22 31 22 53z" />
    <glyph glyph-name="Edotaccent" unicode="&#x116;" horiz-adv-x="523" 
d="M488 80v-80h-416v627h407v-77h-322v-192h285v-75h-285v-203h331zM324 679h-80v72h80v-72z" />
    <glyph glyph-name="edotaccent" unicode="&#x117;" horiz-adv-x="498" 
d="M437 96l-0.000976562 -69.001c-17.333 -9.33301 -42.833 -17.5 -76.5 -24.5s-67.834 -10.5 -102.501 -10.5c-77.333 0 -132.666 20 -165.999 60s-50 106 -50 198c0 88.667 17.333 153.167 52 193.5s90 60.5 166 60.5c70.667 0 121.334 -15.833 152.001 -47.5
s46 -84.5 46 -158.5c0 -13.333 -0.333008 -25.666 -1 -36.999s-2 -25 -4 -41h-328c0.666992 -54.667 11.834 -93.667 33.501 -117s59.167 -35 112.5 -35c28.667 0 58.667 2.66699 90 8s56.666 12 75.999 20zM382.999 308.999c-0.666992 44 -10.334 75.167 -29.001 93.5
s-50 27.5 -94 27.5c-49.333 0 -84.166 -10.5 -104.499 -31.5s-30.5 -57.833 -30.5 -110.5h257c0 1.33301 0.166992 4.5 0.5 9.5s0.5 8.83301 0.5 11.5zM309.999 563.999h-100v78h100v-78z" />
    <glyph glyph-name="Eogonek" unicode="&#x118;" horiz-adv-x="523" 
d="M488 0h-53c-40 -8 -72.833 -20.833 -98.5 -38.5s-38.5 -37.5 -38.5 -59.5c0 -14.667 4.83301 -25.667 14.5 -33s24.167 -11 43.5 -11c9.33301 0 19.5 0.833008 30.5 2.5s20.5 3.5 28.5 5.5v-59c-21.333 -4.66699 -37.5 -7.66699 -48.5 -9s-21.5 -2 -31.5 -2
c-34 0 -60.167 7.83301 -78.5 23.5s-27.5 38.167 -27.5 67.5c0 24.667 7.83301 46.5 23.5 65.5s39.167 34.833 70.5 47.5h-251v627h407v-77h-322v-192h285v-75h-285v-203h331v-80z" />
    <glyph glyph-name="eogonek" unicode="&#x119;" horiz-adv-x="498" 
d="M437 96l-0.00292969 -69.002c-5.33301 -2.66699 -11.666 -5.5 -18.999 -8.5s-15.333 -5.5 -24 -7.5c-48 -25.333 -80.833 -47.666 -98.5 -66.999s-26.5 -40 -26.5 -62c0 -14.667 5.16699 -26 15.5 -34s24.833 -12 43.5 -12c8.66699 0 18.667 0.833008 30 2.5
s22 3.83398 32 6.50098v-54c-12 -3.33301 -25 -6 -39 -8s-27.333 -3 -40 -3c-33.333 0 -59 7.83301 -77 23.5s-27 37.5 -27 65.5c0 22.667 7.16699 44.667 21.5 66s34.833 40.666 61.5 57.999c-4 -0.666992 -8.16699 -1 -12.5 -1h-19.5c-77.333 0 -132.666 20 -165.999 60
s-50 106 -50 198c0 88.667 17.333 153.167 52 193.5s90 60.5 166 60.5c70.667 0 121.334 -15.833 152.001 -47.5s46 -84.5 46 -158.5c0 -13.333 -0.333008 -25.666 -1 -36.999s-2 -25 -4 -41h-328c0.666992 -54.667 11.834 -93.667 33.501 -117s59.167 -35 112.5 -35
c28.667 0 58.667 2.66699 90 8s56.666 12 75.999 20zM382.997 308.998c-0.666992 44 -10.334 75.167 -29.001 93.5s-50 27.5 -94 27.5c-49.333 0 -84.166 -10.5 -104.499 -31.5s-30.5 -57.833 -30.5 -110.5h257c0 1.33301 0.166992 4.5 0.5 9.5s0.5 8.83301 0.5 11.5z" />
    <glyph glyph-name="Ecaron" unicode="&#x11a;" horiz-adv-x="523" 
d="M488 80v-80h-416v627h407v-77h-322v-192h285v-75h-285v-203h331zM123 791h74l88 -63l86 63h75l-119 -112h-85z" />
    <glyph glyph-name="ecaron" unicode="&#x11b;" horiz-adv-x="498" 
d="M437 96l-0.000976562 -69.001c-17.333 -9.33301 -42.833 -17.5 -76.5 -24.5s-67.834 -10.5 -102.501 -10.5c-77.333 0 -132.666 20 -165.999 60s-50 106 -50 198c0 88.667 17.333 153.167 52 193.5s90 60.5 166 60.5c70.667 0 121.334 -15.833 152.001 -47.5
s46 -84.5 46 -158.5c0 -13.333 -0.333008 -25.666 -1 -36.999s-2 -25 -4 -41h-328c0.666992 -54.667 11.834 -93.667 33.501 -117s59.167 -35 112.5 -35c28.667 0 58.667 2.66699 90 8s56.666 12 75.999 20zM382.999 308.999c-0.666992 44 -10.334 75.167 -29.001 93.5
s-50 27.5 -94 27.5c-49.333 0 -84.166 -10.5 -104.499 -31.5s-30.5 -57.833 -30.5 -110.5h257c0 1.33301 0.166992 4.5 0.5 9.5s0.5 8.83301 0.5 11.5zM98.999 685.999h74l88 -73l86 73h75l-119 -122h-85z" />
    <glyph glyph-name="Gcircumflex" unicode="&#x11c;" horiz-adv-x="596" 
d="M470 257h-163v75h243v-302c-18.667 -8.66699 -52 -17.167 -100 -25.5s-91.667 -12.5 -131 -12.5c-103.333 0 -174.833 24.333 -214.5 73s-59.5 131.667 -59.5 249c0 110.667 23.667 192.167 71 244.5s121.666 78.5 222.999 78.5c34.667 0 67.834 -0.833008 99.501 -2.5
s57.5 -4.16699 77.5 -7.5v-75c-26.667 2.66699 -55.5 4.66699 -86.5 6s-61.167 2 -90.5 2c-76 0 -129.5 -18.667 -160.5 -56s-46.5 -100.666 -46.5 -189.999c0 -44 2.5 -80.833 7.5 -110.5s13.167 -53.5 24.5 -71.5c13.333 -22.667 32.333 -38.834 57 -48.501
s60.667 -14.5 108 -14.5c18.667 0 40.667 1.5 66 4.5s50.333 7.16699 75 12.5v171zM495 689h-74l-88 63l-86 -63h-75l119 112h85z" />
    <glyph glyph-name="gcircumflex" unicode="&#x11d;" horiz-adv-x="538" 
d="M267 -162c-33.333 0 -64.499 2.16895 -93.499 6.50195s-52.833 10.166 -71.5 17.499v73c15.333 -6 37.833 -11 67.5 -15s59.167 -6 88.5 -6c50 0 84.667 9.83301 104 29.5s29 54.5 29 104.5v31c-24.667 -14.667 -51 -25.834 -79 -33.501s-56.333 -11.5 -85 -11.5
c-66 0 -113.167 18.333 -141.5 55s-42.5 96.667 -42.5 180c0 84.667 18.167 145 54.5 181s98.166 54 185.499 54c31.333 0 65 -1.83301 101 -5.5s65.667 -8.16699 89 -13.5v-414c0 -86.667 -15.333 -147.167 -46 -181.5s-84 -51.5 -160 -51.5zM283.001 430.002
c-64 0 -106.335 -10.999 -127.002 -32.999s-31 -64.667 -31 -128c0 -60 8.83301 -101.5 26.5 -124.5s51.834 -34.5 102.501 -34.5c22 0 44.833 3.16699 68.5 9.5s46.5 15.166 68.5 26.499v273c-16 3.33301 -33.167 6 -51.5 8s-37.166 3 -56.499 3zM435.999 564.003h-74
l-88 73l-86 -73h-75l119 122h85z" />
    <glyph glyph-name="Gbreve" unicode="&#x11e;" horiz-adv-x="596" 
d="M470 257h-163v75h243v-302c-18.667 -8.66699 -52 -17.167 -100 -25.5s-91.667 -12.5 -131 -12.5c-103.333 0 -174.833 24.333 -214.5 73s-59.5 131.667 -59.5 249c0 110.667 23.667 192.167 71 244.5s121.666 78.5 222.999 78.5c34.667 0 67.834 -0.833008 99.501 -2.5
s57.5 -4.16699 77.5 -7.5v-75c-26.667 2.66699 -55.5 4.66699 -86.5 6s-61.167 2 -90.5 2c-76 0 -129.5 -18.667 -160.5 -56s-46.5 -100.666 -46.5 -189.999c0 -44 2.5 -80.833 7.5 -110.5s13.167 -53.5 24.5 -71.5c13.333 -22.667 32.333 -38.834 57 -48.501
s60.667 -14.5 108 -14.5c18.667 0 40.667 1.5 66 4.5s50.333 7.16699 75 12.5v171zM415 801h58c0 -36.667 -12.5 -65.667 -37.5 -87s-59.167 -32 -102.5 -32c-44 0 -78.5 10.667 -103.5 32s-37.5 50.333 -37.5 87h58c0 -20 7.33301 -35.667 22 -47s35 -17 61 -17
c25.333 0 45.333 5.83301 60 17.5s22 27.167 22 46.5z" />
    <glyph glyph-name="gbreve" unicode="&#x11f;" horiz-adv-x="538" 
d="M267 -162c-33.333 0 -64.499 2.16895 -93.499 6.50195s-52.833 10.166 -71.5 17.499v73c15.333 -6 37.833 -11 67.5 -15s59.167 -6 88.5 -6c50 0 84.667 9.83301 104 29.5s29 54.5 29 104.5v31c-24.667 -14.667 -51 -25.834 -79 -33.501s-56.333 -11.5 -85 -11.5
c-66 0 -113.167 18.333 -141.5 55s-42.5 96.667 -42.5 180c0 84.667 18.167 145 54.5 181s98.166 54 185.499 54c31.333 0 65 -1.83301 101 -5.5s65.667 -8.16699 89 -13.5v-414c0 -86.667 -15.333 -147.167 -46 -181.5s-84 -51.5 -160 -51.5zM283.001 430.002
c-64 0 -106.335 -10.999 -127.002 -32.999s-31 -64.667 -31 -128c0 -60 8.83301 -101.5 26.5 -124.5s51.834 -34.5 102.501 -34.5c22 0 44.833 3.16699 68.5 9.5s46.5 15.166 68.5 26.499v273c-16 3.33301 -33.167 6 -51.5 8s-37.166 3 -56.499 3zM355.999 686.003h58
c0 -39.333 -12.5 -70.666 -37.5 -93.999s-59.167 -35 -102.5 -35c-44 0 -78.5 11.667 -103.5 35s-37.5 54.666 -37.5 93.999h58c0 -22.667 7.33301 -40.5 22 -53.5s35 -19.5 61 -19.5c25.333 0 45.333 6.66699 60 20s22 31 22 53z" />
    <glyph glyph-name="Gdotaccent" unicode="&#x120;" horiz-adv-x="596" 
d="M470 257h-163v75h243v-302c-18.667 -8.66699 -52 -17.167 -100 -25.5s-91.667 -12.5 -131 -12.5c-103.333 0 -174.833 24.333 -214.5 73s-59.5 131.667 -59.5 249c0 110.667 23.667 192.167 71 244.5s121.666 78.5 222.999 78.5c34.667 0 67.834 -0.833008 99.501 -2.5
s57.5 -4.16699 77.5 -7.5v-75c-26.667 2.66699 -55.5 4.66699 -86.5 6s-61.167 2 -90.5 2c-76 0 -129.5 -18.667 -160.5 -56s-46.5 -100.666 -46.5 -189.999c0 -44 2.5 -80.833 7.5 -110.5s13.167 -53.5 24.5 -71.5c13.333 -22.667 32.333 -38.834 57 -48.501
s60.667 -14.5 108 -14.5c18.667 0 40.667 1.5 66 4.5s50.333 7.16699 75 12.5v171zM372 689h-80v72h80v-72z" />
    <glyph glyph-name="gdotaccent" unicode="&#x121;" horiz-adv-x="538" 
d="M267 -162c-33.333 0 -64.499 2.16895 -93.499 6.50195s-52.833 10.166 -71.5 17.499v73c15.333 -6 37.833 -11 67.5 -15s59.167 -6 88.5 -6c50 0 84.667 9.83301 104 29.5s29 54.5 29 104.5v31c-24.667 -14.667 -51 -25.834 -79 -33.501s-56.333 -11.5 -85 -11.5
c-66 0 -113.167 18.333 -141.5 55s-42.5 96.667 -42.5 180c0 84.667 18.167 145 54.5 181s98.166 54 185.499 54c31.333 0 65 -1.83301 101 -5.5s65.667 -8.16699 89 -13.5v-414c0 -86.667 -15.333 -147.167 -46 -181.5s-84 -51.5 -160 -51.5zM283.001 430.002
c-64 0 -106.335 -10.999 -127.002 -32.999s-31 -64.667 -31 -128c0 -60 8.83301 -101.5 26.5 -124.5s51.834 -34.5 102.501 -34.5c22 0 44.833 3.16699 68.5 9.5s46.5 15.166 68.5 26.499v273c-16 3.33301 -33.167 6 -51.5 8s-37.166 3 -56.499 3zM322.999 564.003h-100v78
h100v-78z" />
    <glyph glyph-name="uni0122" unicode="&#x122;" horiz-adv-x="596" 
d="M470 257h-163v75h243v-302c-18.667 -8.66699 -52 -17.167 -100 -25.5s-91.667 -12.5 -131 -12.5c-103.333 0 -174.833 24.333 -214.5 73s-59.5 131.667 -59.5 249c0 110.667 23.667 192.167 71 244.5s121.666 78.5 222.999 78.5c34.667 0 67.834 -0.833008 99.501 -2.5
s57.5 -4.16699 77.5 -7.5v-75c-26.667 2.66699 -55.5 4.66699 -86.5 6s-61.167 2 -90.5 2c-76 0 -129.5 -18.667 -160.5 -56s-46.5 -100.666 -46.5 -189.999c0 -44 2.5 -80.833 7.5 -110.5s13.167 -53.5 24.5 -71.5c13.333 -22.667 32.333 -38.834 57 -48.501
s60.667 -14.5 108 -14.5c18.667 0 40.667 1.5 66 4.5s50.333 7.16699 75 12.5v171zM365 -63l-20 -125c-2 -11.333 -6.33301 -20 -13 -26s-15.667 -9 -27 -9h-26l4 160h82z" />
    <glyph glyph-name="uni0123" unicode="&#x123;" horiz-adv-x="538" 
d="M267 -162c-33.333 0 -64.499 2.16895 -93.499 6.50195s-52.833 10.166 -71.5 17.499v73c15.333 -6 37.833 -11 67.5 -15s59.167 -6 88.5 -6c50 0 84.667 9.83301 104 29.5s29 54.5 29 104.5v31c-24.667 -14.667 -51 -25.834 -79 -33.501s-56.333 -11.5 -85 -11.5
c-66 0 -113.167 18.333 -141.5 55s-42.5 96.667 -42.5 180c0 84.667 18.167 145 54.5 181s98.166 54 185.499 54c31.333 0 65 -1.83301 101 -5.5s65.667 -8.16699 89 -13.5v-414c0 -86.667 -15.333 -147.167 -46 -181.5s-84 -51.5 -160 -51.5zM283.001 430.002
c-64 0 -106.335 -10.999 -127.002 -32.999s-31 -64.667 -31 -128c0 -60 8.83301 -101.5 26.5 -124.5s51.834 -34.5 102.501 -34.5c22 0 44.833 3.16699 68.5 9.5s46.5 15.166 68.5 26.499v273c-16 3.33301 -33.167 6 -51.5 8s-37.166 3 -56.499 3zM233.999 564.003l20 125
c1.33301 11.333 5.5 20 12.5 26s16.167 9 27.5 9h26l-4 -160h-82z" />
    <glyph glyph-name="Hcircumflex" unicode="&#x124;" horiz-adv-x="642" 
d="M157 0h-85v627h85v-270h328v270h85v-627h-85v279h-328v-279zM483 679h-74l-88 63l-86 -63h-75l119 112h85z" />
    <glyph glyph-name="hcircumflex" unicode="&#x125;" horiz-adv-x="553" 
d="M148 0l-82.001 -0.000976562v665h82v-211c30 16.667 59.833 29.167 89.5 37.5s59.167 12.5 88.5 12.5c54.667 0 95.834 -13.667 123.501 -41s41.5 -67.666 41.5 -120.999v-342h-82v332c0 34 -8.83301 58.833 -26.5 74.5s-45.167 23.5 -82.5 23.5
c-24.667 0 -50.167 -3.33301 -76.5 -10s-51.5 -16 -75.5 -28v-392zM268.999 714.999h-74l-88 63l-86 -63h-75l119 112h85z" />
    <glyph glyph-name="Hbar" unicode="&#x126;" horiz-adv-x="678" 
d="M175 0h-85v468h-64v57h64v102h85v-102h328v102h85v-102h64v-57h-64v-468h-85v279h-328v-279zM175 468v-111h328v111h-328z" />
    <glyph glyph-name="hbar" unicode="&#x127;" horiz-adv-x="553" 
d="M148 0l-82.001 -0.000976562v565h-70v49h70v51h82v-51h177v-49h-177v-111c30 16.667 59.833 29.167 89.5 37.5s59.167 12.5 88.5 12.5c54.667 0 95.834 -13.667 123.501 -41s41.5 -67.666 41.5 -120.999v-342h-82v332c0 34 -8.83301 58.833 -26.5 74.5
s-45.167 23.5 -82.5 23.5c-24.667 0 -50.167 -3.33301 -76.5 -10s-51.5 -16 -75.5 -28v-392z" />
    <glyph glyph-name="Itilde" unicode="&#x128;" horiz-adv-x="229" 
d="M157 627v-627h-85v627h85zM206 780h55.9971c0 -32.667 -6.83301 -58.334 -20.5 -77.001s-33.5 -28 -59.5 -28c-12 0 -23.833 2.16699 -35.5 6.5s-26.5 12.833 -44.5 25.5c-12.667 8.66699 -22 14.334 -28 17.001s-11.667 4 -17 4c-10.667 0 -19 -4.33301 -25 -13
s-9 -20.667 -9 -36h-56c0 32.667 7 58.334 21 77.001s34 28 60 28c12 0 23.833 -2.16699 35.5 -6.5s26.834 -12.833 45.501 -25.5c12.667 -8.66699 21.834 -14.334 27.501 -17.001s11.167 -4 16.5 -4c10.667 0 18.834 4.33301 24.501 13s8.5 20.667 8.5 36z" />
    <glyph glyph-name="itilde" unicode="&#x129;" horiz-adv-x="214" 
d="M148 0h-82v494h82v-494zM198 674l56 0.00195312c0 -38.667 -6.83301 -69 -20.5 -91s-33.5 -33 -59.5 -33c-12 0 -24 2.83301 -36 8.5s-27.333 16.834 -46 33.501c-12.667 12 -22 19.667 -28 23s-11.667 5 -17 5c-10.667 0 -18.667 -5.33301 -24 -16
s-8 -27.334 -8 -50.001h-56c0 38.667 7 69 21 91s34 33 60 33c12 0 24 -2.83301 36 -8.5s27.333 -16.834 46 -33.501c13.333 -12 23 -19.667 29 -23s11.667 -5 17 -5c10 0 17.5 5.16699 22.5 15.5s7.5 27.166 7.5 50.499z" />
    <glyph glyph-name="Imacron" unicode="&#x12a;" horiz-adv-x="229" 
d="M157 627v-627h-85v627h85zM237 743v-59h-245v59h245z" />
    <glyph glyph-name="imacron" unicode="&#x12b;" horiz-adv-x="214" 
d="M148 0h-82v494h82v-494zM229 623v-64h-245v64h245z" />
    <glyph glyph-name="Ibreve" unicode="&#x12c;" horiz-adv-x="229" 
d="M157 627v-627h-85v627h85zM197 791h58c0 -36.667 -12.5 -65.667 -37.5 -87s-59.167 -32 -102.5 -32c-44 0 -78.5 10.667 -103.5 32s-37.5 50.333 -37.5 87h58c0 -20 7.33301 -35.667 22 -47s35 -17 61 -17c25.333 0 45.333 5.83301 60 17.5s22 27.167 22 46.5z" />
    <glyph glyph-name="ibreve" unicode="&#x12d;" horiz-adv-x="214" 
d="M148 0h-82v494h82v-494zM189 676h58c0 -39.333 -12.5 -70.666 -37.5 -93.999s-59.167 -35 -102.5 -35c-44 0 -78.5 11.667 -103.5 35s-37.5 54.666 -37.5 93.999h58c0 -22.667 7.33301 -40.5 22 -53.5s35 -19.5 61 -19.5c25.333 0 45.333 6.66699 60 20s22 31 22 53z" />
    <glyph glyph-name="Iogonek" unicode="&#x12e;" horiz-adv-x="230" 
d="M158 0l-1 -0.000976562c-40 -8 -72.833 -20.833 -98.5 -38.5s-38.5 -37.5 -38.5 -59.5c0 -14.667 4.83301 -25.667 14.5 -33s24.167 -11 43.5 -11c9.33301 0 19.5 0.833008 30.5 2.5s20.5 3.5 28.5 5.5v-59c-21.333 -4.66699 -37.5 -7.66699 -48.5 -9s-21.5 -2 -31.5 -2
c-34 0 -60.167 7.83301 -78.5 23.5s-27.5 38.167 -27.5 67.5c0 28.667 10.333 53.334 31 74.001s51 37 91 49v617h85v-627z" />
    <glyph glyph-name="iogonek" unicode="&#x12f;" horiz-adv-x="216" 
d="M153 580h-88v85h88v-85zM150 494v-494c-40 -8 -72.833 -20.833 -98.5 -38.5s-38.5 -37.5 -38.5 -59.5c0 -14.667 4.83301 -25.667 14.5 -33s24.167 -11 43.5 -11c9.33301 0 19.5 0.833008 30.5 2.5s20.5 3.5 28.5 5.5v-59c-21.333 -4.66699 -37.5 -7.66699 -48.5 -9
s-21.5 -2 -31.5 -2c-34 0 -60.167 7.83301 -78.5 23.5s-27.5 38.167 -27.5 67.5c0 28.667 10.667 53.5 32 74.5s52 37.167 92 48.5v484h82z" />
    <glyph glyph-name="Idotaccent" unicode="&#x130;" horiz-adv-x="229" 
d="M157 627v-627h-85v627h85zM154 679h-80v72h80v-72z" />
    <glyph glyph-name="dotlessi" unicode="&#x131;" horiz-adv-x="214" 
d="M148 0h-82v494h82v-494z" />
    <glyph glyph-name="IJ" unicode="&#x132;" horiz-adv-x="666" 
d="M157 627v-627h-85v627h85zM514 234v393.001h85v-398c0 -82.667 -18 -142.834 -54 -180.501s-94.333 -56.5 -175 -56.5c-22.667 0 -43.667 1 -63 3s-37 5.33301 -53 10v78c18.667 -4 36.167 -6.83301 52.5 -8.5s33.833 -2.5 52.5 -2.5c58 0 98.333 12 121 36s34 66 34 126
z" />
    <glyph glyph-name="ij" unicode="&#x133;" horiz-adv-x="464" 
d="M151 580h-88v85h88v-85zM148 0h-82v494h82v-494zM401 580h-88v85h88v-85zM241 -162c-12.667 0 -24.166 0.333008 -34.499 1s-22.833 2.33398 -37.5 5.00098v72c14 -2 24.167 -3.16699 30.5 -3.5s12.166 -0.5 17.499 -0.5c36 0 61.5 7.66699 76.5 23
s22.5 41.666 22.5 78.999v480h82v-489c0 -55.333 -13.167 -97 -39.5 -125s-65.5 -42 -117.5 -42z" />
    <glyph glyph-name="Jcircumflex" unicode="&#x134;" horiz-adv-x="429" 
d="M277 234v393.001h85v-398c0 -82.667 -18 -142.834 -54 -180.501s-94.333 -56.5 -175 -56.5c-22.667 0 -43.667 1 -63 3s-37 5.33301 -53 10v78c18.667 -4 36.167 -6.83301 52.5 -8.5s33.833 -2.5 52.5 -2.5c58 0 98.333 12 121 36s34 66 34 126zM482 679.001h-74l-88 63
l-86 -63h-75l119 112h85z" />
    <glyph glyph-name="jcircumflex" unicode="&#x135;" horiz-adv-x="223" 
d="M0 -162c-12.667 0 -24.166 0.333008 -34.499 1s-22.833 2.33398 -37.5 5.00098v72c14 -2 24.167 -3.16699 30.5 -3.5s12.166 -0.5 17.499 -0.5c36 0 61.5 7.66699 76.5 23s22.5 41.666 22.5 78.999v480h82v-489c0 -55.333 -13.167 -97 -39.5 -125s-65.5 -42 -117.5 -42z
M278.001 554h-74l-88 73l-86 -73h-75l119 122h85z" />
    <glyph glyph-name="uni0136" unicode="&#x136;" horiz-adv-x="579" 
d="M312 321l266 -321h-110l-229 281h-82v-281h-85v627h85v-271h82l225 271h104zM322 -63l-20 -125c-2 -11.333 -6.33301 -20 -13 -26s-15.667 -9 -27 -9h-26l4 160h82z" />
    <glyph glyph-name="uni0137" unicode="&#x137;" horiz-adv-x="493" 
d="M148 214v-214h-82v665h82v-380h59l173 209h99l-205 -240l215 -254h-103l-176 214h-62zM294 -63l-20 -125c-2 -11.333 -6.33301 -20 -13 -26s-15.667 -9 -27 -9h-26l4 160h82z" />
    <glyph glyph-name="Lacute" unicode="&#x139;" horiz-adv-x="472" 
d="M456 80v-80h-384v627h85v-547h299zM145 791h104l-129 -112h-76z" />
    <glyph glyph-name="lacute" unicode="&#x13a;" horiz-adv-x="214" 
d="M148 665v-665h-82v665h82zM137 827h104l-129 -112h-76z" />
    <glyph glyph-name="uni013B" unicode="&#x13b;" horiz-adv-x="472" 
d="M456 80v-80h-384v627h85v-547h299zM313 -63l-20 -125c-2 -11.333 -6.33301 -20 -13 -26s-15.667 -9 -27 -9h-26l4 160h82z" />
    <glyph glyph-name="uni013C" unicode="&#x13c;" horiz-adv-x="214" 
d="M148 665v-665h-82v665h82zM146 -63l-20 -125c-2 -11.333 -6.33301 -20 -13 -26s-15.667 -9 -27 -9h-26l4 160h82z" />
    <glyph glyph-name="Lcaron" unicode="&#x13d;" horiz-adv-x="475" 
d="M456 80v-80h-384v627h85v-547h299zM422 627l-20.002 -137c-1.33301 -10.667 -5.66602 -19.167 -12.999 -25.5s-16.666 -9.5 -27.999 -9.5h-25l4 172h82z" />
    <glyph glyph-name="lcaron" unicode="&#x13e;" horiz-adv-x="235" 
d="M148 665v-665h-82v665h82zM300 665l-20.002 -137c-1.33301 -10.667 -5.66602 -19.167 -12.999 -25.5s-16.666 -9.5 -27.999 -9.5h-25l4 172h82z" />
    <glyph glyph-name="Ldot" unicode="&#x13f;" horiz-adv-x="473" 
d="M456 80v-80h-384v627h85v-547h299zM381 317h-82v83h82v-83z" />
    <glyph glyph-name="ldot" unicode="&#x140;" horiz-adv-x="324" 
d="M148 665v-665h-82v665h82zM305 302h-82v83h82v-83z" />
    <glyph glyph-name="Lslash" unicode="&#x141;" horiz-adv-x="503" 
d="M486 80v-80h-384v279l-70 -20v61l70 20v287h85v-263l181 52v-61l-181 -52v-223h299z" />
    <glyph glyph-name="lslash" unicode="&#x142;" horiz-adv-x="285" 
d="M176 307v-307h-82v282l-64 -19v60l64 19v323h82v-298l88 27v-60z" />
    <glyph glyph-name="Nacute" unicode="&#x143;" horiz-adv-x="657" 
d="M585 627v-627h-86l-347 488v-488h-80v627h86l347 -495v495h80zM364 791h104l-129 -112h-76z" />
    <glyph glyph-name="nacute" unicode="&#x144;" horiz-adv-x="554" 
d="M148 0h-81.999v494h71l4 -48h3c26.667 20 54.5 34.667 83.5 44s61.5 14 97.5 14c54.667 0 96.167 -13.667 124.5 -41s42.5 -67.666 42.5 -120.999v-342h-82v332c0 33.333 -9.33301 58 -28 74s-47.334 24 -86.001 24c-24 0 -48.5 -3.83301 -73.5 -11.5
s-49.833 -18.834 -74.5 -33.501v-385zM311.001 686h104l-131 -122h-76z" />
    <glyph glyph-name="uni0145" unicode="&#x145;" horiz-adv-x="657" 
d="M585 627v-627h-86l-347 488v-488h-80v627h86l347 -495v495h80zM369 -63l-20 -125c-2 -11.333 -6.33301 -20 -13 -26s-15.667 -9 -27 -9h-26l4 160h82z" />
    <glyph glyph-name="uni0146" unicode="&#x146;" horiz-adv-x="554" 
d="M148 0h-81.999v494h71l4 -48h3c26.667 20 54.5 34.667 83.5 44s61.5 14 97.5 14c54.667 0 96.167 -13.667 124.5 -41s42.5 -67.666 42.5 -120.999v-342h-82v332c0 33.333 -9.33301 58 -28 74s-47.334 24 -86.001 24c-24 0 -48.5 -3.83301 -73.5 -11.5
s-49.833 -18.834 -74.5 -33.501v-385zM317.001 -63l-20 -125c-2 -11.333 -6.33301 -20 -13 -26s-15.667 -9 -27 -9h-26l4 160h82z" />
    <glyph glyph-name="Ncaron" unicode="&#x147;" horiz-adv-x="657" 
d="M585 627v-627h-86l-347 488v-488h-80v627h86l347 -495v495h80zM172 791h74l88 -63l86 63h75l-119 -112h-85z" />
    <glyph glyph-name="ncaron" unicode="&#x148;" horiz-adv-x="554" 
d="M148 0h-81.999v494h71l4 -48h3c26.667 20 54.5 34.667 83.5 44s61.5 14 97.5 14c54.667 0 96.167 -13.667 124.5 -41s42.5 -67.666 42.5 -120.999v-342h-82v332c0 33.333 -9.33301 58 -28 74s-47.334 24 -86.001 24c-24 0 -48.5 -3.83301 -73.5 -11.5
s-49.833 -18.834 -74.5 -33.501v-385zM117.001 686h74l88 -73l86 73h75l-119 -122h-85z" />
    <glyph glyph-name="napostrophe" unicode="&#x149;" horiz-adv-x="554" 
d="M148 0h-81.999v494h71l4 -48h3c26.667 20 54.5 34.667 83.5 44s61.5 14 97.5 14c54.667 0 96.167 -13.667 124.5 -41s42.5 -67.666 42.5 -120.999v-342h-82v332c0 33.333 -9.33301 58 -28 74s-47.334 24 -86.001 24c-24 0 -48.5 -3.83301 -73.5 -11.5
s-49.833 -18.834 -74.5 -33.501v-385zM53.001 665l-20.002 -137c-1.33301 -10.667 -5.66602 -19.167 -12.999 -25.5s-16.666 -9.5 -27.999 -9.5h-25l4 172h82z" />
    <glyph glyph-name="Eng" unicode="&#x14a;" horiz-adv-x="657" 
d="M585 627l0.00195312 -618.001c0 -54.667 -13.5 -97.167 -40.5 -127.5s-64.833 -45.5 -113.5 -45.5c-12 0 -23 0.333008 -33 1s-24 2.33398 -42 5.00098v71c8 -1.33301 15.833 -2.33301 23.5 -3s16.167 -1 25.5 -1c33.333 0 57.666 7.33301 72.999 22
s23.666 38.667 24.999 72l-351 485v-488h-80v627h86l347 -486v486h80z" />
    <glyph glyph-name="eng" unicode="&#x14b;" horiz-adv-x="554" 
d="M148 0l-81.9971 -0.00292969v494h71l4 -46h3c26 19.333 53.333 33.5 82 42.5s61.667 13.5 99 13.5c54.667 0 96.167 -13.667 124.5 -41s42.5 -67.666 42.5 -120.999v-337c0 -55.333 -13.167 -97 -39.5 -125s-65.5 -42 -117.5 -42c-12.667 0 -24.167 0.333008 -34.5 1
s-22.833 2.33398 -37.5 5.00098v72c14 -2 24.167 -3.16699 30.5 -3.5s12.166 -0.5 17.499 -0.5c35.333 0 60.666 7.83301 75.999 23.5s23 41.834 23 78.501v318c0 33.333 -9.33301 58 -28 74s-47.334 24 -86.001 24c-23.333 0 -47.333 -3.83301 -72 -11.5
s-50 -19.167 -76 -34.5v-384z" />
    <glyph glyph-name="Omacron" unicode="&#x14c;" horiz-adv-x="649" 
d="M604 315c0 -114 -21.832 -196.333 -65.499 -247s-114.834 -76 -213.501 -76c-106 0 -179.167 23.5 -219.5 70.5s-60.5 131.167 -60.5 252.5c0 113.333 22 195.333 66 246s115.333 76 214 76c106 0 179 -23.5 219 -70.5s60 -130.833 60 -251.5zM161.001 134
c12.667 -22.667 31.332 -38.6689 55.999 -48.002s60.667 -14 108 -14c74 0 124.667 17.833 152 53.5s41 98.834 41 189.501c0 45.333 -2.33301 82.5 -7 111.5s-12 52.5 -22 70.5c-12.667 22.667 -31.167 38.834 -55.5 48.501s-60.5 14.5 -108.5 14.5
c-74.667 0 -125.667 -18 -153 -54s-41 -99.667 -41 -191c0 -45.333 2.33301 -82.5 7 -111.5s12.334 -52.167 23.001 -69.5zM446.999 752.998v-59h-245v59h245z" />
    <glyph glyph-name="omacron" unicode="&#x14d;" horiz-adv-x="543" 
d="M500 248c0 -93.333 -17.168 -159.333 -51.501 -198s-93.166 -58 -176.499 -58c-86 0 -145.667 18.667 -179 56s-50 104 -50 200c0 94 17.167 160.167 51.5 198.5s93.5 57.5 177.5 57.5c86 0 145.5 -18.667 178.5 -56s49.5 -104 49.5 -200zM124.999 249
c0 -73.333 9.66797 -121.833 29.001 -145.5s58.666 -35.5 117.999 -35.5c57.333 0 96 12.5 116 37.5s30 72.833 30 143.5c0 73.333 -9.5 121.833 -28.5 145.5s-58.167 35.5 -117.5 35.5c-58 0 -97 -12.333 -117 -37s-30 -72.667 -30 -144zM394 633v-64h-245v64h245z" />
    <glyph glyph-name="Obreve" unicode="&#x14e;" horiz-adv-x="649" 
d="M604 315c0 -114 -21.832 -196.333 -65.499 -247s-114.834 -76 -213.501 -76c-106 0 -179.167 23.5 -219.5 70.5s-60.5 131.167 -60.5 252.5c0 113.333 22 195.333 66 246s115.333 76 214 76c106 0 179 -23.5 219 -70.5s60 -130.833 60 -251.5zM161.001 134
c12.667 -22.667 31.332 -38.6689 55.999 -48.002s60.667 -14 108 -14c74 0 124.667 17.833 152 53.5s41 98.834 41 189.501c0 45.333 -2.33301 82.5 -7 111.5s-12 52.5 -22 70.5c-12.667 22.667 -31.167 38.834 -55.5 48.501s-60.5 14.5 -108.5 14.5
c-74.667 0 -125.667 -18 -153 -54s-41 -99.667 -41 -191c0 -45.333 2.33301 -82.5 7 -111.5s12.334 -52.167 23.001 -69.5zM406.999 810.998h58c0 -39.333 -12.5 -70.666 -37.5 -93.999s-59.167 -35 -102.5 -35c-44 0 -78.5 11.667 -103.5 35s-37.5 54.666 -37.5 93.999h58
c0 -22.667 7.33301 -40.5 22 -53.5s35 -19.5 61 -19.5c25.333 0 45.333 6.66699 60 20s22 31 22 53z" />
    <glyph glyph-name="obreve" unicode="&#x14f;" horiz-adv-x="543" 
d="M500 248c0 -93.333 -17.168 -159.333 -51.501 -198s-93.166 -58 -176.499 -58c-86 0 -145.667 18.667 -179 56s-50 104 -50 200c0 94 17.167 160.167 51.5 198.5s93.5 57.5 177.5 57.5c86 0 145.5 -18.667 178.5 -56s49.5 -104 49.5 -200zM124.999 249
c0 -73.333 9.66797 -121.833 29.001 -145.5s58.666 -35.5 117.999 -35.5c57.333 0 96 12.5 116 37.5s30 72.833 30 143.5c0 73.333 -9.5 121.833 -28.5 145.5s-58.167 35.5 -117.5 35.5c-58 0 -97 -12.333 -117 -37s-30 -72.667 -30 -144zM354 686h58
c0 -39.333 -12.5 -70.666 -37.5 -93.999s-59.167 -35 -102.5 -35c-44 0 -78.5 11.667 -103.5 35s-37.5 54.666 -37.5 93.999h58c0 -22.667 7.33301 -40.5 22 -53.5s35 -19.5 61 -19.5c25.333 0 45.333 6.66699 60 20s22 31 22 53z" />
    <glyph glyph-name="Ohungarumlaut" unicode="&#x150;" horiz-adv-x="649" 
d="M604 315c0 -114 -21.832 -196.333 -65.499 -247s-114.834 -76 -213.501 -76c-106 0 -179.167 23.5 -219.5 70.5s-60.5 131.167 -60.5 252.5c0 113.333 22 195.333 66 246s115.333 76 214 76c106 0 179 -23.5 219 -70.5s60 -130.833 60 -251.5zM161.001 134
c12.667 -22.667 31.332 -38.6689 55.999 -48.002s60.667 -14 108 -14c74 0 124.667 17.833 152 53.5s41 98.834 41 189.501c0 45.333 -2.33301 82.5 -7 111.5s-12 52.5 -22 70.5c-12.667 22.667 -31.167 38.834 -55.5 48.501s-60.5 14.5 -108.5 14.5
c-74.667 0 -125.667 -18 -153 -54s-41 -99.667 -41 -191c0 -45.333 2.33301 -82.5 7 -111.5s12.334 -52.167 23.001 -69.5zM269.999 800.998h96l-124 -112h-72zM447.999 800.998h95l-123 -112h-73z" />
    <glyph glyph-name="ohungarumlaut" unicode="&#x151;" horiz-adv-x="543" 
d="M500 248c0 -93.333 -17.168 -159.333 -51.501 -198s-93.166 -58 -176.499 -58c-86 0 -145.667 18.667 -179 56s-50 104 -50 200c0 94 17.167 160.167 51.5 198.5s93.5 57.5 177.5 57.5c86 0 145.5 -18.667 178.5 -56s49.5 -104 49.5 -200zM124.999 249
c0 -73.333 9.66797 -121.833 29.001 -145.5s58.666 -35.5 117.999 -35.5c57.333 0 96 12.5 116 37.5s30 72.833 30 143.5c0 73.333 -9.5 121.833 -28.5 145.5s-58.167 35.5 -117.5 35.5c-58 0 -97 -12.333 -117 -37s-30 -72.667 -30 -144zM219 686h96l-126 -122h-72z
M398 686h95l-125 -122h-73z" />
    <glyph glyph-name="OE" unicode="&#x152;" horiz-adv-x="879" 
d="M311 -8c-102 0 -171.832 23.002 -209.499 69.002s-56.5 130.667 -56.5 254c0 115.333 20.5 197.833 61.5 247.5s109.167 74.5 204.5 74.5c21.333 0 40.666 -0.833008 57.999 -2.5s33.333 -4.16699 48 -7.5h418v-77h-303c13.333 -20.667 23.5 -46.834 30.5 -78.501
s11.167 -69.834 12.5 -114.501h223v-73h-222c-1.33301 -45.333 -6.33301 -84.833 -15 -118.5s-21 -62.167 -37 -85.5h320v-80h-447c-14 -2.66699 -28.167 -4.66699 -42.5 -6s-28.833 -2 -43.5 -2zM155.001 137.002c11.333 -23.333 28.501 -40 51.501 -50
s57.833 -15 104.5 -15c69.333 0 116.5 17.333 141.5 52s37.5 98.334 37.5 191.001c0 45.333 -1.83301 82.166 -5.5 110.499s-9.83398 51.166 -18.501 68.499c-10.667 24 -27.5 41 -50.5 51s-57.833 15 -104.5 15c-70 0 -117.5 -17.5 -142.5 -52.5
s-37.5 -99.167 -37.5 -192.5c0 -44.667 2 -81.167 6 -109.5s10 -51.166 18 -68.499z" />
    <glyph glyph-name="oe" unicode="&#x153;" horiz-adv-x="840" 
d="M445 84c-14.667 -32 -36.333 -55.332 -65 -69.999s-67 -22 -115 -22c-83.333 0 -141.166 18.5 -173.499 55.5s-48.5 103.833 -48.5 200.5c0 93.333 16.667 159.333 50 198s90.666 58 171.999 58c50.667 0 90.334 -7.16699 119.001 -21.5s49.667 -37.5 63 -69.5
c14 30.667 34.5 53.5 61.5 68.5s61.5 22.5 103.5 22.5c67.333 0 115.333 -15.833 144 -47.5s43 -84.5 43 -158.5c0 -16.667 -0.333008 -30.834 -1 -42.501s-1.66699 -23.5 -3 -35.5h-309c0.666992 -54.667 11.167 -93.667 31.5 -117s55.5 -35 105.5 -35
c26.667 0 54.667 2.83301 84 8.5s53 12.167 71 19.5v-69c-16 -9.33301 -40 -17.5 -72 -24.5s-64.333 -10.5 -97 -10.5c-42.667 0 -77.334 7.5 -104.001 22.5s-46.667 38.167 -60 69.5zM125.001 249.001c0 -73.333 9.16699 -121.833 27.5 -145.5s55.833 -35.5 112.5 -35.5
c54.667 0 91.5 12.333 110.5 37s28.5 72.667 28.5 144c0 73.333 -9.16699 121.833 -27.5 145.5s-55.5 35.5 -111.5 35.5c-55.333 0 -92.5 -12.5 -111.5 -37.5s-28.5 -72.833 -28.5 -143.5zM724.001 309.001c-0.666992 44 -9.5 75.167 -26.5 93.5s-45.5 27.5 -85.5 27.5
c-46 0 -78.5 -10.667 -97.5 -32s-28.5 -58 -28.5 -110h237c0.666992 2 1 4.5 1 7.5v13.5z" />
    <glyph glyph-name="Racute" unicode="&#x154;" horiz-adv-x="579" 
d="M157 225l-0.000976562 -225.001h-85v627h213c88.667 0 152.167 -15.167 190.5 -45.5s57.5 -80.5 57.5 -150.5c0 -54.667 -12.167 -98.167 -36.5 -130.5s-61.166 -54.166 -110.499 -65.499l164 -235h-102l-152 225h-139zM446.999 430.999
c0 42.667 -12.3311 73.167 -36.998 91.5s-66.334 27.5 -125.001 27.5h-128v-250h128c57.333 0 98.666 10.333 123.999 31s38 54 38 100zM313.001 790.999h104l-129 -112h-76z" />
    <glyph glyph-name="racute" unicode="&#x155;" horiz-adv-x="353" 
d="M148 0l-82 0.000976562v494h75l4 -42h4c26 15.333 52 26.833 78 34.5s51.667 11.5 77 11.5h21.5c3.66699 0 6.5 -0.333008 8.5 -1v-79c-4.66699 1.33301 -10.5 2.16602 -17.5 2.49902s-17.833 0.5 -32.5 0.5c-24 0 -47.5 -2.83301 -70.5 -8.5
s-44.833 -14.167 -65.5 -25.5v-387zM232 681.001h104l-131 -122h-76z" />
    <glyph glyph-name="uni0156" unicode="&#x156;" horiz-adv-x="579" 
d="M157 225l-0.000976562 -225.001h-85v627h213c88.667 0 152.167 -15.167 190.5 -45.5s57.5 -80.5 57.5 -150.5c0 -54.667 -12.167 -98.167 -36.5 -130.5s-61.166 -54.166 -110.499 -65.499l164 -235h-102l-152 225h-139zM446.999 430.999
c0 42.667 -12.3311 73.167 -36.998 91.5s-66.334 27.5 -125.001 27.5h-128v-250h128c57.333 0 98.666 10.333 123.999 31s38 54 38 100zM325.001 -63.001l-20 -125c-2 -11.333 -6.33301 -20 -13 -26s-15.667 -9 -27 -9h-26l4 160h82z" />
    <glyph glyph-name="uni0157" unicode="&#x157;" horiz-adv-x="353" 
d="M148 0l-82 0.000976562v494h75l4 -42h4c26 15.333 52 26.833 78 34.5s51.667 11.5 77 11.5h21.5c3.66699 0 6.5 -0.333008 8.5 -1v-79c-4.66699 1.33301 -10.5 2.16602 -17.5 2.49902s-17.833 0.5 -32.5 0.5c-24 0 -47.5 -2.83301 -70.5 -8.5
s-44.833 -14.167 -65.5 -25.5v-387zM145 -62.999l-20 -125c-2 -11.333 -6.33301 -20 -13 -26s-15.667 -9 -27 -9h-26l4 160h82z" />
    <glyph glyph-name="Rcaron" unicode="&#x158;" horiz-adv-x="579" 
d="M157 225l-0.000976562 -225.001h-85v627h213c88.667 0 152.167 -15.167 190.5 -45.5s57.5 -80.5 57.5 -150.5c0 -54.667 -12.167 -98.167 -36.5 -130.5s-61.166 -54.166 -110.499 -65.499l164 -235h-102l-152 225h-139zM446.999 430.999
c0 42.667 -12.3311 73.167 -36.998 91.5s-66.334 27.5 -125.001 27.5h-128v-250h128c57.333 0 98.666 10.333 123.999 31s38 54 38 100zM121.001 790.999h74l88 -63l86 63h75l-119 -112h-85z" />
    <glyph glyph-name="rcaron" unicode="&#x159;" horiz-adv-x="353" 
d="M148 0l-82 0.000976562v494h75l4 -42h4c26 15.333 52 26.833 78 34.5s51.667 11.5 77 11.5h21.5c3.66699 0 6.5 -0.333008 8.5 -1v-79c-4.66699 1.33301 -10.5 2.16602 -17.5 2.49902s-17.833 0.5 -32.5 0.5c-24 0 -47.5 -2.83301 -70.5 -8.5
s-44.833 -14.167 -65.5 -25.5v-387zM38 681.001h74l88 -73l86 73h75l-119 -122h-85z" />
    <glyph glyph-name="Sacute" unicode="&#x15a;" horiz-adv-x="504" 
d="M314 263l-151.999 35.999c-42 10 -72.333 27.167 -91 51.5s-28 58.166 -28 101.499c0 63.333 18.167 110 54.5 140s92.833 45 169.5 45c32 0 60.833 -1.5 86.5 -4.5s49.5 -7.5 71.5 -13.5v-77c-28 6.66699 -54.667 11.334 -80 14.001s-51.666 4 -78.999 4
c-51.333 0 -87.333 -7.5 -108 -22.5s-31 -41.5 -31 -79.5c0 -24 4.83301 -42.167 14.5 -54.5s25.5 -21.166 47.5 -26.499l151 -36c53.333 -12.667 88.833 -30.5 106.5 -53.5s26.5 -58.5 26.5 -106.5c0 -68.667 -17.833 -117.334 -53.5 -146.001s-92.167 -43 -169.5 -43
c-40.667 0 -79.834 2.66699 -117.501 8s-67.5 12.333 -89.5 21v80c31.333 -9.33301 64.666 -16.5 99.999 -21.5s71 -7.5 107 -7.5c50 0 85 7.33301 105 22s30 43 30 85c0 26 -4.83301 44.833 -14.5 56.5s-28.5 20.834 -56.5 27.501zM286.001 800.999h104l-129 -112h-76z" />
    <glyph glyph-name="sacute" unicode="&#x15b;" horiz-adv-x="439" 
d="M236 430c-42.667 0 -72.168 -5.00098 -88.501 -15.001s-24.5 -30.333 -24.5 -61c0 -16 3.83301 -28.167 11.5 -36.5s19.834 -13.833 36.501 -16.5l127 -19c40 -6 68 -18.5 84 -37.5s24 -48.833 24 -89.5c0 -57.333 -13.667 -98.833 -41 -124.5
s-72.666 -38.5 -135.999 -38.5c-38 0 -73.333 2 -106 6s-59.667 9.33301 -81 16v77c21.333 -6.66699 47.5 -12.167 78.5 -16.5s62.833 -6.5 95.5 -6.5c41.333 0 69.666 6 84.999 18s23 33.333 23 64c0 19.333 -4.33301 33.5 -13 42.5s-24.334 15.167 -47.001 18.5l-127 19
c-32 4.66699 -55.833 17 -71.5 37s-23.834 49 -24.501 87c0 52 15.5 90 46.5 114s78.833 36 143.5 36c26.667 0 50.834 -0.666992 72.501 -2s44.5 -4 68.5 -8v-73c-17.333 2.66699 -37.666 4.83398 -60.999 6.50098s-48.333 2.5 -75 2.5zM255.999 685.999h104l-131 -122h-76
z" />
    <glyph glyph-name="Scircumflex" unicode="&#x15c;" horiz-adv-x="504" 
d="M314 263l-151.999 35.999c-42 10 -72.333 27.167 -91 51.5s-28 58.166 -28 101.499c0 63.333 18.167 110 54.5 140s92.833 45 169.5 45c32 0 60.833 -1.5 86.5 -4.5s49.5 -7.5 71.5 -13.5v-77c-28 6.66699 -54.667 11.334 -80 14.001s-51.666 4 -78.999 4
c-51.333 0 -87.333 -7.5 -108 -22.5s-31 -41.5 -31 -79.5c0 -24 4.83301 -42.167 14.5 -54.5s25.5 -21.166 47.5 -26.499l151 -36c53.333 -12.667 88.833 -30.5 106.5 -53.5s26.5 -58.5 26.5 -106.5c0 -68.667 -17.833 -117.334 -53.5 -146.001s-92.167 -43 -169.5 -43
c-40.667 0 -79.834 2.66699 -117.501 8s-67.5 12.333 -89.5 21v80c31.333 -9.33301 64.666 -16.5 99.999 -21.5s71 -7.5 107 -7.5c50 0 85 7.33301 105 22s30 43 30 85c0 26 -4.83301 44.833 -14.5 56.5s-28.5 20.834 -56.5 27.501zM418.001 688.999h-74l-88 73l-86 -73h-75
l119 122h85z" />
    <glyph glyph-name="scircumflex" unicode="&#x15d;" horiz-adv-x="439" 
d="M236 430c-42.667 0 -72.168 -5.00098 -88.501 -15.001s-24.5 -30.333 -24.5 -61c0 -16 3.83301 -28.167 11.5 -36.5s19.834 -13.833 36.501 -16.5l127 -19c40 -6 68 -18.5 84 -37.5s24 -48.833 24 -89.5c0 -57.333 -13.667 -98.833 -41 -124.5
s-72.666 -38.5 -135.999 -38.5c-38 0 -73.333 2 -106 6s-59.667 9.33301 -81 16v77c21.333 -6.66699 47.5 -12.167 78.5 -16.5s62.833 -6.5 95.5 -6.5c41.333 0 69.666 6 84.999 18s23 33.333 23 64c0 19.333 -4.33301 33.5 -13 42.5s-24.334 15.167 -47.001 18.5l-127 19
c-32 4.66699 -55.833 17 -71.5 37s-23.834 49 -24.501 87c0 52 15.5 90 46.5 114s78.833 36 143.5 36c26.667 0 50.834 -0.666992 72.501 -2s44.5 -4 68.5 -8v-73c-17.333 2.66699 -37.666 4.83398 -60.999 6.50098s-48.333 2.5 -75 2.5zM385.999 563.999h-74l-88 73
l-86 -73h-75l119 122h85z" />
    <glyph glyph-name="Scedilla" unicode="&#x15e;" horiz-adv-x="504" 
d="M314 263l-152 36.002c-42 10 -72.333 27.167 -91 51.5s-28 58.166 -28 101.499c0 63.333 18.167 110 54.5 140s92.833 45 169.5 45c32 0 60.833 -1.5 86.5 -4.5s49.5 -7.5 71.5 -13.5v-77c-28 6.66699 -54.667 11.334 -80 14.001s-51.666 4 -78.999 4
c-51.333 0 -87.333 -7.5 -108 -22.5s-31 -41.5 -31 -79.5c0 -24 4.83301 -42.167 14.5 -54.5s25.5 -21.166 47.5 -26.499l151 -36c53.333 -12.667 88.833 -30.5 106.5 -53.5s26.5 -58.5 26.5 -106.5c0 -66 -16.5 -113.5 -49.5 -142.5s-85.167 -44.5 -156.5 -46.5l-8 -39
c36 1.33301 63.333 -3.83398 82 -15.501s28 -29.167 28 -52.5c0 -27.333 -8.83301 -47.5 -26.5 -60.5s-46.167 -19.5 -85.5 -19.5c-22 0 -43.333 1.16699 -64 3.5s-34.667 5.16602 -42 8.49902v51c7.33301 -2.66699 20.166 -5.16699 38.499 -7.5s36.5 -3.5 54.5 -3.5
c19.333 0 32.833 2.16699 40.5 6.5s11.5 12.166 11.5 23.499c0 9.33301 -4.66699 16.166 -14 20.499s-24.666 6.5 -45.999 6.5c-8 0 -18 -0.333008 -30 -1s-18.333 -1 -19 -1l16 81c-32 2 -62.333 5.5 -91 10.5s-51.667 10.833 -69 17.5v80
c31.333 -9.33301 64.666 -16.5 99.999 -21.5s71 -7.5 107 -7.5c50 0 85 7.33301 105 22s30 43 30 85c0 26 -4.83301 44.833 -14.5 56.5s-28.5 20.834 -56.5 27.501z" />
    <glyph glyph-name="scedilla" unicode="&#x15f;" horiz-adv-x="439" 
d="M342 -115c0 -27.333 -8.83496 -47.498 -26.502 -60.498s-46.167 -19.5 -85.5 -19.5c-22 0 -43.333 1.16699 -64 3.5s-34.667 5.16602 -42 8.49902v51c7.33301 -2.66699 20.166 -5.16699 38.499 -7.5s36.5 -3.5 54.5 -3.5c19.333 0 32.833 2.16699 40.5 6.5
s11.5 12.166 11.5 23.499c0 9.33301 -4.66699 16.166 -14 20.499s-24.666 6.5 -45.999 6.5c-8 0 -18 -0.333008 -30 -1s-18.333 -1 -19 -1l16 81c-27.333 2 -52.666 4.83301 -75.999 8.5s-42.666 7.83398 -57.999 12.501v77c21.333 -6.66699 47.5 -12.167 78.5 -16.5
s62.833 -6.5 95.5 -6.5c41.333 0 69.666 6 84.999 18s23 33.333 23 64c0 19.333 -4.33301 33.5 -13 42.5s-24.334 15.167 -47.001 18.5l-127 19c-32 4.66699 -55.833 17 -71.5 37s-23.834 49 -24.501 87c0 52 15.5 90 46.5 114s78.833 36 143.5 36
c26.667 0 50.834 -0.666992 72.501 -2s44.5 -4 68.5 -8v-73c-17.333 2.66699 -37.666 4.83398 -60.999 6.50098s-48.333 2.5 -75 2.5c-42.667 0 -72.167 -5 -88.5 -15s-24.5 -30.333 -24.5 -61c0 -16 3.83301 -28.167 11.5 -36.5s19.834 -13.833 36.501 -16.5l127 -19
c40 -6 68 -18.5 84 -37.5s24 -48.833 24 -89.5c0 -55.333 -12.833 -95.833 -38.5 -121.5s-68.167 -39.5 -127.5 -41.5l-8 -39c36 1.33301 63.333 -3.83398 82 -15.501s28 -29.167 28 -52.5z" />
    <glyph glyph-name="Scaron" unicode="&#x160;" horiz-adv-x="504" 
d="M314 263l-151.999 35.999c-42 10 -72.333 27.167 -91 51.5s-28 58.166 -28 101.499c0 63.333 18.167 110 54.5 140s92.833 45 169.5 45c32 0 60.833 -1.5 86.5 -4.5s49.5 -7.5 71.5 -13.5v-77c-28 6.66699 -54.667 11.334 -80 14.001s-51.666 4 -78.999 4
c-51.333 0 -87.333 -7.5 -108 -22.5s-31 -41.5 -31 -79.5c0 -24 4.83301 -42.167 14.5 -54.5s25.5 -21.166 47.5 -26.499l151 -36c53.333 -12.667 88.833 -30.5 106.5 -53.5s26.5 -58.5 26.5 -106.5c0 -68.667 -17.833 -117.334 -53.5 -146.001s-92.167 -43 -169.5 -43
c-40.667 0 -79.834 2.66699 -117.501 8s-67.5 12.333 -89.5 21v80c31.333 -9.33301 64.666 -16.5 99.999 -21.5s71 -7.5 107 -7.5c50 0 85 7.33301 105 22s30 43 30 85c0 26 -4.83301 44.833 -14.5 56.5s-28.5 20.834 -56.5 27.501zM94.001 800.999h74l88 -63l86 63h75
l-119 -112h-85z" />
    <glyph glyph-name="scaron" unicode="&#x161;" horiz-adv-x="439" 
d="M236 430c-42.667 0 -72.168 -5.00098 -88.501 -15.001s-24.5 -30.333 -24.5 -61c0 -16 3.83301 -28.167 11.5 -36.5s19.834 -13.833 36.501 -16.5l127 -19c40 -6 68 -18.5 84 -37.5s24 -48.833 24 -89.5c0 -57.333 -13.667 -98.833 -41 -124.5
s-72.666 -38.5 -135.999 -38.5c-38 0 -73.333 2 -106 6s-59.667 9.33301 -81 16v77c21.333 -6.66699 47.5 -12.167 78.5 -16.5s62.833 -6.5 95.5 -6.5c41.333 0 69.666 6 84.999 18s23 33.333 23 64c0 19.333 -4.33301 33.5 -13 42.5s-24.334 15.167 -47.001 18.5l-127 19
c-32 4.66699 -55.833 17 -71.5 37s-23.834 49 -24.501 87c0 52 15.5 90 46.5 114s78.833 36 143.5 36c26.667 0 50.834 -0.666992 72.501 -2s44.5 -4 68.5 -8v-73c-17.333 2.66699 -37.666 4.83398 -60.999 6.50098s-48.333 2.5 -75 2.5zM61.999 685.999h74l88 -73l86 73h75
l-119 -122h-85z" />
    <glyph glyph-name="uni0162" unicode="&#x162;" horiz-adv-x="531" 
d="M516 627v-77h-208v-550h-85v550h-208v77h501zM305 -63l-20 -125c-2 -11.333 -6.33301 -20 -13 -26s-15.667 -9 -27 -9h-26l4 160h82z" />
    <glyph glyph-name="uni0163" unicode="&#x163;" horiz-adv-x="371" 
d="M356 77v-68.999c-10.667 -4.66699 -25.167 -8.5 -43.5 -11.5s-35.833 -4.5 -52.5 -4.5c-60 0 -102.833 13.333 -128.5 40s-38.5 72.667 -38.5 138v254h-74v70h75l13 120h68v-120h176v-70h-176v-251c0 -40.667 7.5 -68.334 22.5 -83.001s41.5 -22 79.5 -22
c12 0 25.833 1 41.5 3s28.167 4 37.5 6zM272 -62.999l-20 -125c-2 -11.333 -6.33301 -20 -13 -26s-15.667 -9 -27 -9h-26l4 160h82z" />
    <glyph glyph-name="Tcaron" unicode="&#x164;" horiz-adv-x="531" 
d="M516 627v-77h-208v-550h-85v550h-208v77h501zM104 791h74l88 -63l86 63h75l-119 -112h-85z" />
    <glyph glyph-name="tcaron" unicode="&#x165;" horiz-adv-x="371" 
d="M356 77v-68.999c-10.667 -4.66699 -25.167 -8.5 -43.5 -11.5s-35.833 -4.5 -52.5 -4.5c-60 0 -102.833 13.333 -128.5 40s-38.5 72.667 -38.5 138v254h-74v70h75l13 120h68v-120h176v-70h-176v-251c0 -40.667 7.5 -68.334 22.5 -83.001s41.5 -22 79.5 -22
c12 0 25.833 1 41.5 3s28.167 4 37.5 6zM327 720.001l-20.002 -137c-1.33301 -10.667 -5.66602 -19.167 -12.999 -25.5s-16.666 -9.5 -27.999 -9.5h-25l4 172h82z" />
    <glyph glyph-name="Tbar" unicode="&#x166;" horiz-adv-x="547" 
d="M476 340v-59h-160v-281h-85v281h-160v59h160v210h-208v77h501v-77h-208v-210h160z" />
    <glyph glyph-name="tbar" unicode="&#x167;" horiz-adv-x="382" 
d="M363 77v-68.999c-10.667 -4.66699 -25.167 -8.5 -43.5 -11.5s-35.833 -4.5 -52.5 -4.5c-60 0 -102.833 13.333 -128.5 40s-38.5 72.667 -38.5 138v76h-73v59h73v119h-74v70h75l13 120h68v-120h176v-70h-176v-119h176v-59h-176v-73c0 -40.667 7.5 -68.334 22.5 -83.001
s41.5 -22 79.5 -22c12 0 25.833 1 41.5 3s28.167 4 37.5 6z" />
    <glyph glyph-name="Utilde" unicode="&#x168;" horiz-adv-x="633" 
d="M482 250l0.000976562 377h85v-377c0 -88 -20.5 -153 -61.5 -195s-104.5 -63 -190.5 -63c-86.667 0 -149.834 20.5 -189.501 61.5s-59.5 106.5 -59.5 196.5v377h85v-377c0 -66 12.167 -112.167 36.5 -138.5s66.833 -39.5 127.5 -39.5c61.333 0 104.5 13.167 129.5 39.5
s37.5 72.5 37.5 138.5zM405.001 780h55.9971c0 -32.667 -6.83301 -58.334 -20.5 -77.001s-33.5 -28 -59.5 -28c-12 0 -23.833 2.16699 -35.5 6.5s-26.5 12.833 -44.5 25.5c-12.667 8.66699 -22 14.334 -28 17.001s-11.667 4 -17 4c-10.667 0 -19 -4.33301 -25 -13
s-9 -20.667 -9 -36h-56c0 32.667 7 58.334 21 77.001s34 28 60 28c12 0 23.833 -2.16699 35.5 -6.5s26.834 -12.833 45.501 -25.5c12.667 -8.66699 21.834 -14.334 27.501 -17.001s11.167 -4 16.5 -4c10.667 0 18.834 4.33301 24.501 13s8.5 20.667 8.5 36z" />
    <glyph glyph-name="utilde" unicode="&#x169;" horiz-adv-x="538" 
d="M226 -8c-54.667 0 -95.666 13.667 -122.999 41s-41 68.333 -41 123v338h82v-328c0 -34 8.66699 -58.667 26 -74s44.666 -23 81.999 -23c22.667 0 45.5 2.83301 68.5 8.5s46.167 14.5 69.5 26.5v390h82v-494h-75l-4 41h-2c-34.667 -18 -64.667 -30.667 -90 -38
s-50.333 -11 -75 -11zM360.001 674l56 0.00195312c0 -38.667 -6.83301 -69 -20.5 -91s-33.5 -33 -59.5 -33c-12 0 -24 2.83301 -36 8.5s-27.333 16.834 -46 33.501c-12.667 12 -22 19.667 -28 23s-11.667 5 -17 5c-10.667 0 -18.667 -5.33301 -24 -16s-8 -27.334 -8 -50.001
h-56c0 38.667 7 69 21 91s34 33 60 33c12 0 24 -2.83301 36 -8.5s27.333 -16.834 46 -33.501c13.333 -12 23 -19.667 29 -23s11.667 -5 17 -5c10 0 17.5 5.16699 22.5 15.5s7.5 27.166 7.5 50.499z" />
    <glyph glyph-name="Umacron" unicode="&#x16a;" horiz-adv-x="633" 
d="M482 250l0.000976562 377h85v-377c0 -88 -20.5 -153 -61.5 -195s-104.5 -63 -190.5 -63c-86.667 0 -149.834 20.5 -189.501 61.5s-59.5 106.5 -59.5 196.5v377h85v-377c0 -66 12.167 -112.167 36.5 -138.5s66.833 -39.5 127.5 -39.5c61.333 0 104.5 13.167 129.5 39.5
s37.5 72.5 37.5 138.5zM436.001 743v-59h-245v59h245z" />
    <glyph glyph-name="umacron" unicode="&#x16b;" horiz-adv-x="538" 
d="M226 -8c-54.667 0 -95.666 13.667 -122.999 41s-41 68.333 -41 123v338h82v-328c0 -34 8.66699 -58.667 26 -74s44.666 -23 81.999 -23c22.667 0 45.5 2.83301 68.5 8.5s46.167 14.5 69.5 26.5v390h82v-494h-75l-4 41h-2c-34.667 -18 -64.667 -30.667 -90 -38
s-50.333 -11 -75 -11zM391.001 623v-64h-245v64h245z" />
    <glyph glyph-name="Ubreve" unicode="&#x16c;" horiz-adv-x="633" 
d="M482 250l0.000976562 377h85v-377c0 -88 -20.5 -153 -61.5 -195s-104.5 -63 -190.5 -63c-86.667 0 -149.834 20.5 -189.501 61.5s-59.5 106.5 -59.5 196.5v377h85v-377c0 -66 12.167 -112.167 36.5 -138.5s66.833 -39.5 127.5 -39.5c61.333 0 104.5 13.167 129.5 39.5
s37.5 72.5 37.5 138.5zM396.001 791h58c0 -36.667 -12.5 -65.667 -37.5 -87s-59.167 -32 -102.5 -32c-44 0 -78.5 10.667 -103.5 32s-37.5 50.333 -37.5 87h58c0 -20 7.33301 -35.667 22 -47s35 -17 61 -17c25.333 0 45.333 5.83301 60 17.5s22 27.167 22 46.5z" />
    <glyph glyph-name="ubreve" unicode="&#x16d;" horiz-adv-x="538" 
d="M226 -8c-54.667 0 -95.666 13.667 -122.999 41s-41 68.333 -41 123v338h82v-328c0 -34 8.66699 -58.667 26 -74s44.666 -23 81.999 -23c22.667 0 45.5 2.83301 68.5 8.5s46.167 14.5 69.5 26.5v390h82v-494h-75l-4 41h-2c-34.667 -18 -64.667 -30.667 -90 -38
s-50.333 -11 -75 -11zM351.001 676h58c0 -39.333 -12.5 -70.666 -37.5 -93.999s-59.167 -35 -102.5 -35c-44 0 -78.5 11.667 -103.5 35s-37.5 54.666 -37.5 93.999h58c0 -22.667 7.33301 -40.5 22 -53.5s35 -19.5 61 -19.5c25.333 0 45.333 6.66699 60 20s22 31 22 53z" />
    <glyph glyph-name="Uring" unicode="&#x16e;" horiz-adv-x="633" 
d="M482 250l0.000976562 377h85v-377c0 -88 -20.5 -153 -61.5 -195s-104.5 -63 -190.5 -63c-86.667 0 -149.834 20.5 -189.501 61.5s-59.5 106.5 -59.5 196.5v377h85v-377c0 -66 12.167 -112.167 36.5 -138.5s66.833 -39.5 127.5 -39.5c61.333 0 104.5 13.167 129.5 39.5
s37.5 72.5 37.5 138.5zM427.001 757c0 -25.333 -10.167 -45.666 -30.5 -60.999s-47.833 -23 -82.5 -23c-34 0 -61.167 7.66699 -81.5 23s-30.5 35.666 -30.5 60.999c0 24.667 10.167 44.334 30.5 59.001s47.5 22 81.5 22c34.667 0 62.167 -7.33301 82.5 -22
s30.5 -34.334 30.5 -59.001zM253.001 757c0 -12.667 5.5 -22.5 16.5 -29.5s25.833 -10.5 44.5 -10.5c19.333 0 34.666 3.66699 45.999 11s17 17 17 29s-5.66699 21.333 -17 28s-26.666 10 -45.999 10s-34.333 -3.33301 -45 -10s-16 -16 -16 -28z" />
    <glyph glyph-name="uring" unicode="&#x16f;" horiz-adv-x="538" 
d="M226 -8c-54.667 0 -95.666 13.667 -122.999 41s-41 68.333 -41 123v338h82v-328c0 -34 8.66699 -58.667 26 -74s44.666 -23 81.999 -23c22.667 0 45.5 2.83301 68.5 8.5s46.167 14.5 69.5 26.5v390h82v-494h-75l-4 41h-2c-34.667 -18 -64.667 -30.667 -90 -38
s-50.333 -11 -75 -11zM382.001 629c0 -29.333 -10.167 -52.666 -30.5 -69.999s-47.833 -26 -82.5 -26s-62 8.66699 -82 26s-30 40.666 -30 69.999c0 28 10.167 50.333 30.5 67s47.5 25 81.5 25c34.667 0 62.167 -8.33301 82.5 -25s30.5 -39 30.5 -67zM208.001 629
c0 -15.333 5.33203 -27.166 15.999 -35.499s25.667 -12.5 45 -12.5c20 0 35.5 4.16699 46.5 12.5s16.5 20.166 16.5 35.499c0 14 -5.66699 25.167 -17 33.5s-26.666 12.5 -45.999 12.5s-34.333 -4.16699 -45 -12.5s-16 -19.5 -16 -33.5z" />
    <glyph glyph-name="Uhungarumlaut" unicode="&#x170;" horiz-adv-x="633" 
d="M482 250l0.000976562 377h85v-377c0 -88 -20.5 -153 -61.5 -195s-104.5 -63 -190.5 -63c-86.667 0 -149.834 20.5 -189.501 61.5s-59.5 106.5 -59.5 196.5v377h85v-377c0 -66 12.167 -112.167 36.5 -138.5s66.833 -39.5 127.5 -39.5c61.333 0 104.5 13.167 129.5 39.5
s37.5 72.5 37.5 138.5zM259.001 791h96l-124 -112h-72zM437.001 791h95l-123 -112h-73z" />
    <glyph glyph-name="uhungarumlaut" unicode="&#x171;" horiz-adv-x="538" 
d="M226 -8c-54.667 0 -95.666 13.667 -122.999 41s-41 68.333 -41 123v338h82v-328c0 -34 8.66699 -58.667 26 -74s44.666 -23 81.999 -23c22.667 0 45.5 2.83301 68.5 8.5s46.167 14.5 69.5 26.5v390h82v-494h-75l-4 41h-2c-34.667 -18 -64.667 -30.667 -90 -38
s-50.333 -11 -75 -11zM216.001 676h96l-126 -122h-72zM395.001 676h95l-125 -122h-73z" />
    <glyph glyph-name="Uogonek" unicode="&#x172;" horiz-adv-x="633" 
d="M482 250l0.00195312 376.999h85v-377c0 -61.333 -9.83301 -111.333 -29.5 -150s-49.5 -66.667 -89.5 -84c-42.667 -22.667 -72.334 -43.5 -89.001 -62.5s-25 -39.167 -25 -60.5c0 -14.667 5.16699 -26 15.5 -34s24.833 -12 43.5 -12c8.66699 0 18.667 0.833008 30 2.5
s22 3.83398 32 6.50098v-54c-12 -3.33301 -25 -6 -39 -8s-27.333 -3 -40 -3c-33.333 0 -59 7.83301 -77 23.5s-27 37.5 -27 65.5c0 20.667 5.5 40.5 16.5 59.5s27.5 36.833 49.5 53.5c-2.66699 -0.666992 -5.5 -1 -8.5 -1h-14.5c-86.667 0 -149.834 20.5 -189.501 61.5
s-59.5 106.5 -59.5 196.5v377h85v-377c0 -66 12.167 -112.167 36.5 -138.5s66.833 -39.5 127.5 -39.5c61.333 0 104.5 13.167 129.5 39.5s37.5 72.5 37.5 138.5z" />
    <glyph glyph-name="uogonek" unicode="&#x173;" horiz-adv-x="538" 
d="M226 -8c-54.667 0 -95.666 13.667 -122.999 41s-41 68.333 -41 123v338h82v-328c0 -34 8.66699 -58.667 26 -74s44.666 -23 81.999 -23c22.667 0 45.5 2.83301 68.5 8.5s46.167 14.5 69.5 26.5v390h82v-494c-40 -8 -72.833 -20.833 -98.5 -38.5s-38.5 -37.5 -38.5 -59.5
c0 -14.667 4.83301 -25.667 14.5 -33s24.167 -11 43.5 -11c9.33301 0 19.5 0.833008 30.5 2.5s20.5 3.5 28.5 5.5v-59c-21.333 -4.66699 -37.5 -7.66699 -48.5 -9s-21.5 -2 -31.5 -2c-34 0 -60.167 7.83301 -78.5 23.5s-27.5 38.167 -27.5 67.5s11 54.5 33 75.5
s54.333 37.5 97 49.5l-3 29h-2c-34.667 -18 -64.667 -30.667 -90 -38s-50.333 -11 -75 -11z" />
    <glyph glyph-name="Wcircumflex" unicode="&#x174;" horiz-adv-x="854" 
d="M187 0l-174 626.999h92l104 -397c2.66699 -10.667 5.5 -23.167 8.5 -37.5s9.83301 -51.166 20.5 -110.499c12 60.667 19.667 98 23 112s6.33301 26 9 36l114 397h89l115 -397l9 -35c3.33301 -13.333 11 -50.333 23 -111c7.33301 40.667 13.5 73.167 18.5 97.5
s8.5 40.5 10.5 48.5l103 397h89l-174 -627h-96l-101 336c-7.33301 24.667 -14.333 51 -21 79s-14 61.333 -22 100c-8 -38.667 -15.333 -72 -22 -100s-13.667 -54.333 -21 -79l-100 -336h-97zM590 678.999h-74l-88 63l-86 -63h-75l119 112h85z" />
    <glyph glyph-name="wcircumflex" unicode="&#x175;" horiz-adv-x="709" 
d="M603 494h89l-137 -494h-96l-108 385l-101 -385h-96l-137 494h90l96 -417l107 417h82l114 -417zM512 554h-74l-88 73l-86 -73h-75l119 122h85z" />
    <glyph glyph-name="Ycircumflex" unicode="&#x176;" horiz-adv-x="575" 
d="M476 627h88l-233 -389v-238h-85v238l-239 389h96l187 -313zM452 679h-74l-88 63l-86 -63h-75l119 112h85z" />
    <glyph glyph-name="ycircumflex" unicode="&#x177;" horiz-adv-x="495" 
d="M111 -88c25.333 0 44.499 5.5 57.499 16.5s26.833 37.167 41.5 78.5l-202 487h92l152 -405l144 405h88l-202 -527c-18 -48 -39 -81.5 -63 -100.5s-55 -28.5 -93 -28.5c-11.333 0 -23.166 0.666992 -35.499 2s-24.5 3 -36.5 5v72c7.33301 -2 15.5 -3.33301 24.5 -4
s19.833 -1 32.5 -1zM414.999 554h-74l-88 73l-86 -73h-75l119 122h85z" />
    <glyph glyph-name="Ydieresis" unicode="&#x178;" horiz-adv-x="575" 
d="M476 627h88l-233 -389v-238h-85v238l-239 389h96l187 -313zM420 751v-72h-82v72h82zM243 751v-72h-83v72h83z" />
    <glyph glyph-name="Zacute" unicode="&#x179;" horiz-adv-x="508" 
d="M485 80v-80h-461v80l346 470h-317v77h413v-77l-345 -470h364zM291 791h104l-129 -112h-76z" />
    <glyph glyph-name="zacute" unicode="&#x17a;" horiz-adv-x="426" 
d="M400 72v-72h-371v72l261 352h-243v70h336v-70l-261 -352h278zM248 676h104l-131 -122h-76z" />
    <glyph glyph-name="Zdotaccent" unicode="&#x17b;" horiz-adv-x="508" 
d="M485 80v-80h-461v80l346 470h-317v77h413v-77l-345 -470h364zM300 679h-80v72h80v-72z" />
    <glyph glyph-name="zdotaccent" unicode="&#x17c;" horiz-adv-x="426" 
d="M400 72v-72h-371v72l261 352h-243v70h336v-70l-261 -352h278zM265 554h-100v78h100v-78z" />
    <glyph glyph-name="Zcaron" unicode="&#x17d;" horiz-adv-x="508" 
d="M485 80v-80h-461v80l346 470h-317v77h413v-77l-345 -470h364zM99 791h74l88 -63l86 63h75l-119 -112h-85z" />
    <glyph glyph-name="zcaron" unicode="&#x17e;" horiz-adv-x="426" 
d="M400 72v-72h-371v72l261 352h-243v70h336v-70l-261 -352h278zM54 676h74l88 -73l86 73h75l-119 -122h-85z" />
    <glyph glyph-name="uni018F" unicode="&#x18f;" horiz-adv-x="595" 
d="M266 637c102 0 174.835 -24.667 218.502 -74s65.5 -132.333 65.5 -249c0 -113.333 -20.833 -195.333 -62.5 -246s-109.834 -76 -204.501 -76c-82.667 0 -144.167 20.667 -184.5 62s-60.5 104.333 -60.5 189c0 16 0.333008 31.333 1 46s2.33398 36.667 5.00098 66h418
c-4 76 -21.167 129.167 -51.5 159.5s-81.5 45.5 -153.5 45.5c-26.667 0 -52.834 -1.66699 -78.501 -5s-52.834 -9 -81.501 -17v75c23.333 8 49.333 14 78 18s59 6 91 6zM122.002 232c0 -55.333 13.5 -96.333 40.5 -123s68.167 -40 123.5 -40c62 0 106.167 16 132.5 48
s40.833 86.333 43.5 163h-338l-1.5 -28c-0.333008 -6 -0.5 -12.667 -0.5 -20z" />
    <glyph glyph-name="florin" unicode="&#x192;" horiz-adv-x="420" 
d="M111 303h-73.999v72h85l16 98c10 62.667 28 105.5 54 128.5s66.333 34.5 121 34.5c8 0 19.167 -0.666992 33.5 -2s32.166 -3.33301 53.499 -6v-73c-8.66699 2 -20 3.5 -34 4.5s-28 1.5 -42 1.5c-32.667 0 -56.167 -6.5 -70.5 -19.5s-24.833 -40.167 -31.5 -81.5l-14 -85
h167v-72h-178l-74 -455h-85z" />
    <glyph glyph-name="uni01B5" unicode="&#x1b5;" horiz-adv-x="522" 
d="M492 80v-80h-461v80l157 213h-134v60h178l145 197h-317v77h413v-77l-145 -197h143v-60h-187l-156 -213h364z" />
    <glyph glyph-name="uni01B6" unicode="&#x1b6;" horiz-adv-x="436" 
d="M405 72v-72h-371v72l117 158h-98v59h142l100 135h-243v70h336v-70l-100 -135h99v-59h-143l-117 -158h278z" />
    <glyph glyph-name="AEacute" unicode="&#x1fc;" horiz-adv-x="740" 
d="M98 0h-90l238 627h450v-77h-332l70 -192h225v-75h-198l74 -203h170v-80h-226l-56 151h-269zM288 543l-20 -68.501l-24 -77.5l-63 -172h215l-63 172c-7.33301 20.667 -15 43.834 -23 69.501s-15.333 51.167 -22 76.5zM485 790.999h104l-129 -112h-76z" />
    <glyph glyph-name="aeacute" unicode="&#x1fd;" horiz-adv-x="766" 
d="M178 -8c-50 0 -86.999 12.166 -110.999 36.499s-36 61.833 -36 112.5c0 52.667 14 90 42 112s76 33 144 33h115v41c0 36.667 -8.5 63 -25.5 79s-44.5 24 -82.5 24c-29.333 0 -55.333 -1.16699 -78 -3.5s-44.667 -6.16602 -66 -11.499v71
c26.667 6.66699 53 11.334 79 14.001s56 4 90 4c33.333 0 60.833 -5.5 82.5 -16.5s38.167 -27.833 49.5 -50.5c17.333 22 39 38.667 65 50s56.667 17 92 17c66.667 0 114.5 -16 143.5 -48s43.5 -84.667 43.5 -158c0 -16.667 -0.333008 -30.834 -1 -42.501
s-1.66699 -23.5 -3 -35.5h-309c0.666992 -54.667 11.167 -93.667 31.5 -117s55.5 -35 105.5 -35c26.667 0 54.667 2.83301 84 8.5s53 12.167 71 19.5v-69c-16.667 -9.33301 -41 -17.5 -73 -24.5s-64 -10.5 -96 -10.5c-39.333 0 -72.333 5.66699 -99 17s-48 29 -64 53
c-24.667 -22 -53.834 -39.167 -87.501 -51.5s-69.167 -18.5 -106.5 -18.5zM650.001 308.999c-0.666992 44 -9.5 75.168 -26.5 93.501s-45.5 27.5 -85.5 27.5c-46 0 -78.5 -10.833 -97.5 -32.5s-28.5 -58.834 -28.5 -111.501h237c0.666992 2 1 4.66699 1 8v15zM109.001 145
c0 -28.667 7.00098 -48.998 21.001 -60.998s37.333 -18 70 -18c26.667 0 53.167 4.66699 79.5 14s49.166 21.666 68.499 36.999c-4.66699 14 -8.16699 29.667 -10.5 47s-3.83301 36 -4.5 56h-111c-43.333 0 -73 -5.33301 -89 -16s-24 -30.334 -24 -59.001zM417.002 686.002
h104l-131 -122h-76z" />
    <glyph glyph-name="Oslashacute" unicode="&#x1fe;" horiz-adv-x="649" 
d="M100 -55l-48.9971 31.999l56 83c-21.333 24.667 -37 57.334 -47 98.001s-15 93 -15 157c0 113.333 22 195.333 66 246s115.333 76 214 76c34 0 64 -2.16699 90 -6.5s49 -10.833 69 -19.5l57 83l49 -31l-58 -84c25.333 -24 43.666 -57 54.999 -99s17 -97 17 -165
c0 -114 -21.833 -196.333 -65.5 -247s-114.834 -76 -213.501 -76c-38.667 0 -71.834 2.66699 -99.501 8s-51.5 13.333 -71.5 24zM325.003 559.999c-74.667 0 -125.667 -18 -153 -54s-41 -99.667 -41 -191c0 -44 2.16699 -80.333 6.5 -109s11.5 -52 21.5 -70l279 408
c-13.333 5.33301 -29 9.33301 -47 12s-40 4 -66 4zM325.003 71.999c74 0 124.667 17.833 152 53.5s41 98.834 41 189.501c0 49.333 -2.83301 89.166 -8.5 119.499s-14.5 54.5 -26.5 72.5l-282 -413c13.333 -8 29.833 -13.667 49.5 -17s44.5 -5 74.5 -5zM355.003 800.999h104
l-129 -112h-76z" />
    <glyph glyph-name="oslashacute" unicode="&#x1ff;" horiz-adv-x="544" 
d="M92 -66l-47 33.001l52 76c-18.667 19.333 -32.334 45.333 -41.001 78s-13 75 -13 127c0 94 17.167 160.167 51.5 198.5s93.5 57.5 177.5 57.5c28.667 0 53.334 -1.66699 74.001 -5s39 -8.66602 55 -15.999l52 75l47 -33l-52 -75c18 -18.667 31.167 -44.334 39.5 -77.001
s12.5 -74.334 12.5 -125.001c0 -93.333 -17.167 -159.333 -51.5 -198s-93.166 -58 -176.499 -58c-26.667 0 -50.334 1.5 -71.001 4.5s-39 7.83301 -55 14.5zM272 430.001c-58 0 -97 -12.332 -117 -36.999s-30 -72.667 -30 -144c0 -34.667 1.83301 -62.834 5.5 -84.501
s9.5 -39.167 17.5 -52.5l210 306c-10 4 -21.833 7 -35.5 9s-30.5 3 -50.5 3zM272 68.002c57.333 0 96.001 12.499 116.001 37.499s30 72.833 30 143.5c0 34 -1.66699 61.333 -5 82s-8.33301 37.334 -15 50.001l-208 -302c9.33301 -4 20.666 -6.83301 33.999 -8.5
s29.333 -2.5 48 -2.5zM304.001 686.001h104l-131 -122h-76z" />
    <glyph glyph-name="uni0218" unicode="&#x218;" horiz-adv-x="504" 
d="M314 263l-151.999 35.999c-42 10 -72.333 27.167 -91 51.5s-28 58.166 -28 101.499c0 63.333 18.167 110 54.5 140s92.833 45 169.5 45c32 0 60.833 -1.5 86.5 -4.5s49.5 -7.5 71.5 -13.5v-77c-28 6.66699 -54.667 11.334 -80 14.001s-51.666 4 -78.999 4
c-51.333 0 -87.333 -7.5 -108 -22.5s-31 -41.5 -31 -79.5c0 -24 4.83301 -42.167 14.5 -54.5s25.5 -21.166 47.5 -26.499l151 -36c53.333 -12.667 88.833 -30.5 106.5 -53.5s26.5 -58.5 26.5 -106.5c0 -68.667 -17.833 -117.334 -53.5 -146.001s-92.167 -43 -169.5 -43
c-40.667 0 -79.834 2.66699 -117.501 8s-67.5 12.333 -89.5 21v80c31.333 -9.33301 64.666 -16.5 99.999 -21.5s71 -7.5 107 -7.5c50 0 85 7.33301 105 22s30 43 30 85c0 26 -4.83301 44.833 -14.5 56.5s-28.5 20.834 -56.5 27.501zM280.001 -63.001l-20 -125
c-2 -11.333 -6.33301 -20 -13 -26s-15.667 -9 -27 -9h-26l4 160h82z" />
    <glyph glyph-name="uni0219" unicode="&#x219;" horiz-adv-x="439" 
d="M236 430c-42.667 0 -72.168 -5.00098 -88.501 -15.001s-24.5 -30.333 -24.5 -61c0 -16 3.83301 -28.167 11.5 -36.5s19.834 -13.833 36.501 -16.5l127 -19c40 -6 68 -18.5 84 -37.5s24 -48.833 24 -89.5c0 -57.333 -13.667 -98.833 -41 -124.5
s-72.666 -38.5 -135.999 -38.5c-38 0 -73.333 2 -106 6s-59.667 9.33301 -81 16v77c21.333 -6.66699 47.5 -12.167 78.5 -16.5s62.833 -6.5 95.5 -6.5c41.333 0 69.666 6 84.999 18s23 33.333 23 64c0 19.333 -4.33301 33.5 -13 42.5s-24.334 15.167 -47.001 18.5l-127 19
c-32 4.66699 -55.833 17 -71.5 37s-23.834 49 -24.501 87c0 52 15.5 90 46.5 114s78.833 36 143.5 36c26.667 0 50.834 -0.666992 72.501 -2s44.5 -4 68.5 -8v-73c-17.333 2.66699 -37.666 4.83398 -60.999 6.50098s-48.333 2.5 -75 2.5zM252.999 -63.001l-20 -125
c-2 -11.333 -6.33301 -20 -13 -26s-15.667 -9 -27 -9h-26l4 160h82z" />
    <glyph glyph-name="uni021A" unicode="&#x21a;" horiz-adv-x="531" 
d="M516 627v-77h-208v-550h-85v550h-208v77h501zM305 -63l-20 -125c-2 -11.333 -6.33301 -20 -13 -26s-15.667 -9 -27 -9h-26l4 160h82z" />
    <glyph glyph-name="uni021B" unicode="&#x21b;" horiz-adv-x="371" 
d="M356 77v-68.999c-10.667 -4.66699 -25.167 -8.5 -43.5 -11.5s-35.833 -4.5 -52.5 -4.5c-60 0 -102.833 13.333 -128.5 40s-38.5 72.667 -38.5 138v254h-74v70h75l13 120h68v-120h176v-70h-176v-251c0 -40.667 7.5 -68.334 22.5 -83.001s41.5 -22 79.5 -22
c12 0 25.833 1 41.5 3s28.167 4 37.5 6zM272 -62.999l-20 -125c-2 -11.333 -6.33301 -20 -13 -26s-15.667 -9 -27 -9h-26l4 160h82z" />
    <glyph glyph-name="uni0237" unicode="&#x237;" horiz-adv-x="223" 
d="M0 -162c-12.667 0 -24.166 0.333008 -34.499 1s-22.833 2.33398 -37.5 5.00098v72c14 -2 24.167 -3.16699 30.5 -3.5s12.166 -0.5 17.499 -0.5c36 0 61.5 7.66699 76.5 23s22.5 41.666 22.5 78.999v480h82v-489c0 -55.333 -13.167 -97 -39.5 -125s-65.5 -42 -117.5 -42z
" />
    <glyph glyph-name="uni0259" unicode="&#x259;" horiz-adv-x="499" 
d="M62 403l-0.000976562 65.999c17.333 9.33301 42.833 17.5 76.5 24.5s67.834 10.5 102.501 10.5c76 0 131 -19.667 165 -59s51 -103 51 -191c0 -91.333 -17.333 -157.833 -52 -199.5s-90 -62.5 -166 -62.5c-70.667 0 -121.334 16 -152.001 48s-46 85 -46 159
c0 14.667 0.333008 28.5 1 41.5s2 29.5 4 49.5h328c-0.666992 50 -12 85.833 -34 107.5s-59.333 32.5 -112 32.5c-29.333 0 -59.666 -2.66699 -90.999 -8s-56.333 -11.666 -75 -18.999zM116.999 187.999c0.666992 -44 10.334 -74.999 29.001 -92.999s49.667 -27 93 -27
c49.333 0 84.166 11.5 104.499 34.5s30.5 62.833 30.5 119.5h-256c-0.666992 -2.66699 -1 -6.33398 -1 -11.001v-23z" />
    <glyph glyph-name="uni02BB" unicode="&#x2bb;" horiz-adv-x="165" 
d="M37 440l25 155c2 10.667 6.16699 18.667 12.5 24s14.5 8 24.5 8h21l-5 -187h-78z" />
    <glyph glyph-name="circumflex" unicode="&#x2c6;" horiz-adv-x="423" 
d="M373 564h-74l-88 73l-86 -73h-75l119 122h85z" />
    <glyph glyph-name="caron" unicode="&#x2c7;" horiz-adv-x="423" 
d="M50 686h74l88 -73l86 73h75l-119 -122h-85z" />
    <glyph glyph-name="breve" unicode="&#x2d8;" horiz-adv-x="381" 
d="M273 686h58c0 -39.333 -12.5 -70.666 -37.5 -93.999s-59.167 -35 -102.5 -35c-44 0 -78.5 11.667 -103.5 35s-37.5 54.666 -37.5 93.999h58c0 -22.667 7.33301 -40.5 22 -53.5s35 -19.5 61 -19.5c25.333 0 45.333 6.66699 60 20s22 31 22 53z" />
    <glyph glyph-name="dotaccent" unicode="&#x2d9;" horiz-adv-x="200" 
d="M150 564h-100v78h100v-78z" />
    <glyph glyph-name="ring" unicode="&#x2da;" horiz-adv-x="329" 
d="M276 639c0 -29.333 -10.167 -52.666 -30.5 -69.999s-47.833 -26 -82.5 -26s-62 8.66699 -82 26s-30 40.666 -30 69.999c0 28 10.167 50.333 30.5 67s47.5 25 81.5 25c34.667 0 62.167 -8.33301 82.5 -25s30.5 -39 30.5 -67zM102 639
c0 -15.333 5.33203 -27.166 15.999 -35.499s25.667 -12.5 45 -12.5c20 0 35.5 4.16699 46.5 12.5s16.5 20.166 16.5 35.499c0 14 -5.66699 25.167 -17 33.5s-26.666 12.5 -45.999 12.5s-34.333 -4.16699 -45 -12.5s-16 -19.5 -16 -33.5z" />
    <glyph glyph-name="ogonek" unicode="&#x2db;" horiz-adv-x="313" 
d="M223 29l40 -19.999c-40 -8 -72.833 -20.833 -98.5 -38.5s-38.5 -37.5 -38.5 -59.5c0 -14.667 4.83301 -25.667 14.5 -33s24.167 -11 43.5 -11c9.33301 0 19.5 0.833008 30.5 2.5s20.5 3.5 28.5 5.5v-59c-21.333 -4.66699 -37.5 -7.66699 -48.5 -9s-21.5 -2 -31.5 -2
c-34 0 -60.167 7.83301 -78.5 23.5s-27.5 38.167 -27.5 67.5c0 33.333 14 61.166 42 83.499s69.333 38.833 124 49.5z" />
    <glyph glyph-name="tilde" unicode="&#x2dc;" horiz-adv-x="395" 
d="M289 684l56 0.00195312c0 -38.667 -6.83301 -69 -20.5 -91s-33.5 -33 -59.5 -33c-12 0 -24 2.83301 -36 8.5s-27.333 16.834 -46 33.501c-12.667 12 -22 19.667 -28 23s-11.667 5 -17 5c-10.667 0 -18.667 -5.33301 -24 -16s-8 -27.334 -8 -50.001h-56
c0 38.667 7 69 21 91s34 33 60 33c12 0 24 -2.83301 36 -8.5s27.333 -16.834 46 -33.501c13.333 -12 23 -19.667 29 -23s11.667 -5 17 -5c10 0 17.5 5.16699 22.5 15.5s7.5 27.166 7.5 50.499z" />
    <glyph glyph-name="hungarumlaut" unicode="&#x2dd;" horiz-adv-x="486" 
d="M157 686h96l-126 -122h-72zM336 686h95l-125 -122h-73z" />
    <glyph glyph-name="uni0312" unicode="&#x312;" horiz-adv-x="186" 
d="M50 564l20 125c1.33301 11.333 5.5 20 12.5 26s16.167 9 27.5 9h26l-4 -160h-82z" />
    <glyph glyph-name="uni0326" unicode="&#x326;" horiz-adv-x="186" 
d="M135 -63l-20 -125c-2 -11.333 -6.33301 -20 -13 -26s-15.667 -9 -27 -9h-26l4 160h82z" />
    <glyph glyph-name="uni0394" unicode="&#x394;" horiz-adv-x="612" 
d="M22 0v80l240 547h88l240 -547v-80h-568zM306 535l-199 -455h398z" />
    <glyph glyph-name="uni03A9" unicode="&#x3a9;" horiz-adv-x="689" 
d="M70 0l0.000976562 79.999h142v58c-55.333 17.333 -97.833 46.5 -127.5 87.5s-44.5 91.833 -44.5 152.5c0 83.333 26.833 149 80.5 197s128.5 72 224.5 72s170.667 -23.833 224 -71.5s80 -113.5 80 -197.5c0 -59.333 -14.833 -109.666 -44.5 -150.999
s-71.834 -71 -126.501 -89v-58h142v-80h-221v186c52 11.333 91.667 33 119 65s41 73.333 41 124c0 59.333 -18.5 105 -55.5 137s-89.833 48 -158.5 48c-69.333 0 -122.5 -16 -159.5 -48s-55.5 -77.667 -55.5 -137c0 -50.667 13.833 -92.167 41.5 -124.5
s67.5 -53.833 119.5 -64.5v-186h-221z" />
    <glyph glyph-name="uni03BC" unicode="&#x3bc;" horiz-adv-x="548" 
d="M235 -8c-24 0 -43.3311 3.33105 -57.998 9.99805s-24.334 16.667 -29.001 30c0 -46.667 2.16699 -83.5 6.5 -110.5s11.5 -51.5 21.5 -73.5h-84c-9.33301 23.333 -16 49.333 -20 78s-6 73.334 -6 134.001v434h82v-328c0 -34.667 8 -59.5 24 -74.5s43 -22.5 81 -22.5
c23.333 0 47.666 3.16699 72.999 9.5s50 15.5 74 27.5v388h82v-494h-75l-4 43c-30.667 -17.333 -59.667 -30.166 -87 -38.499s-54.333 -12.5 -81 -12.5z" />
    <glyph glyph-name="pi" unicode="&#x3c0;" horiz-adv-x="591" 
d="M139 0l-92 0.000976562c28.667 63.333 50.667 132 66 206s22 144.333 20 211h-108v77h536v-77h-111v-258c0 -27.333 7 -47.666 21 -60.999s35 -20 63 -20h13v-78h-36c-44.667 0 -79.667 12.667 -105 38s-38 60.666 -38 105.999v273h-154
c1.33301 -74.667 -4.5 -147.834 -17.5 -219.501s-32.167 -137.5 -57.5 -197.5z" />
    <glyph glyph-name="Wgrave" unicode="&#x1e80;" horiz-adv-x="854" 
d="M187 0l-174 626.999h92l104 -397c2.66699 -10.667 5.5 -23.167 8.5 -37.5s9.83301 -51.166 20.5 -110.499c12 60.667 19.667 98 23 112s6.33301 26 9 36l114 397h89l115 -397l9 -35c3.33301 -13.333 11 -50.333 23 -111c7.33301 40.667 13.5 73.167 18.5 97.5
s8.5 40.5 10.5 48.5l103 397h89l-174 -627h-96l-101 336c-7.33301 24.667 -14.333 51 -21 79s-14 61.333 -22 100c-8 -38.667 -15.333 -72 -22 -100s-13.667 -54.333 -21 -79l-100 -336h-97zM423 678.999l-129 112h104l101 -112h-76z" />
    <glyph glyph-name="wgrave" unicode="&#x1e81;" horiz-adv-x="709" 
d="M603 494h89l-137 -494h-96l-108 385l-101 -385h-96l-137 494h90l96 -417l107 417h82l114 -417zM345 554l-131 122h104l103 -122h-76z" />
    <glyph glyph-name="Wacute" unicode="&#x1e82;" horiz-adv-x="854" 
d="M187 0l-174 626.999h92l104 -397c2.66699 -10.667 5.5 -23.167 8.5 -37.5s9.83301 -51.166 20.5 -110.499c12 60.667 19.667 98 23 112s6.33301 26 9 36l114 397h89l115 -397l9 -35c3.33301 -13.333 11 -50.333 23 -111c7.33301 40.667 13.5 73.167 18.5 97.5
s8.5 40.5 10.5 48.5l103 397h89l-174 -627h-96l-101 336c-7.33301 24.667 -14.333 51 -21 79s-14 61.333 -22 100c-8 -38.667 -15.333 -72 -22 -100s-13.667 -54.333 -21 -79l-100 -336h-97zM458 790.999h104l-129 -112h-76z" />
    <glyph glyph-name="wacute" unicode="&#x1e83;" horiz-adv-x="709" 
d="M603 494h89l-137 -494h-96l-108 385l-101 -385h-96l-137 494h90l96 -417l107 417h82l114 -417zM382 676h104l-131 -122h-76z" />
    <glyph glyph-name="Wdieresis" unicode="&#x1e84;" horiz-adv-x="854" 
d="M187 0l-174 626.999h92l104 -397c2.66699 -10.667 5.5 -23.167 8.5 -37.5s9.83301 -51.166 20.5 -110.499c12 60.667 19.667 98 23 112s6.33301 26 9 36l114 397h89l115 -397l9 -35c3.33301 -13.333 11 -50.333 23 -111c7.33301 40.667 13.5 73.167 18.5 97.5
s8.5 40.5 10.5 48.5l103 397h89l-174 -627h-96l-101 336c-7.33301 24.667 -14.333 51 -21 79s-14 61.333 -22 100c-8 -38.667 -15.333 -72 -22 -100s-13.667 -54.333 -21 -79l-100 -336h-97zM558 750.999v-72h-82v72h82zM381 750.999v-72h-83v72h83z" />
    <glyph glyph-name="wdieresis" unicode="&#x1e85;" horiz-adv-x="709" 
d="M603 494h89l-137 -494h-96l-108 385l-101 -385h-96l-137 494h90l96 -417l107 417h82l114 -417zM480 632v-78h-82v78h82zM303 632v-78h-83v78h83z" />
    <glyph glyph-name="uni1E8A" unicode="&#x1e8a;" horiz-adv-x="547" 
d="M322 325l225 -325h-104l-175 258l-170 -258h-94l217 322l-208 305h103l156 -242l162 242h92zM313 679h-80v72h80v-72z" />
    <glyph glyph-name="uni1E8B" unicode="&#x1e8b;" horiz-adv-x="446" 
d="M271 257l165 -257h-91l-125 200l-124 -200h-86l165 256l-158 238h97l111 -183l117 183h87zM266 554h-80v72h80v-72z" />
    <glyph glyph-name="uni1E9E" unicode="&#x1e9e;" horiz-adv-x="647" 
d="M316 637c44.667 0 86.667 -2.5 126 -7.5s72 -12.167 98 -21.5l-74 -256l58 -17c34 -10 57.5 -25.833 70.5 -47.5s19.5 -54.5 19.5 -98.5c0 -67.333 -14.5 -117.333 -43.5 -150s-73.5 -49 -133.5 -49c-27.333 0 -52.833 1.16699 -76.5 3.5s-44.167 5.5 -61.5 9.5v74
c22 -4 42.333 -6.83301 61 -8.5s38.667 -2.5 60 -2.5c38.667 0 66.667 9.66699 84 29s26 50 26 92c0 26.667 -3.83301 46 -11.5 58s-21.834 21 -42.501 27l-103 28l72 252c-10.667 2.66699 -29.667 5 -57 7s-53.333 3 -78 3c-56 0 -96.333 -11.5 -121 -34.5
s-37 -60.5 -37 -112.5v-415h-85v416c0 75.333 20.333 131 61 167s103.334 54 188.001 54z" />
    <glyph glyph-name="Ygrave" unicode="&#x1ef2;" horiz-adv-x="575" 
d="M476 627h88l-233 -389v-238h-85v238l-239 389h96l187 -313zM285 679l-129 112h104l101 -112h-76z" />
    <glyph glyph-name="ygrave" unicode="&#x1ef3;" horiz-adv-x="495" 
d="M111 -88c25.333 0 44.499 5.5 57.499 16.5s26.833 37.167 41.5 78.5l-202 487h92l152 -405l144 405h88l-202 -527c-18 -48 -39 -81.5 -63 -100.5s-55 -28.5 -93 -28.5c-11.333 0 -23.166 0.666992 -35.499 2s-24.5 3 -36.5 5v72c7.33301 -2 15.5 -3.33301 24.5 -4
s19.833 -1 32.5 -1zM247.999 554l-131 122h104l103 -122h-76z" />
    <glyph glyph-name="uni2007" unicode="&#x2007;" 
 />
    <glyph glyph-name="uni2008" unicode="&#x2008;" horiz-adv-x="174" 
 />
    <glyph glyph-name="uni2009" unicode="&#x2009;" horiz-adv-x="125" 
 />
    <glyph glyph-name="endash" unicode="&#x2013;" horiz-adv-x="519" 
d="M464 350v-64h-409v64h409z" />
    <glyph glyph-name="emdash" unicode="&#x2014;" horiz-adv-x="799" 
d="M744 350v-64h-689v64h689z" />
    <glyph glyph-name="quoteleft" unicode="&#x2018;" horiz-adv-x="165" 
d="M37 440l25 155c2 10.667 6.16699 18.667 12.5 24s14.5 8 24.5 8h21l-5 -187h-78z" />
    <glyph glyph-name="quoteright" unicode="&#x2019;" horiz-adv-x="161" 
d="M129 627l-25 -155c-2 -10.667 -6.16699 -18.667 -12.5 -24s-14.5 -8 -24.5 -8h-21l5 187h78z" />
    <glyph glyph-name="quotesinglbase" unicode="&#x201a;" horiz-adv-x="162" 
d="M122 68l-25 -155c-2 -10.667 -6.16699 -18.667 -12.5 -24s-14.5 -8 -24.5 -8h-21l5 187h78z" />
    <glyph glyph-name="quotedblleft" unicode="&#x201c;" horiz-adv-x="324" 
d="M37 440l25 155c2 10.667 6.16699 18.667 12.5 24s14.5 8 24.5 8h21l-5 -187h-78zM196 440l25 155c2 10.667 6.16699 18.667 12.5 24s14.5 8 24.5 8h21l-5 -187h-78z" />
    <glyph glyph-name="quotedblright" unicode="&#x201d;" horiz-adv-x="320" 
d="M288 627l-25 -155c-2 -10.667 -6.16699 -18.667 -12.5 -24s-14.5 -8 -24.5 -8h-21l5 187h78zM129 627l-25 -155c-2 -10.667 -6.16699 -18.667 -12.5 -24s-14.5 -8 -24.5 -8h-21l5 187h78z" />
    <glyph glyph-name="quotedblbase" unicode="&#x201e;" horiz-adv-x="321" 
d="M281 68l-25 -155c-2 -10.667 -6.16699 -18.667 -12.5 -24s-14.5 -8 -24.5 -8h-21l5 187h78zM122 68l-25 -155c-2 -10.667 -6.16699 -18.667 -12.5 -24s-14.5 -8 -24.5 -8h-21l5 187h78z" />
    <glyph glyph-name="dagger" unicode="&#x2020;" horiz-adv-x="355" 
d="M203 453l7 -232h-67l8 231l-126 -5v61l125 -6l-6 125h65l-6 -125l127 6v-61z" />
    <glyph glyph-name="daggerdbl" unicode="&#x2021;" horiz-adv-x="389" 
d="M347 298v-61l-127 6l6 -125h-65l6 125l-125 -6v61l127 -6v161l-127 -6v61l125 -6l-6 125h65l-6 -125l127 6v-61l-128 6v-161z" />
    <glyph glyph-name="bullet" unicode="&#x2022;" horiz-adv-x="298" 
d="M221 258h-144v125h144v-125z" />
    <glyph glyph-name="ellipsis" unicode="&#x2026;" horiz-adv-x="489" 
d="M280 0h-72v83h72v-83zM118 0h-72v83h72v-83zM443 0h-72v83h72v-83z" />
    <glyph glyph-name="perthousand" unicode="&#x2030;" horiz-adv-x="934" 
d="M275 476c0 -56.667 -9.5 -96.834 -28.5 -120.501s-50.833 -35.5 -95.5 -35.5c-45.333 0 -77.5 11.833 -96.5 35.5s-28.5 63.834 -28.5 120.501s9.5 96.834 28.5 120.501s51.167 35.5 96.5 35.5s77.333 -11.833 96 -35.5s28 -63.834 28 -120.501zM498 627l-300 -627h-61
l300 627h61zM216 476c0 39.333 -4.83301 66.833 -14.5 82.5s-26.5 23.5 -50.5 23.5c-24.667 0 -41.834 -7.83301 -51.501 -23.5s-14.5 -43.167 -14.5 -82.5c0 -38.667 4.83301 -65.667 14.5 -81s26.834 -23 51.501 -23c24 0 40.833 7.66699 50.5 23s14.5 42.333 14.5 81z
M613 152c0 -56.667 -9.5 -96.834 -28.5 -120.501s-51.167 -35.5 -96.5 -35.5s-77.5 11.833 -96.5 35.5s-28.5 63.834 -28.5 120.501c0 56 9.5 96 28.5 120s51.167 36 96.5 36s77.5 -12 96.5 -36s28.5 -64 28.5 -120zM908 152c0 -56.667 -9.5 -96.834 -28.5 -120.501
s-51.167 -35.5 -96.5 -35.5s-77.5 11.833 -96.5 35.5s-28.5 63.834 -28.5 120.501c0 56 9.5 96 28.5 120s51.167 36 96.5 36s77.5 -12 96.5 -36s28.5 -64 28.5 -120zM553 152c0 39.333 -4.83301 66.833 -14.5 82.5s-26.5 23.5 -50.5 23.5s-40.833 -7.83301 -50.5 -23.5
s-14.5 -43.167 -14.5 -82.5c0 -38.667 4.83301 -65.667 14.5 -81s26.5 -23 50.5 -23s40.833 7.66699 50.5 23s14.5 42.333 14.5 81zM849 152c0 39.333 -4.83301 66.833 -14.5 82.5s-26.834 23.5 -51.501 23.5c-24 0 -40.833 -7.83301 -50.5 -23.5s-14.5 -43.167 -14.5 -82.5
c0 -38.667 4.83301 -65.667 14.5 -81s26.5 -23 50.5 -23c24.667 0 41.834 7.66699 51.501 23s14.5 42.333 14.5 81z" />
    <glyph glyph-name="guilsinglleft" unicode="&#x2039;" horiz-adv-x="285" 
d="M258 64h-87l-149 217l149 213h87l-147 -212z" />
    <glyph glyph-name="guilsinglright" unicode="&#x203a;" horiz-adv-x="285" 
d="M263 281l-149 -217h-87l147 218l-147 212h87z" />
    <glyph glyph-name="fraction" unicode="&#x2044;" horiz-adv-x="150" 
d="M256 627l-300 -627h-61l300 627h61z" />
    <glyph glyph-name="uni2070" unicode="&#x2070;" horiz-adv-x="364" 
d="M329 450c0 -68 -10.666 -115.833 -31.999 -143.5s-59.666 -41.5 -114.999 -41.5c-58 0 -97 12.833 -117 38.5s-30 74.5 -30 146.5c0 67.333 10.667 114.666 32 141.999s59.666 41 114.999 41c57.333 0 96.166 -12.667 116.499 -38s30.5 -73.666 30.5 -144.999z
M264.001 450c0 50.667 -5.33301 84.167 -16 100.5s-32.667 24.5 -66 24.5s-55.5 -8.5 -66.5 -25.5s-16.5 -50.167 -16.5 -99.5c0 -50 5.33301 -83.333 16 -100s33 -25 67 -25c32.667 0 54.5 8.33301 65.5 25s16.5 50 16.5 100z" />
    <glyph glyph-name="uni2074" unicode="&#x2074;" horiz-adv-x="334" 
d="M311 415v-56h-49v-89h-63v89h-171v56l46 212h60l-43 -212h110v150h61v-150h49z" />
    <glyph glyph-name="uni2075" unicode="&#x2075;" horiz-adv-x="292" 
d="M265 376c0 -36 -10.667 -63.5 -32 -82.5s-52 -28.5 -92 -28.5c-25.333 0 -47.5 1 -66.5 3s-33.833 5 -44.5 9v54c12.667 -2.66699 26.667 -4.66699 42 -6s33 -2 53 -2c28 0 48 4.16699 60 12.5s18 22.166 18 41.499s-5.66699 32.833 -17 40.5s-32.333 11.5 -63 11.5
c-13.333 0 -26.5 -0.5 -39.5 -1.5s-25.167 -2.5 -36.5 -4.5v204h194v-55h-133v-96c6.66699 0.666992 14.167 1.33398 22.5 2.00098s16.5 1 24.5 1c38.667 0 66.667 -8.33301 84 -25s26 -42.667 26 -78z" />
    <glyph glyph-name="uni2076" unicode="&#x2076;" horiz-adv-x="327" 
d="M172 265c-51.333 0 -87.167 13 -107.5 39s-30.5 71 -30.5 135c0 68.667 13.333 118.167 40 148.5s70 45.5 130 45.5c11.333 0 22.333 -0.5 33 -1.5s18.334 -2.16699 23.001 -3.5v-50c-18.667 1.33301 -31.167 2.16602 -37.5 2.49902s-12.5 0.5 -18.5 0.5
c-36.667 0 -63 -7.66699 -79 -23s-25.333 -42 -28 -80c16 8.66699 32.167 14.834 48.5 18.501s34.166 5.5 53.499 5.5c35.333 0 61.333 -9.16699 78 -27.5s25 -46.5 25 -84.5c0 -39.333 -11.5 -70 -34.5 -92s-54.833 -33 -95.5 -33zM242.999 388
c0 23.333 -4.66895 39.5 -14.002 48.5s-26.666 13.5 -51.999 13.5c-14 0 -28.167 -1.66699 -42.5 -5s-27.5 -8 -39.5 -14c0.666992 -42.667 6.33398 -72.167 17.001 -88.5s29.667 -24.5 57 -24.5c24.667 0 43.167 5.83301 55.5 17.5s18.5 29.167 18.5 52.5z" />
    <glyph glyph-name="uni2077" unicode="&#x2077;" horiz-adv-x="289" 
d="M268 627v-57l-169 -300h-72l172 300h-173v57h242z" />
    <glyph glyph-name="uni2078" unicode="&#x2078;" horiz-adv-x="334" 
d="M301 366c0 -35.333 -10.8311 -61.002 -32.498 -77.002s-55.834 -24 -102.501 -24c-47.333 0 -81.333 7.66699 -102 23s-31 40.666 -31 75.999c0 24 6.33301 44 19 60s30.667 26 54 30c-22 5.33301 -38.5 15.166 -49.5 29.499s-16.5 32.833 -16.5 55.5
c0 32.667 10.167 56.5 30.5 71.5s52.166 22.5 95.499 22.5c45.333 0 78 -7.16699 98 -21.5s30 -38.166 30 -71.499c0 -23.333 -5.66699 -42.166 -17 -56.499s-28 -24.166 -50 -29.499c23.333 -4.66699 41.5 -14.667 54.5 -30s19.5 -34.666 19.5 -57.999zM237.002 530.998
c0 18 -5.49902 30.832 -16.499 38.499s-29.167 11.5 -54.5 11.5c-24.667 0 -42.334 -4 -53.001 -12s-16 -21 -16 -39c0 -19.333 5.5 -33.166 16.5 -41.499s28.5 -12.5 52.5 -12.5c24.667 0 42.667 4.33301 54 13s17 22.667 17 42zM242.003 373.997
c0 18.667 -6 32.1689 -18 40.502s-31.333 12.5 -58 12.5c-25.333 0 -44 -4.33301 -56 -13s-18 -22.334 -18 -41.001s5.83301 -32.334 17.5 -41.001s30.5 -13 56.5 -13c26.667 0 46 4.33301 58 13s18 22.667 18 42z" />
    <glyph glyph-name="uni2079" unicode="&#x2079;" horiz-adv-x="327" 
d="M158 633c50.667 0 85.832 -12.833 105.499 -38.5s29.5 -70.834 29.5 -135.501c0 -68 -13.5 -117.333 -40.5 -148s-70.5 -46 -130.5 -46c-10.667 0 -21.667 0.5 -33 1.5s-19.666 2.16699 -24.999 3.5v52c10 -1.33301 19.667 -2.33301 29 -3s19 -1 29 -1
c37.333 0 63.833 7.66699 79.5 23s25.167 42.333 28.5 81c-16 -8.66699 -31.667 -15 -47 -19s-32 -6 -50 -6c-36 0 -62.833 9.33301 -80.5 28s-26.5 47 -26.5 85c0 38.667 11.5 68.834 34.5 90.501s55.5 32.5 97.5 32.5zM157.998 579c-24 0 -42.001 -5.5 -54.001 -16.5
s-18 -27.5 -18 -49.5c0 -24 4.83301 -40.667 14.5 -50s27.5 -14 53.5 -14c14 0 27.333 1.66699 40 5s25.334 8.33301 38.001 15c-0.666992 43.333 -6 72.5 -16 87.5s-29.333 22.5 -58 22.5z" />
    <glyph glyph-name="Euro" unicode="&#x20ac;" horiz-adv-x="553" 
d="M31 223l-0.00292969 62.999h78v29v23.5c0 5 0.333008 9.5 1 13.5h-79v63h84c10.667 78 36.5 134.5 77.5 169.5s102.5 52.5 184.5 52.5c22.667 0 44.834 -1 66.501 -3s41.834 -5 60.501 -9v-74c-26 3.33301 -49.167 5.66602 -69.5 6.99902s-39.5 2 -57.5 2
c-58 0 -99.667 -10.833 -125 -32.5s-41.666 -59.167 -48.999 -112.5h263v-63h-268c-0.666992 -4 -1 -8.5 -1 -13.5v-23.5v-29h269v-63h-265c6 -56.667 20.833 -96 44.5 -118s64.167 -33 121.5 -33c23.333 0 48.333 3.16699 75 9.5s52 14.833 76 25.5v-76
c-25.333 -13.333 -52 -23.166 -80 -29.499s-58.333 -9.5 -91 -9.5c-76 0 -132 17.833 -168 53.5s-58 94.834 -66 177.501h-82z" />
    <glyph glyph-name="uni20BA" unicode="&#x20ba;" horiz-adv-x="555" 
d="M41 198l-0.000976562 65l70 22v69l-70 -22v65l70 22v208h85v-182l227 71v-65l-227 -71v-69l227 70v-65l-227 -70v-166h82c60.667 0 104.167 15 130.5 45s39.5 79.667 39.5 149h85c0 -92 -21.167 -160.667 -63.5 -206s-106.166 -68 -191.499 -68h-167v220z" />
    <glyph glyph-name="uni2120" unicode="&#x2120;" horiz-adv-x="768" 
d="M204 419l-83 18.999c-26 6 -44.5 15.833 -55.5 29.5s-16.5 32.167 -16.5 55.5c0 38.667 10.667 67 32 85s55.333 27 102 27c19.333 0 36.666 -0.833008 51.999 -2.5s29 -4.16699 41 -7.5v-53c-20.667 4 -37.667 6.66699 -51 8s-27.666 2 -42.999 2
c-27.333 0 -46.5 -4 -57.5 -12s-16.5 -22.333 -16.5 -43c0 -10.667 2.5 -18.834 7.5 -24.501s13.833 -10.167 26.5 -13.5l83 -18c32.667 -7.33301 54.167 -17.666 64.5 -30.999s15.5 -34 15.5 -62c0 -40 -10.667 -68.333 -32 -85s-55.333 -25 -102 -25
c-24.667 0 -48.334 1.5 -71.001 4.5s-39.667 6.83301 -51 11.5v55c18.667 -5.33301 38.334 -9.33301 59.001 -12s41.667 -4 63 -4c27.333 0 46.333 3.83301 57 11.5s16 22.167 16 43.5c0 12.667 -2.66699 21.834 -8 27.501s-16 10.167 -32 13.5zM710 626.999v-351h-59v255
l-95 -186h-50l-96 186v-255h-58v351h77l103 -207l103 207h75z" />
    <glyph glyph-name="trademark" unicode="&#x2122;" horiz-adv-x="772" 
d="M317 627v-56h-117v-295h-62v295h-118v56h297zM712 627v-351h-58v255l-95 -186h-50l-96 186v-255h-58v351h77l103 -207l103 207h74z" />
    <glyph glyph-name="Omega" unicode="&#x2126;" horiz-adv-x="690" 
d="M70 0l0.000976562 79.999h142v58c-55.333 17.333 -97.833 46.5 -127.5 87.5s-44.5 91.833 -44.5 152.5c0 83.333 26.833 149 80.5 197s128.5 72 224.5 72s170.667 -23.833 224 -71.5s80 -113.5 80 -197.5c0 -59.333 -14.833 -109.666 -44.5 -150.999
s-71.834 -71 -126.501 -89v-58h142v-80h-221v186c52 11.333 91.667 33 119 65s41 73.333 41 124c0 59.333 -18.5 105 -55.5 137s-89.833 48 -158.5 48c-69.333 0 -122.5 -16 -159.5 -48s-55.5 -77.667 -55.5 -137c0 -50.667 13.833 -92.167 41.5 -124.5
s67.5 -53.833 119.5 -64.5v-186h-221z" />
    <glyph glyph-name="arrowleft" unicode="&#x2190;" horiz-adv-x="687" 
d="M193 627l90 0.000976562l-115 -209c-6 -11.333 -12.5 -23 -19.5 -35s-12.833 -21.667 -17.5 -29l1 -2c10.667 0.666992 21.334 1.16699 32.001 1.5s33.334 0.5 68.001 0.5h435v-82h-435c-34.667 0 -57.334 0.166992 -68.001 0.5s-21.334 0.833008 -32.001 1.5l-1 -2
l8 -13c3.33301 -5.33301 8.33301 -14.333 15 -27l9 -16.5c2 -3.66699 3.66699 -6.83398 5 -9.50098l115 -206h-90l-172 312z" />
    <glyph glyph-name="arrowup" unicode="&#x2191;" horiz-adv-x="667" 
d="M647 474v-90l-209 115l-35 19.5c-12 7 -21.667 12.833 -29 17.5l-2 -1c0.666992 -10.667 1.16699 -21.334 1.5 -32.001s0.5 -33.334 0.5 -68.001v-435h-82v435c0 34.667 0.166992 57.334 0.5 68.001s0.833008 21.334 1.5 32.001l-2 1l-13 -8
c-5.33301 -3.33301 -14.333 -8.33301 -27 -15l-16.5 -9l-9.5 -5l-206 -115v90l312 172z" />
    <glyph glyph-name="arrowright" unicode="&#x2192;" horiz-adv-x="688" 
d="M495 0l-90 -0.000976562l115 209c6 11.333 12.5 23 19.5 35s12.833 21.667 17.5 29l-1 2c-10.667 -0.666992 -21.334 -1.16699 -32.001 -1.5s-33.334 -0.5 -68.001 -0.5h-435v82h435c34.667 0 57.334 -0.166992 68.001 -0.5s21.334 -0.833008 32.001 -1.5l1 2l-8 13
c-3.33301 5.33301 -8.33301 14.333 -15 27l-9 16.5c-2 3.66699 -3.66699 6.83398 -5 9.50098l-115 206h90l172 -312z" />
    <glyph glyph-name="arrowdown" unicode="&#x2193;" horiz-adv-x="669" 
d="M21 153l-0.000976562 90l209 -115l35 -19.5c12 -7 21.667 -12.833 29 -17.5l2 1c-0.666992 10.667 -1.16699 21.334 -1.5 32.001s-0.5 33.334 -0.5 68.001v435h82v-435c0 -34.667 -0.166992 -57.334 -0.5 -68.001s-0.833008 -21.334 -1.5 -32.001l2 -1l13 8
c5.33301 3.33301 14.333 8.33301 27 15l16.5 9c3.66699 2 6.83398 3.66699 9.50098 5l206 115v-90l-312 -172z" />
    <glyph glyph-name="partialdiff" unicode="&#x2202;" horiz-adv-x="549" 
d="M426 393l0.000976562 32c0 68.667 -11.5 115.667 -34.5 141s-65.5 38 -127.5 38c-25.333 0 -50 -1.5 -74 -4.5s-47.667 -7.5 -71 -13.5v70c26 6 51.5 10.5 76.5 13.5s52.167 4.5 81.5 4.5c84 0 143.167 -18.833 177.5 -56.5s51.5 -101.5 51.5 -191.5
c0 -138 -24.167 -245.167 -72.5 -321.5s-118.833 -114.5 -211.5 -114.5c-62.667 0 -110.834 17.667 -144.501 53s-50.5 85 -50.5 149c0 76 19.833 135.333 59.5 178s95.167 64 166.5 64c34.667 0 65.5 -3.16699 92.5 -9.5s53.833 -16.833 80.5 -31.5zM263.001 362
c-49.333 0 -87.168 -14.168 -113.501 -42.501s-39.5 -68.166 -39.5 -119.499c0 -42 10.833 -73.833 32.5 -95.5s53.5 -32.5 95.5 -32.5c50.667 0 91.334 21 122.001 63s50.667 103.333 60 184c-26 15.333 -51.167 26.333 -75.5 33s-51.5 10 -81.5 10z" />
    <glyph glyph-name="Delta" unicode="&#x2206;" horiz-adv-x="610" 
d="M21 0v80l240 547h88l240 -547v-80h-568zM305 535l-199 -455h398z" />
    <glyph glyph-name="product" unicode="&#x220f;" horiz-adv-x="600" 
d="M198 547v-699h-85v699h-94v80h562v-80h-94v-699h-85v699h-204z" />
    <glyph glyph-name="summation" unicode="&#x2211;" horiz-adv-x="523" 
d="M20 -152v80l270 310l-245 309v80h437v-80h-323l239 -310l-266 -309h370v-80h-482z" />
    <glyph glyph-name="minus" unicode="&#x2212;" 
d="M463 361v-78h-426v78h426z" />
    <glyph glyph-name="uni2219" unicode="&#x2219;" horiz-adv-x="338" 
d="M241 258h-144v125h144v-125z" />
    <glyph glyph-name="radical" unicode="&#x221a;" horiz-adv-x="656" 
d="M359 -152h-92l-163 399h-96v80h161l139 -369l261 821h90z" />
    <glyph glyph-name="infinity" unicode="&#x221e;" horiz-adv-x="951" 
d="M910 316c0 -57.333 -19.165 -104.333 -57.498 -141s-87.5 -55 -147.5 -55c-26.667 0 -52.167 5 -76.5 15s-46.166 24.333 -65.499 43l-88 84l-88 -84c-18.667 -18.667 -40 -33 -64 -43s-50 -15 -78 -15c-60.667 0 -109.834 18.333 -147.501 55s-56.5 83.667 -56.5 141
s19 104.333 57 141s87 55 147 55c27.333 0 53.166 -4.83301 77.499 -14.5s45.833 -23.834 64.5 -42.501l88 -85l88 85c18.667 18.667 40.167 32.834 64.5 42.501s50.166 14.5 77.499 14.5c60.667 0 110 -18.333 148 -55s57 -83.667 57 -141zM616.002 401l-88.002 -85l88 -86
c12 -10.667 25.667 -19 41 -25s31.333 -9 48 -9c36 0 65.333 11.167 88 33.5s34 51.166 34 86.499c0 36 -11.333 65.167 -34 87.5s-52 33.5 -88 33.5c-17.333 0 -33.666 -3.16699 -48.999 -9.5s-28.666 -15.166 -39.999 -26.499zM421 316l-86.998 84.999
c-12 12 -25.5 21 -40.5 27s-31.167 9 -48.5 9c-35.333 0 -64.333 -11.167 -87 -33.5s-34 -51.5 -34 -87.5c0 -35.333 11.333 -64.166 34 -86.499s51.667 -33.5 87 -33.5c17.333 0 33.666 2.83301 48.999 8.5s28.666 14.167 39.999 25.5z" />
    <glyph glyph-name="integral" unicode="&#x222b;" horiz-adv-x="467" 
d="M311 605l-71 -592c-7.33301 -59.333 -24.333 -101.666 -51 -126.999s-67.667 -38 -123 -38h-61v80h51c32.667 0 56.5 7 71.5 21s24.5 38.333 28.5 73l71 592c7.33301 59.333 24.333 101.666 51 126.999s68 38 124 38h61v-80h-52c-32.667 0 -56.5 -7 -71.5 -21
s-24.5 -38.333 -28.5 -73z" />
    <glyph glyph-name="congruent" unicode="&#x2245;" 
d="M463 139v-78h-426v78h426zM463 564v-80c-14.667 -13.333 -30 -23.333 -46 -30s-32.667 -10 -50 -10c-15.333 0 -31.333 2.66699 -48 8s-41 17 -73 35c-30 16.667 -52.833 27.667 -68.5 33s-30.5 8 -44.5 8c-16.667 0 -33 -3.5 -49 -10.5s-31.667 -17.5 -47 -31.5v80
c15.333 13.333 31 23.333 47 30s32.333 10 49 10c15.333 0 31.333 -2.66699 48 -8s41 -17 73 -35c30 -16.667 52.833 -27.667 68.5 -33s30.5 -8 44.5 -8c16.667 0 33 3.5 49 10.5s31.667 17.5 47 31.5zM463 354v-80c-14.667 -13.333 -30 -23.333 -46 -30
s-32.667 -10 -50 -10c-15.333 0 -31.333 2.66699 -48 8s-41 17 -73 35c-30 16.667 -52.833 27.667 -68.5 33s-30.5 8 -44.5 8c-16.667 0 -33 -3.5 -49 -10.5s-31.667 -17.5 -47 -31.5v80c15.333 13.333 31 23.333 47 30s32.333 10 49 10c15.333 0 31.333 -2.66699 48 -8
s41 -17 73 -35c30 -16.667 52.833 -27.667 68.5 -33s30.5 -8 44.5 -8c16.667 0 33 3.5 49 10.5s31.667 17.5 47 31.5z" />
    <glyph glyph-name="approxequal" unicode="&#x2248;" 
d="M463 455v-80c-14.667 -13.333 -30 -23.333 -46 -30s-32.667 -10 -50 -10c-15.333 0 -31.333 2.66699 -48 8s-41 17 -73 35c-30 16.667 -52.833 27.667 -68.5 33s-30.5 8 -44.5 8c-16.667 0 -33 -3.5 -49 -10.5s-31.667 -17.5 -47 -31.5v80c15.333 13.333 31 23.333 47 30
s32.333 10 49 10c15.333 0 31.333 -2.66699 48 -8s41 -17 73 -35c30 -16.667 52.833 -27.667 68.5 -33s30.5 -8 44.5 -8c16.667 0 33 3.5 49 10.5s31.667 17.5 47 31.5zM463 245v-80c-14.667 -13.333 -30 -23.333 -46 -30s-32.667 -10 -50 -10
c-15.333 0 -31.333 2.66699 -48 8s-41 17 -73 35c-30 16.667 -52.833 27.667 -68.5 33s-30.5 8 -44.5 8c-16.667 0 -33 -3.5 -49 -10.5s-31.667 -17.5 -47 -31.5v80c15.333 13.333 31 23.333 47 30s32.333 10 49 10c15.333 0 31.333 -2.66699 48 -8s41 -17 73 -35
c30 -16.667 52.833 -27.667 68.5 -33s30.5 -8 44.5 -8c16.667 0 33 3.5 49 10.5s31.667 17.5 47 31.5z" />
    <glyph glyph-name="notequal" unicode="&#x2260;" 
d="M218 168l-42 -111h-50l42 111h-131v78h160l49 132h-209v78h238l42 111h50l-42 -111h138v-78h-167l-49 -132h216v-78h-245z" />
    <glyph glyph-name="lessequal" unicode="&#x2264;" 
d="M463 299v-72h-426v72l426 307v-88l-310 -219h310zM463 139v-78h-426v78h426z" />
    <glyph glyph-name="greaterequal" unicode="&#x2265;" 
d="M463 227h-426v72h310l-310 219v88l426 -307v-72zM463 61h-426v78h426v-78z" />
    <glyph glyph-name="dotmath" unicode="&#x22c5;" horiz-adv-x="194" 
d="M138 276h-82v83h82v-83z" />
    <glyph glyph-name="lozenge" unicode="&#x25ca;" horiz-adv-x="593" 
d="M334 -152h-74l-245 467l243 473h77l243 -473zM106 319l193 -376l189 370l-193 385z" />
    <glyph glyph-name="uniFB01" unicode="&#xfb01;" horiz-adv-x="558" 
d="M95 424h-74v70h74v12c0 57.333 12.667 99.833 38 127.5s63.666 41.5 114.999 41.5c12 0 23.5 -0.5 34.5 -1.5s23.5 -3.16699 37.5 -6.5v-70c-7.33301 2 -16.166 3.5 -26.499 4.5s-20.5 1.5 -30.5 1.5c-31.333 0 -53.5 -7 -66.5 -21s-19.5 -38.667 -19.5 -74v-14h128v-70
h-128v-424h-82v424zM495 580h-88v85h88v-85zM492 0h-82v494h82v-494z" />
    <glyph glyph-name="uniFB02" unicode="&#xfb02;" horiz-adv-x="556" 
d="M95 424h-74v70h74v12c0 57.333 12.667 99.833 38 127.5s63.666 41.5 114.999 41.5c12 0 23.5 -0.5 34.5 -1.5s23.5 -3.16699 37.5 -6.5v-70c-7.33301 2 -16.166 3.5 -26.499 4.5s-20.5 1.5 -30.5 1.5c-31.333 0 -53.5 -7 -66.5 -21s-19.5 -38.667 -19.5 -74v-14h128v-70
h-128v-424h-82v424zM490 665v-665h-82v665h82z" />
    <glyph glyph-name="S_S" horiz-adv-x="1006" 
d="M314 263l-151.999 35.999c-42 10 -72.333 27.167 -91 51.5s-28 58.166 -28 101.499c0 63.333 18.167 110 54.5 140s92.833 45 169.5 45c32 0 60.833 -1.5 86.5 -4.5s49.5 -7.5 71.5 -13.5v-77c-28 6.66699 -54.667 11.334 -80 14.001s-51.666 4 -78.999 4
c-51.333 0 -87.333 -7.5 -108 -22.5s-31 -41.5 -31 -79.5c0 -24 4.83301 -42.167 14.5 -54.5s25.5 -21.166 47.5 -26.499l151 -36c53.333 -12.667 88.833 -30.5 106.5 -53.5s26.5 -58.5 26.5 -106.5c0 -68.667 -17.833 -117.334 -53.5 -146.001s-92.167 -43 -169.5 -43
c-40.667 0 -79.834 2.66699 -117.501 8s-67.5 12.333 -89.5 21v80c31.333 -9.33301 64.666 -16.5 99.999 -21.5s71 -7.5 107 -7.5c50 0 85 7.33301 105 22s30 43 30 85c0 26 -4.83301 44.833 -14.5 56.5s-28.5 20.834 -56.5 27.501zM816.001 262.999l-151.999 35.999
c-42 10 -72.333 27.167 -91 51.5s-28 58.166 -28 101.499c0 63.333 18.167 110 54.5 140s92.833 45 169.5 45c32 0 60.833 -1.5 86.5 -4.5s49.5 -7.5 71.5 -13.5v-77c-28 6.66699 -54.667 11.334 -80 14.001s-51.666 4 -78.999 4c-51.333 0 -87.333 -7.5 -108 -22.5
s-31 -41.5 -31 -79.5c0 -24 4.83301 -42.167 14.5 -54.5s25.5 -21.166 47.5 -26.499l151 -36c53.333 -12.667 88.833 -30.5 106.5 -53.5s26.5 -58.5 26.5 -106.5c0 -68.667 -17.833 -117.334 -53.5 -146.001s-92.167 -43 -169.5 -43c-40.667 0 -79.834 2.66699 -117.501 8
s-67.5 12.333 -89.5 21v80c31.333 -9.33301 64.666 -16.5 99.999 -21.5s71 -7.5 107 -7.5c50 0 85 7.33301 105 22s30 43 30 85c0 26 -4.83301 44.833 -14.5 56.5s-28.5 20.834 -56.5 27.501z" />
    <glyph glyph-name="acute.uc" horiz-adv-x="307" 
d="M151 676h104l-129 -112h-76z" />
    <glyph glyph-name="breve.uc" horiz-adv-x="381" 
d="M273 676h58c0 -36.667 -12.5 -65.667 -37.5 -87s-59.167 -32 -102.5 -32c-44 0 -78.5 10.667 -103.5 32s-37.5 50.333 -37.5 87h58c0 -20 7.33301 -35.667 22 -47s35 -17 61 -17c25.333 0 45.333 5.83301 60 17.5s22 27.167 22 46.5z" />
    <glyph glyph-name="caron.uc" horiz-adv-x="423" 
d="M50 676h74l88 -63l86 63h75l-119 -112h-85z" />
    <glyph glyph-name="circumflex.uc" horiz-adv-x="423" 
d="M373 564h-74l-88 63l-86 -63h-75l119 112h85z" />
    <glyph glyph-name="dieresis.uc" horiz-adv-x="360" 
d="M310 636v-72h-82v72h82zM133 636v-72h-83v72h83z" />
    <glyph glyph-name="dotaccent.uc" horiz-adv-x="200" 
d="M140 564h-80v72h80v-72z" />
    <glyph glyph-name="grave.uc" horiz-adv-x="307" 
d="M181 564l-129 112h104l101 -112h-76z" />
    <glyph glyph-name="hungarumlaut.uc" horiz-adv-x="486" 
d="M155 676h96l-124 -112h-72zM333 676h95l-123 -112h-73z" />
    <glyph glyph-name="macron.uc" horiz-adv-x="345" 
d="M295 628v-59h-245v59h245z" />
    <glyph glyph-name="ring.uc" horiz-adv-x="329" 
d="M276 642c0 -25.333 -10.167 -45.666 -30.5 -60.999s-47.833 -23 -82.5 -23c-34 0 -61.167 7.66699 -81.5 23s-30.5 35.666 -30.5 60.999c0 24.667 10.167 44.334 30.5 59.001s47.5 22 81.5 22c34.667 0 62.167 -7.33301 82.5 -22s30.5 -34.334 30.5 -59.001zM102 642
c0 -12.667 5.5 -22.5 16.5 -29.5s25.833 -10.5 44.5 -10.5c19.333 0 34.666 3.66699 45.999 11s17 17 17 29s-5.66699 21.333 -17 28s-26.666 10 -45.999 10s-34.333 -3.33301 -45 -10s-16 -16 -16 -28z" />
    <glyph glyph-name="tilde.uc" horiz-adv-x="395" 
d="M289 665h55.9971c0 -32.667 -6.83301 -58.334 -20.5 -77.001s-33.5 -28 -59.5 -28c-12 0 -23.833 2.16699 -35.5 6.5s-26.5 12.833 -44.5 25.5c-12.667 8.66699 -22 14.334 -28 17.001s-11.667 4 -17 4c-10.667 0 -19 -4.33301 -25 -13s-9 -20.667 -9 -36h-56
c0 32.667 7 58.334 21 77.001s34 28 60 28c12 0 23.833 -2.16699 35.5 -6.5s26.834 -12.833 45.501 -25.5c12.667 -8.66699 21.834 -14.334 27.501 -17.001s11.167 -4 16.5 -4c10.667 0 18.834 4.33301 24.501 13s8.5 20.667 8.5 36z" />
    <glyph glyph-name="f.alt" horiz-adv-x="321" 
d="M95 424h-74v70h74v12c0 57.333 12.667 99.833 38 127.5s63.666 41.5 114.999 41.5c12 0 23.5 -0.5 34.5 -1.5s23.5 -3.16699 37.5 -6.5v-70c-7.33301 2 -16.166 3.5 -26.499 4.5s-20.5 1.5 -30.5 1.5c-31.333 0 -53.5 -7 -66.5 -21s-19.5 -38.667 -19.5 -74v-14h128v-70
h-128v-424h-82v424z" />
    <glyph glyph-name="caron.alt" horiz-adv-x="332" 
d="M124 665l-20.002 -137c-1.33301 -10.667 -5.66602 -19.167 -12.999 -25.5s-16.666 -9.5 -27.999 -9.5h-25l4 172h82z" />
    <glyph glyph-name="zero.tf" 
d="M471 315c0 -118.667 -16.167 -202.168 -48.5 -250.501s-89.5 -72.5 -171.5 -72.5c-54 0 -95.667 7.5 -125 22.5s-51.333 39.5 -66 73.5c-10.667 23.333 -18.334 53.333 -23.001 90s-7 82.334 -7 137.001c0 118.667 16.167 202.167 48.5 250.5s89.833 72.5 172.5 72.5
c54 0 95.667 -7.5 125 -22.5s51 -39.5 65 -73.5c10.667 -24 18.334 -54.167 23.001 -90.5s7 -81.833 7 -136.5zM385 314.999c0 98.667 -8.83301 164.166 -26.5 196.499s-53.5 48.5 -107.5 48.5c-52.667 0 -88.334 -17 -107.001 -51s-28 -98.667 -28 -194
c0 -98 8.83301 -163 26.5 -195s53.834 -48 108.501 -48c52.667 0 88.167 16.833 106.5 50.5s27.5 97.834 27.5 192.501z" />
    <glyph glyph-name="one.tf" 
d="M52 0v80h192v473l-185 -22v73l270 33v-557h137v-80h-414z" />
    <glyph glyph-name="two.tf" 
d="M445 80l0.00195312 -79.9961h-401v80l238 253c24.667 26 42.167 49.667 52.5 71s15.5 43.666 15.5 66.999c0 28 -8.66699 49.833 -26 65.5s-42.333 23.5 -75 23.5c-26.667 0 -58.167 -2.33301 -94.5 -7s-62.5 -9.33398 -78.5 -14.001v76c27.333 7.33301 57 13 89 17
s64 6 96 6c55.333 0 98.166 -14 128.499 -42s45.5 -67 45.5 -117c0 -32.667 -6.33301 -62.834 -19 -90.501s-34.334 -57.834 -65.001 -90.501l-205 -218h299z" />
    <glyph glyph-name="three.tf" 
d="M421 481c0 -38.667 -10.0029 -71.167 -30.0029 -97.5s-48 -43.833 -84 -52.5v-2c46.667 -3.33301 82.167 -18 106.5 -44s36.5 -62.667 36.5 -110c0 -59.333 -19.167 -104.666 -57.5 -135.999s-94.166 -47 -167.499 -47c-41.333 0 -77 1.66699 -107 5
s-55.667 8.33301 -77 15v76c26.667 -6 52.834 -10.167 78.501 -12.5s56.5 -3.5 92.5 -3.5c53.333 0 93 9 119 27s39 45.333 39 82c0 36 -11.5 62.333 -34.5 79s-58.833 25 -107.5 25h-106v74h85c42 0 74.833 9.16699 98.5 27.5s35.5 44.5 35.5 78.5
c0 33.333 -9.66699 57.5 -29 72.5s-49.666 22.5 -90.999 22.5c-23.333 0 -50 -1.83301 -80 -5.5s-56.333 -7.83398 -79 -12.501v73c25.333 7.33301 53.5 13 84.5 17s63.167 6 96.5 6c58.667 0 103 -13.167 133 -39.5s45 -65.5 45 -117.5z" />
    <glyph glyph-name="four.tf" 
d="M474 240v-74h-81v-166h-85v166h-273v74l73 388h81l-68 -388h187v278h85v-278h81z" />
    <glyph glyph-name="five.tf" 
d="M456 185c0 -64.667 -17.999 -113 -53.999 -145s-90.667 -48 -164 -48c-42 0 -79.333 1.66699 -112 5s-58.334 8.33301 -77.001 15v76c24 -5.33301 50 -9.33301 78 -12s58 -4 90 -4c55.333 0 94.833 8.83301 118.5 26.5s35.5 46.834 35.5 87.501c0 38 -11.5 65 -34.5 81
s-64.167 24 -123.5 24c-26 -0.666992 -49.333 -1.83398 -70 -3.50098s-41.667 -4.5 -63 -8.5v349h332v-77h-247v-194c12.667 2 27 3.5 43 4.5s31.333 1.5 46 1.5c70.667 0 122 -14.5 154 -43.5s48 -73.833 48 -134.5z" />
    <glyph glyph-name="six.tf" 
d="M261 -8c-79.333 0 -135.332 23 -167.999 69s-49 124.667 -49 236c0 120.667 21.167 207.667 63.5 261s111.166 80 206.499 80c16.667 0 33.5 -0.666992 50.5 -2s29.5 -3 37.5 -5v-76c-17.333 2 -32.833 3.33301 -46.5 4s-27.5 1 -41.5 1c-62.667 0 -107.667 -15 -135 -45
s-43.333 -82.667 -48 -158c30 16.667 58.5 28.5 85.5 35.5s56.167 10.5 87.5 10.5c56.667 0 98.667 -15.667 126 -47s41 -80 41 -146c0 -68.667 -18.5 -122.167 -55.5 -160.5s-88.5 -57.5 -154.5 -57.5zM388.001 207c0 45.333 -8.49902 77.334 -25.499 96.001
s-47.167 28 -90.5 28c-23.333 0 -47.333 -3.66699 -72 -11s-48.334 -18 -71.001 -32c0 -80.667 9.5 -136.834 28.5 -168.501s52.833 -47.5 101.5 -47.5c42 0 74 11.5 96 34.5s33 56.5 33 100.5z" />
    <glyph glyph-name="seven.tf" 
d="M462 628v-77l-315 -551h-95l319 551h-327v77h418z" />
    <glyph glyph-name="eight.tf" 
d="M457 168c0 -60.667 -16.668 -105.165 -50.001 -133.498s-86 -42.5 -158 -42.5s-124.167 13.5 -156.5 40.5s-48.5 70.5 -48.5 130.5c0 44 10.333 80 31 108s50 45.333 88 52c-36 7.33301 -63.167 23.666 -81.5 48.999s-27.166 59.333 -26.499 102
c0 56 15.833 97.333 47.5 124s80.5 40 146.5 40c69.333 0 119.5 -12.667 150.5 -38s46.5 -66.333 46.5 -123c0 -43.333 -9 -78 -27 -104s-45 -42.667 -81 -50c38 -6.66699 67.333 -23.334 88 -50.001s31 -61.667 31 -105zM369.999 463.002c0 35.333 -9.5 60.833 -28.5 76.5
s-49.833 23.5 -92.5 23.5c-42 0 -72.167 -7.83301 -90.5 -23.5s-27.5 -41.5 -27.5 -77.5c0 -38 9.5 -65.5 28.5 -82.5s48.833 -25.5 89.5 -25.5c41.333 0 71.833 8.66699 91.5 26s29.5 45 29.5 83zM377.999 179.002c0 36.667 -10.167 63.501 -30.5 80.501
s-53.166 25.5 -98.499 25.5c-44 0 -75.833 -8.66699 -95.5 -26s-29.5 -45.333 -29.5 -84c0 -36.667 9.83301 -63.334 29.5 -80.001s51.5 -25 95.5 -25c45.333 0 78.166 8.66699 98.499 26s30.5 45 30.5 83z" />
    <glyph glyph-name="nine.tf" 
d="M242 638c79.333 0 134.667 -22.667 166 -68s47 -124.333 47 -237c0 -121.333 -21.167 -208.5 -63.5 -261.5s-111.5 -79.5 -207.5 -79.5c-16 0 -32.833 0.833008 -50.5 2.5s-30.834 3.5 -39.501 5.5v77c10.667 -1.33301 23.834 -2.5 39.501 -3.5s32.5 -1.5 50.5 -1.5
c64 0 109.667 15 137 45s43 83 47 159c-26 -16 -52.333 -27.667 -79 -35s-55 -11 -85 -11c-58.667 0 -102 15.833 -130 47.5s-42 80.834 -42 147.501c0 67.333 18.5 119.666 55.5 156.999s88.5 56 154.5 56zM242.001 560c-41.333 0 -72.835 -11.167 -94.502 -33.5
s-32.5 -54.833 -32.5 -97.5c0 -46.667 8.83301 -79.5 26.5 -98.5s48.5 -28.5 92.5 -28.5c24.667 0 48.334 3.5 71.001 10.5s44.334 17.833 65.001 32.5c-0.666992 82.667 -10 139.167 -28 169.5s-51.333 45.5 -100 45.5z" />
    <glyph glyph-name="zero.osf" horiz-adv-x="551" 
d="M506 248c0 -90.667 -18 -156 -54 -196s-94.667 -60 -176 -60c-84 0 -143.5 19.333 -178.5 58s-52.5 104.667 -52.5 198c0 90.667 18 156 54 196s95 60 177 60c84 0 143.333 -19.333 178 -58s52 -104.667 52 -198zM426 248c0 70 -11 117.833 -33 143.5s-61 38.5 -117 38.5
c-54.667 0 -93.5 -13.5 -116.5 -40.5s-34.5 -74.167 -34.5 -141.5c0 -68 11 -114.333 33 -139s61.333 -37 118 -37c54 0 92.5 13.167 115.5 39.5s34.5 71.833 34.5 136.5z" />
    <glyph glyph-name="one.osf" horiz-adv-x="370" 
d="M297 0h-79v421l-197 -30v69l276 44v-504z" />
    <glyph glyph-name="two.osf" horiz-adv-x="440" 
d="M403 77l0.000976562 -77.001h-370v75l204 176c28 24.667 46.667 44.167 56 58.5s14 29.5 14 45.5c0 24.667 -8.33301 42.834 -25 54.501s-42.334 17.5 -77.001 17.5c-23.333 0 -48.5 -2.33301 -75.5 -7s-51.833 -10.667 -74.5 -18v76c21.333 8 46.5 14.333 75.5 19
s57.833 7 86.5 7c55.333 0 97.5 -11.5 126.5 -34.5s43.5 -56.5 43.5 -100.5c0 -29.333 -6.66699 -56.333 -20 -81s-35.333 -49.667 -66 -75l-161 -136h263z" />
    <glyph glyph-name="three.osf" horiz-adv-x="451" 
d="M384 339c0 -40 -8.83398 -72.834 -26.501 -98.501s-43.5 -43.167 -77.5 -52.5v-2c42.667 -3.33301 75.167 -18.5 97.5 -45.5s33.5 -64.5 33.5 -112.5c0 -60.667 -17.833 -107.167 -53.5 -139.5s-87.5 -48.5 -155.5 -48.5c-38 0 -71 1.66699 -99 5s-52 8.33301 -72 15v76
c25.333 -6 50 -10.167 74 -12.5s52 -3.5 84 -3.5c48 0 83.667 9.33301 107 28s35 47.334 35 86.001c0 37.333 -10.167 64.666 -30.5 81.999s-52.5 26 -96.5 26h-98v74h78c38 0 67.5 9.5 88.5 28.5s31.5 46.5 31.5 82.5c0 34.667 -8.5 60 -25.5 76s-44.167 24 -81.5 24
c-24 0 -51.167 -2.16699 -81.5 -6.5s-52.166 -8.5 -65.499 -12.5v73c22.667 7.33301 49 13 79 17s59.667 6 89 6c54 0 95.167 -14.167 123.5 -42.5s42.5 -69.166 42.5 -122.499z" />
    <glyph glyph-name="four.osf" horiz-adv-x="528" 
d="M501 94v-74h-86v-172h-85v172h-287v74l76 400h82l-72 -400h201v287h85v-287h86z" />
    <glyph glyph-name="five.osf" horiz-adv-x="450" 
d="M417 38c0 -65.333 -16.999 -114.667 -50.999 -148s-84.667 -50 -152 -50c-38.667 0 -73.334 1.66699 -104.001 5s-55.334 8.33301 -74.001 15v76c23.333 -5.33301 47.833 -9.33301 73.5 -12s53.5 -4 83.5 -4c50.667 0 86.5 9 107.5 27s31.5 48.667 31.5 92
c0 40 -10.167 68.333 -30.5 85s-57.833 25 -112.5 25c-24 0 -45.833 -1 -65.5 -3s-39.167 -5 -58.5 -9v357h312v-77h-227v-203c15.333 2 29.5 3.5 42.5 4.5s25.833 1.5 38.5 1.5c64.667 0 111.834 -14.833 141.501 -44.5s44.5 -75.5 44.5 -137.5z" />
    <glyph glyph-name="six.osf" horiz-adv-x="513" 
d="M268 -8c-80.667 0 -137.668 22.999 -171.001 68.999s-50 124.667 -50 236c0 121.333 21.5 208.333 64.5 261s113.167 79 210.5 79c14.667 0 30.834 -0.666992 48.501 -2s31.167 -3 40.5 -5v-75c-17.333 2 -33 3.33301 -47 4s-28 1 -42 1c-66 0 -112.833 -15 -140.5 -45
s-43.834 -83.333 -48.501 -160c30.667 16.667 60 28.667 88 36s58 11 90 11c58 0 100.833 -15.667 128.5 -47s41.5 -79.666 41.5 -144.999c0 -68.667 -18.667 -122.167 -56 -160.5s-89.666 -57.5 -156.999 -57.5zM398.999 206.999c0 44.667 -8.83301 76.332 -26.5 94.999
s-48.834 28 -93.501 28c-24.667 0 -49.667 -3.66699 -75 -11s-49.666 -17.666 -72.999 -30.999c0.666992 -80.667 10.667 -136.834 30 -168.501s54 -47.5 104 -47.5c44 0 77.333 11.333 100 34s34 56.334 34 101.001z" />
    <glyph glyph-name="seven.osf" horiz-adv-x="441" 
d="M417 494v-77l-290 -569h-95l294 569h-300v77h391z" />
    <glyph glyph-name="eight.osf" horiz-adv-x="521" 
d="M476 168c0 -60.667 -17.334 -105.168 -52.001 -133.501s-89.667 -42.5 -165 -42.5s-129.833 13.5 -163.5 40.5s-50.5 70.5 -50.5 130.5c0 44 10.833 79.833 32.5 107.5s52.5 44.834 92.5 51.501c-38 7.33301 -66.5 23.833 -85.5 49.5s-28.167 59.5 -27.5 101.5
c0 56 16.333 97.333 49 124s83.667 40 153 40c72 0 124.333 -12.667 157 -38s49 -66.333 49 -123c0 -43.333 -9.66699 -77.833 -29 -103.5s-48 -42.5 -86 -50.5c40.667 -6 71.834 -22.333 93.501 -49s32.5 -61.667 32.5 -105zM388.999 461.999
c0 34.667 -10.332 60 -30.999 76s-53.667 24 -99 24c-44 0 -76 -8 -96 -24s-30 -41.667 -30 -77c0 -38 10.167 -65.5 30.5 -82.5s52.166 -25.5 95.499 -25.5c44.667 0 77.5 8.66699 98.5 26s31.5 45 31.5 83zM397 178.999c0 36.667 -11 63.501 -33 80.501
s-57 25.5 -105 25.5c-46.667 0 -80.667 -8.66699 -102 -26s-32 -45.333 -32 -84c0 -36.667 10.667 -63.334 32 -80.001s55.333 -25 102 -25c48 0 83 8.66699 105 26s33 45 33 83z" />
    <glyph glyph-name="nine.osf" horiz-adv-x="507" 
d="M246 504c80.667 0 136.837 -23.165 168.504 -69.498s47.5 -127.833 47.5 -244.5c0 -124.667 -21.5 -214.167 -64.5 -268.5s-113.167 -81.5 -210.5 -81.5c-16.667 0 -33.834 0.833008 -51.501 2.5s-31.167 3.5 -40.5 5.5v78c13.333 -2 27.666 -3.5 42.999 -4.5
s31.666 -1.5 48.999 -1.5c65.333 0 112 15.667 140 47s44 86.666 48 165.999c-24.667 -16 -50.834 -27.833 -78.501 -35.5s-57.167 -11.5 -88.5 -11.5c-60 0 -104.5 16.333 -133.5 49s-43.5 82.667 -43.5 150c0 69.333 18.833 123.166 56.5 161.499s90.5 57.5 158.5 57.5z
M246.003 427.002c-43.333 0 -76.167 -11.832 -98.5 -35.499s-33.5 -57.834 -33.5 -102.501c0 -48 9.16699 -81.833 27.5 -101.5s50.5 -29.5 96.5 -29.5c24 0 47.667 3.5 71 10.5s46 17.833 68 32.5c-0.666992 86.667 -10.167 146 -28.5 178s-52.5 48 -102.5 48z" />
    <glyph glyph-name="zero.dnom" horiz-adv-x="364" 
d="M329 180c0 -68 -10.666 -115.833 -31.999 -143.5s-59.666 -41.5 -114.999 -41.5c-58 0 -97 12.833 -117 38.5s-30 74.5 -30 146.5c0 67.333 10.667 114.666 32 141.999s59.666 41 114.999 41c57.333 0 96.166 -12.667 116.499 -38s30.5 -73.666 30.5 -144.999z
M264.001 180c0 50.667 -5.33301 84.167 -16 100.5s-32.667 24.5 -66 24.5s-55.5 -8.5 -66.5 -25.5s-16.5 -50.167 -16.5 -99.5c0 -50 5.33301 -83.333 16 -100s33 -25 67 -25c32.667 0 54.5 8.33301 65.5 25s16.5 50 16.5 100z" />
    <glyph glyph-name="one.dnom" horiz-adv-x="243" 
d="M191 0h-64v301l-110 -13v54l174 21v-363z" />
    <glyph glyph-name="two.dnom" horiz-adv-x="295" 
d="M264 60l-0.000976562 -60.0029h-239v60l137 137c12 12.667 20.667 24.334 26 35.001s8 21.334 8 32.001c0 13.333 -4.33301 23.5 -13 30.5s-21 10.5 -37 10.5c-15.333 0 -34.166 -1.33301 -56.499 -4s-37.5 -5 -45.5 -7v56c15.333 4 32.833 7.16699 52.5 9.5
s39.5 3.5 59.5 3.5c33.333 0 59 -8.16699 77 -24.5s27 -39.166 27 -68.499c0 -18.667 -3.5 -35.5 -10.5 -50.5s-18.833 -30.833 -35.5 -47.5l-112 -112h162z" />
    <glyph glyph-name="three.dnom" horiz-adv-x="293" 
d="M246 272c0 -22 -5.50098 -40.166 -16.501 -54.499s-26.167 -23.833 -45.5 -28.5v-2c25.333 -1.33301 44.666 -9.33301 57.999 -24s20 -35.334 20 -62.001c0 -34 -11 -60.167 -33 -78.5s-53.667 -27.5 -95 -27.5c-22.667 0 -43 1 -61 3s-33 5 -45 9v53
c13.333 -2.66699 27.333 -4.66699 42 -6s32.334 -2 53.001 -2c28 0 48.333 4.33301 61 13s19 22.334 19 41.001c0 17.333 -5.5 30.166 -16.5 38.499s-28.5 12.5 -52.5 12.5h-61v52h47c21.333 0 38 4.5 50 13.5s18 21.833 18 38.5s-4.83301 28.667 -14.5 36
s-24.834 11 -45.501 11c-13.333 0 -29.5 -1.16699 -48.5 -3.5s-32.5 -4.5 -40.5 -6.5v51c12.667 4 28.334 7.33301 47.001 10s38.334 4 59.001 4c32.667 0 57.667 -7.83301 75 -23.5s26 -38.167 26 -67.5z" />
    <glyph glyph-name="four.dnom" horiz-adv-x="334" 
d="M311 145v-56h-49v-89h-63v89h-171v56l46 212h60l-43 -212h110v150h61v-150h49z" />
    <glyph glyph-name="five.dnom" horiz-adv-x="292" 
d="M265 106c0 -36 -10.667 -63.5 -32 -82.5s-52 -28.5 -92 -28.5c-25.333 0 -47.5 1 -66.5 3s-33.833 5 -44.5 9v54c12.667 -2.66699 26.667 -4.66699 42 -6s33 -2 53 -2c28 0 48 4.16699 60 12.5s18 22.166 18 41.499s-5.66699 32.833 -17 40.5s-32.333 11.5 -63 11.5
c-13.333 0 -26.5 -0.5 -39.5 -1.5s-25.167 -2.5 -36.5 -4.5v204h194v-55h-133v-96c6.66699 0.666992 14.167 1.33398 22.5 2.00098s16.5 1 24.5 1c38.667 0 66.667 -8.33301 84 -25s26 -42.667 26 -78z" />
    <glyph glyph-name="six.dnom" horiz-adv-x="327" 
d="M172 -5c-51.333 0 -87.167 13 -107.5 39s-30.5 71 -30.5 135c0 68.667 13.333 118.167 40 148.5s70 45.5 130 45.5c11.333 0 22.333 -0.5 33 -1.5s18.334 -2.16699 23.001 -3.5v-50c-18.667 1.33301 -31.167 2.16602 -37.5 2.49902s-12.5 0.5 -18.5 0.5
c-36.667 0 -63 -7.66699 -79 -23s-25.333 -42 -28 -80c16 8.66699 32.167 14.834 48.5 18.501s34.166 5.5 53.499 5.5c35.333 0 61.333 -9.16699 78 -27.5s25 -46.5 25 -84.5c0 -39.333 -11.5 -70 -34.5 -92s-54.833 -33 -95.5 -33zM242.999 118
c0 23.333 -4.66895 39.5 -14.002 48.5s-26.666 13.5 -51.999 13.5c-14 0 -28.167 -1.66699 -42.5 -5s-27.5 -8 -39.5 -14c0.666992 -42.667 6.33398 -72.167 17.001 -88.5s29.667 -24.5 57 -24.5c24.667 0 43.167 5.83301 55.5 17.5s18.5 29.167 18.5 52.5z" />
    <glyph glyph-name="seven.dnom" horiz-adv-x="289" 
d="M269 357v-57l-169 -300h-72l172 300h-173v57h242z" />
    <glyph glyph-name="eight.dnom" horiz-adv-x="334" 
d="M301 96c0 -35.333 -10.8311 -61.002 -32.498 -77.002s-55.834 -24 -102.501 -24c-47.333 0 -81.333 7.66699 -102 23s-31 40.666 -31 75.999c0 24 6.33301 44 19 60s30.667 26 54 30c-22 5.33301 -38.5 15.166 -49.5 29.499s-16.5 32.833 -16.5 55.5
c0 32.667 10.167 56.5 30.5 71.5s52.166 22.5 95.499 22.5c45.333 0 78 -7.16699 98 -21.5s30 -38.166 30 -71.499c0 -23.333 -5.66699 -42.166 -17 -56.499s-28 -24.166 -50 -29.499c23.333 -4.66699 41.5 -14.667 54.5 -30s19.5 -34.666 19.5 -57.999zM237.002 260.998
c0 18 -5.49902 30.832 -16.499 38.499s-29.167 11.5 -54.5 11.5c-24.667 0 -42.334 -4 -53.001 -12s-16 -21 -16 -39c0 -19.333 5.5 -33.166 16.5 -41.499s28.5 -12.5 52.5 -12.5c24.667 0 42.667 4.33301 54 13s17 22.667 17 42zM242.003 103.997
c0 18.667 -6 32.1689 -18 40.502s-31.333 12.5 -58 12.5c-25.333 0 -44 -4.33301 -56 -13s-18 -22.334 -18 -41.001s5.83301 -32.334 17.5 -41.001s30.5 -13 56.5 -13c26.667 0 46 4.33301 58 13s18 22.667 18 42z" />
    <glyph glyph-name="nine.dnom" horiz-adv-x="327" 
d="M158 363c50.667 0 85.832 -12.833 105.499 -38.5s29.5 -70.834 29.5 -135.501c0 -68 -13.5 -117.333 -40.5 -148s-70.5 -46 -130.5 -46c-10.667 0 -21.667 0.5 -33 1.5s-19.666 2.16699 -24.999 3.5v52c10 -1.33301 19.667 -2.33301 29 -3s19 -1 29 -1
c37.333 0 63.833 7.66699 79.5 23s25.167 42.333 28.5 81c-16 -8.66699 -31.667 -15 -47 -19s-32 -6 -50 -6c-36 0 -62.833 9.33301 -80.5 28s-26.5 47 -26.5 85c0 38.667 11.5 68.834 34.5 90.501s55.5 32.5 97.5 32.5zM157.998 309c-24 0 -42.001 -5.5 -54.001 -16.5
s-18 -27.5 -18 -49.5c0 -24 4.83301 -40.667 14.5 -50s27.5 -14 53.5 -14c14 0 27.333 1.66699 40 5s25.334 8.33301 38.001 15c-0.666992 43.333 -6 72.5 -16 87.5s-29.333 22.5 -58 22.5z" />
    </font>
</defs>
</svg>
